<?xml version="1.0" standalone="no"?>
<!DOCTYPE svg PUBLIC "-//W3C//DTD SVG 1.1//EN" "http://www.w3.org/Graphics/SVG/1.1/DTD/svg11.dtd" >
<svg xmlns="http://www.w3.org/2000/svg" xmlns:xlink="http://www.w3.org/1999/xlink" version="1.1">
<metadata>
Created by FontForge 20170731 at Fri Jun  8 05:43:05 2012
 By Aleksey,,,
Copyright (c) 2012 GodoSoft &#38; YoonDesign Inc. All rights reserved.
</metadata>
<defs>
<font id="GodoM" horiz-adv-x="920" >
  <font-face 
    font-family="Godo M"
    font-weight="400"
    font-stretch="normal"
    units-per-em="1000"
    panose-1="2 0 5 3 0 0 0 2 0 4"
    ascent="800"
    descent="-200"
    x-height="500"
    cap-height="707"
    bbox="-74 -325 950 880"
    underline-thickness="50"
    underline-position="-150"
    unicode-range="U+0001-FFE6"
  />
<missing-glyph horiz-adv-x="690" 
d="M620 -102h-550v798h550v-798zM515 -17v628h-340v-628h340z" />
    <glyph glyph-name=".notdef" horiz-adv-x="690" 
d="M620 -102h-550v798h550v-798zM515 -17v628h-340v-628h340z" />
    <glyph glyph-name=".null" horiz-adv-x="0" 
 />
    <glyph glyph-name="nonmarkingreturn" horiz-adv-x="333" 
 />
    <glyph glyph-name="uni0001" horiz-adv-x="307" 
 />
    <glyph glyph-name="uni0001" unicode=" " horiz-adv-x="307" 
 />
    <glyph glyph-name="uni0001" horiz-adv-x="307" 
 />
    <glyph glyph-name="uni0001" horiz-adv-x="307" 
 />
    <glyph glyph-name="uni0001" horiz-adv-x="307" 
 />
    <glyph glyph-name="uni0001" horiz-adv-x="307" 
 />
    <glyph glyph-name="uni0001" horiz-adv-x="307" 
 />
    <glyph glyph-name="uni0001" horiz-adv-x="307" 
 />
    <glyph glyph-name="uni0001" horiz-adv-x="307" 
 />
    <glyph glyph-name="uni0001" horiz-adv-x="307" 
 />
    <glyph glyph-name="uni0001" horiz-adv-x="307" 
 />
    <glyph glyph-name="uni0001" horiz-adv-x="307" 
 />
    <glyph glyph-name="uni0001" horiz-adv-x="307" 
 />
    <glyph glyph-name="uni0001" horiz-adv-x="307" 
 />
    <glyph glyph-name="uni0001" horiz-adv-x="307" 
 />
    <glyph glyph-name="uni0001" horiz-adv-x="307" 
 />
    <glyph glyph-name="uni0001" horiz-adv-x="307" 
 />
    <glyph glyph-name="uni0001" horiz-adv-x="307" 
 />
    <glyph glyph-name="uni0001" horiz-adv-x="307" 
 />
    <glyph glyph-name="uni0001" horiz-adv-x="307" 
 />
    <glyph glyph-name="uni0001" unicode="&#xd;" horiz-adv-x="307" 
 />
    <glyph glyph-name="uni0001" horiz-adv-x="307" 
 />
    <glyph glyph-name="uni0001" horiz-adv-x="307" 
 />
    <glyph glyph-name="uni0001" unicode="&#xa;" horiz-adv-x="307" 
 />
    <glyph glyph-name="uni0001" unicode="&#x9;" horiz-adv-x="307" 
 />
    <glyph glyph-name="uni0001" horiz-adv-x="307" 
 />
    <glyph glyph-name="uni0001" horiz-adv-x="307" 
 />
    <glyph glyph-name="uni0001" horiz-adv-x="307" 
 />
    <glyph glyph-name="uni0001" horiz-adv-x="307" 
 />
    <glyph glyph-name="uni0001" horiz-adv-x="307" 
 />
    <glyph glyph-name="uni0001" horiz-adv-x="307" 
 />
    <glyph glyph-name="uni0001" horiz-adv-x="307" 
 />
    <glyph glyph-name="uni0001" horiz-adv-x="307" 
 />
    <glyph glyph-name="exclam" unicode="!" horiz-adv-x="350" 
d="M101 -7q0 29 20.5 49.5t49.5 20.5q30 0 50.5 -20.5t20.5 -49.5q0 -30 -20.5 -51t-50.5 -21q-29 0 -49.5 21t-20.5 51zM214 165q-1 -12 -10.5 -16.5t-31.5 -4.5q-43 0 -43 21l-19 542h123z" />
    <glyph glyph-name="quotedbl" unicode="&#x22;" horiz-adv-x="433" 
d="M162 516q-1 -9 -11 -13.5t-22 -4.5q-14 1 -23 4.5t-10 13.5l-23 191h111zM337 516q-1 -9 -11 -13.5t-22 -4.5q-14 1 -23 4.5t-10 13.5l-23 191h112z" />
    <glyph glyph-name="numbersign" unicode="#" horiz-adv-x="680" 
d="M40 183v97h106l21 129h-95v97h110l32 201h105l-32 -201h141l32 201h106l-33 -201h83q13 0 19 -11t6 -37q0 -49 -25 -49h-98l-21 -129h87q14 0 19.5 -10.5t5.5 -36.5q0 -50 -25 -50h-102l-34 -213h-105l34 213h-141l-34 -213h-105l34 213h-91zM251 280h141l21 129h-141z
" />
    <glyph glyph-name="dollar" unicode="$" horiz-adv-x="608" 
d="M350 -131q0 -22 -51 -22t-51 22v99q-32 1 -63 7t-57.5 13.5t-47 15.5t-32.5 15q-11 7 -15.5 17.5t6.5 36.5q12 28 22 33.5t22 0.5q17 -7 39 -14.5t46.5 -14t50 -10.5t50.5 -4q85 0 136.5 25.5t51.5 82.5q0 25 -13 42.5t-37.5 31.5t-60 28t-80.5 32q-40 17 -81.5 38.5
t-71.5 50.5q-26 25 -40 56t-14 69q0 45 15 77.5t40.5 55t60 35t73.5 18.5v95h102v-92q27 -2 53 -8t48.5 -13.5t40.5 -16t29 -14.5t16 -16.5t-7 -36.5q-13 -28 -21.5 -33t-21.5 0q-32 15 -75.5 29t-93.5 14q-67 0 -106.5 -22.5t-39.5 -70.5q0 -21 9.5 -38t29 -32t48.5 -30
t69 -32q38 -16 79 -32.5t76 -39.5q38 -26 62.5 -60t24.5 -85q0 -48 -21 -87t-63 -68q-51 -35 -136 -45v-103z" />
    <glyph glyph-name="percent" unicode="%" horiz-adv-x="875" 
d="M317 -30h-104l352 737h103zM293 516q0 31 -21 54t-57 23q-35 0 -56.5 -23t-21.5 -54t21.5 -54t56.5 -23q36 0 57 23t21 54zM40 516q0 35 13.5 64.5t36.5 51t55 33.5t70 12q37 0 69.5 -12t55.5 -33.5t36.5 -51t13.5 -64.5t-13.5 -64.5t-36.5 -51t-55.5 -33.5t-69.5 -12
q-38 0 -70 12t-55 33.5t-36.5 51t-13.5 64.5zM745 152q0 32 -21.5 54.5t-57.5 22.5q-35 0 -56.5 -22.5t-21.5 -54.5q0 -31 21.5 -54t56.5 -23q36 0 57.5 23t21.5 54zM491 152q0 35 13.5 64.5t36.5 51t55 33.5t70 12q37 0 69.5 -12t56 -33.5t37 -51t13.5 -64.5t-13.5 -64
t-37 -50.5t-56 -33.5t-69.5 -12q-38 0 -70 12t-55 33.5t-36.5 50.5t-13.5 64z" />
    <glyph glyph-name="ampersand" unicode="&#x26;" horiz-adv-x="711" 
d="M557 -30l-59 71q-12 -11 -32 -25t-47 -27.5t-61.5 -22.5t-76.5 -9q-112 0 -169.5 57.5t-57.5 154.5q0 35 11.5 67t32 60t47.5 51.5t58 41.5q-12 14 -25.5 32t-24 39t-17.5 44t-7 49q0 35 12.5 66t35.5 53.5t55.5 35.5t73.5 13q39 0 71.5 -13t56.5 -36t37 -54t13 -66
q0 -44 -23 -78.5t-58 -58.5l-57 -38l156 -186q20 29 29.5 71t11.5 80h100q-3 -71 -21 -127.5t-56 -100.5l120 -144h-129zM261 322q-20 -14 -39 -30.5t-34 -35.5t-24 -41.5t-9 -47.5q0 -54 34.5 -85.5t91.5 -31.5q50 0 86.5 18t68.5 47zM383 551q0 31 -22.5 53.5t-54.5 22.5
q-35 0 -55.5 -22t-20.5 -53q0 -29 18 -56t41 -53q5 2 10.5 6.5t11.5 8.5t14 9q22 14 40 36t18 48z" />
    <glyph glyph-name="quotesingle" unicode="'" horiz-adv-x="257" 
d="M163 516q-1 -9 -11.5 -13.5t-22.5 -4.5q-14 1 -23.5 4.5t-10.5 13.5l-23 191h113z" />
    <glyph glyph-name="parenleft" unicode="(" horiz-adv-x="319" 
d="M296 800q-24 -39 -44.5 -93.5t-36 -119t-24 -136t-8.5 -144.5q0 -72 9 -142t24 -133t35.5 -117t44.5 -93h-101q-22 32 -44 83.5t-39.5 115.5t-28.5 137.5t-11 148.5q0 78 11 152.5t28.5 139.5t39.5 117t44 84h101z" />
    <glyph glyph-name="parenright" unicode=")" horiz-adv-x="319" 
d="M124 800q21 -32 43 -84t39.5 -117t28.5 -139.5t11 -152.5q0 -75 -11 -148.5t-28.5 -137.5t-39 -115.5t-43.5 -83.5h-102q24 39 44.5 93t36 117t24 133t8.5 142q0 73 -8.5 144.5t-23.5 136t-36 119t-45 93.5h102z" />
    <glyph glyph-name="asterisk" unicode="*" horiz-adv-x="536" 
d="M203 493l-141 33l29 92l133 -49l-7 138h103l-7 -138l132 50l29 -91l-140 -35l91 -117l-80 -56l-77 122l-76 -122l-82 55z" />
    <glyph glyph-name="plus" unicode="+" horiz-adv-x="577" 
d="M59 379h177v172h99v-172h157q25 0 25 -49q0 -48 -25 -48h-157v-166q0 -24 -50 -24q-49 0 -49 24v166h-177v97z" />
    <glyph glyph-name="comma" unicode="," horiz-adv-x="286" 
d="M136 -110q-30 1 -52.5 19.5t-22.5 58.5q0 32 21.5 53t52.5 21q35 0 56.5 -21t21.5 -57q0 -31 -11 -63t-26.5 -60.5t-32.5 -51.5t-29 -35q-5 -6 -10 -4t-19 12q-11 8 -15 13.5t0 10.5q21 26 40.5 53t25.5 51z" />
    <glyph glyph-name="hyphen" unicode="-" horiz-adv-x="525" 
d="M59 379h382q25 0 25 -49q0 -48 -25 -48h-382v97z" />
    <glyph glyph-name="period" unicode="." horiz-adv-x="286" 
d="M213 -34q0 -34 -21.5 -55t-54.5 -21t-54.5 21t-21.5 55t21.5 55t54.5 21t54.5 -21t21.5 -55z" />
    <glyph glyph-name="slash" unicode="/" horiz-adv-x="474" 
d="M149 -97h-108l283 875h107z" />
    <glyph glyph-name="zero" unicode="0" horiz-adv-x="566" 
d="M423 339q0 61 -8 113t-24.5 90t-43.5 60t-64 22q-38 0 -64 -22t-43 -60t-24.5 -90t-7.5 -113t7.5 -113t24.5 -90.5t43 -60t64 -21.5q37 0 64 21.5t43.5 60t24.5 90.5t8 113zM535 339q0 -87 -15 -158t-46.5 -120.5t-79 -76.5t-111.5 -27q-65 0 -112 27t-78 76.5t-46 120.5
t-15 158t15 158t46 120.5t78 76.5t112 27q64 0 111.5 -27t79 -76.5t46.5 -120.5t15 -158z" />
    <glyph glyph-name="one" unicode="1" horiz-adv-x="433" 
d="M208 603l-133 -52v100l138 56h107v-723q0 -23 -56 -23t-56 23v619z" />
    <glyph glyph-name="two" unicode="2" horiz-adv-x="566" 
d="M378 497q0 34 -10 58t-28 39.5t-43 22.5t-54 7q-42 0 -77.5 -9.5t-76.5 -23.5v97q29 11 67 22t87 11t94 -13t79 -40.5t54 -70t20 -101.5q0 -39 -14.5 -77.5t-37 -75t-49.5 -69.5t-52 -61l-129 -146h275q25 0 25 -49q0 -26 -5.5 -37t-19.5 -11h-424v94l161 178
q24 28 52 58t51.5 62.5t39 66t15.5 68.5z" />
    <glyph glyph-name="three" unicode="3" horiz-adv-x="566" 
d="M214 -43q-47 0 -86.5 6t-68.5 14v101q26 -8 65 -16t84 -8q34 0 65.5 7t56 22.5t39 39.5t14.5 57q0 52 -33 85.5t-95 33.5h-127v99h124q49 0 79.5 29.5t30.5 81.5q0 51 -32.5 83t-99.5 32q-37 0 -78.5 -9t-86.5 -23v98q37 13 79.5 22t85.5 9q52 0 97 -12.5t77 -38.5
t50.5 -66t18.5 -95q0 -54 -24.5 -95.5t-66.5 -62.5q25 -9 46 -26.5t36 -40t23 -50t8 -55.5q0 -59 -21.5 -101t-59.5 -69t-89.5 -39.5t-110.5 -12.5z" />
    <glyph glyph-name="four" unicode="4" horiz-adv-x="566" 
d="M339 209v348l-189 -348h189zM451 -16q0 -23 -57 -23q-55 0 -55 23v128h-306v99l270 496h148v-498h69q25 0 25 -49q0 -26 -5.5 -37t-19.5 -11h-69v-128z" />
    <glyph glyph-name="five" unicode="5" horiz-adv-x="566" 
d="M220 -43q-46 0 -83 6t-66 14v101q26 -8 62.5 -16t80.5 -8q34 0 65.5 9.5t56 28t39.5 46.5t15 64t-11 62.5t-30 43.5t-45.5 25.5t-57.5 8.5h-151v365h347q25 0 25 -47q0 -50 -25 -50h-235v-171h45q58 0 104 -14.5t78.5 -44t50 -73.5t17.5 -104t-22 -105.5t-60 -77
t-89.5 -47.5t-110.5 -16z" />
    <glyph glyph-name="six" unicode="6" horiz-adv-x="566" 
d="M535 194q0 -51 -18 -94.5t-51 -75t-78.5 -49.5t-100.5 -18t-100.5 17t-78 47.5t-50.5 73.5t-18 94q0 27 6.5 52.5t16 50t21 47.5t22.5 44l170 324h121l-156 -299q30 11 67 11q48 0 89.5 -17t72 -47t48 -71.5t17.5 -89.5zM152 191q0 -30 10 -55t28 -43.5t43 -28.5t54 -10
q30 0 55 10t43 28.5t28 43.5t10 55q0 28 -10 52t-28 42t-43 28t-55 10q-29 0 -54 -10.5t-43 -28.5t-28 -42t-10 -51z" />
    <glyph glyph-name="seven" unicode="7" horiz-adv-x="566" 
d="M53 610v97h442v-89l-251 -648h-119l247 640h-319z" />
    <glyph glyph-name="eight" unicode="8" horiz-adv-x="566" 
d="M283 54q28 0 53.5 9.5t44.5 26.5t30 39.5t11 48.5t-10 49t-28 40.5t-43.5 27.5t-57.5 10t-57.5 -10t-43.5 -27.5t-27.5 -40.5t-9.5 -49t11 -48.5t29.5 -39.5t43.5 -26.5t54 -9.5zM283 624q-57 0 -91 -32t-34 -81q0 -24 9.5 -45t26.5 -36.5t39.5 -24.5t49.5 -9t49.5 9
t39.5 24.5t26.5 36.5t9.5 45q0 49 -34 81t-91 32zM283 -43q-53 0 -98.5 15.5t-79 44t-53 69t-19.5 90.5q0 33 9 60.5t23 49.5t32.5 38.5t38.5 28.5q-35 22 -62.5 63.5t-27.5 97.5q0 46 17 84t48.5 65.5t75 42.5t96.5 15t96.5 -15t75 -42.5t48.5 -65.5t17 -84q0 -57 -27 -98
t-62 -63q19 -12 37.5 -28.5t33 -38.5t23.5 -49.5t9 -60.5q0 -50 -19.5 -90.5t-53.5 -69t-80 -44t-98 -15.5z" />
    <glyph glyph-name="nine" unicode="9" horiz-adv-x="566" 
d="M31 483q0 51 18 94.5t51 75t78.5 49.5t100.5 18t100.5 -17t78 -47.5t50.5 -73.5t18 -94q0 -27 -6.5 -52.5t-16 -50t-21.5 -47.5t-22 -44l-170 -324h-121l156 299q-30 -11 -67 -11q-48 0 -89.5 17t-72 47t-48 71.5t-17.5 89.5zM414 486q0 30 -10 55t-28 43.5t-43 28.5
t-54 10q-30 0 -55 -10t-43 -28.5t-28 -43.5t-10 -55q0 -28 10 -52t28 -42t43 -28t55 -10q29 0 54 10.5t43 28.5t28 42t10 51z" />
    <glyph glyph-name="colon" unicode=":" horiz-adv-x="286" 
d="M213 503q0 -34 -21.5 -55t-54.5 -21t-54.5 21t-21.5 55q0 35 21.5 56t54.5 21t54.5 -21t21.5 -56zM213 88q0 -34 -21.5 -55t-54.5 -21t-54.5 21t-21.5 55q0 35 21.5 55.5t54.5 20.5t54.5 -20.5t21.5 -55.5z" />
    <glyph glyph-name="semicolon" unicode=";" horiz-adv-x="286" 
d="M136 12q-30 1 -52.5 20t-22.5 58q0 32 21.5 53t52.5 21q35 0 56.5 -20.5t21.5 -57.5q0 -30 -11 -62t-26.5 -61t-32.5 -52t-29 -35q-5 -5 -10 -3.5t-19 11.5q-11 9 -15 14t0 10q21 26 40.5 53t25.5 51zM213 503q0 -34 -21.5 -55t-54.5 -21t-54.5 21t-21.5 55q0 35 21.5 56
t54.5 21t54.5 -21t21.5 -56z" />
    <glyph glyph-name="less" unicode="&#x3c;" horiz-adv-x="546" 
d="M516 132v-119l-469 268q-3 1 -6 3.5t-5.5 7.5t-4.5 13.5t-2 22.5q0 26 5 33t9 9l473 271v-119l-342 -195z" />
    <glyph glyph-name="equal" unicode="=" horiz-adv-x="546" 
d="M59 493h402q25 0 25 -48q0 -49 -25 -49h-402v97zM59 263h402q25 0 25 -49q0 -26 -5.5 -37t-19.5 -11h-402v97z" />
    <glyph glyph-name="greater" unicode="&#x3e;" horiz-adv-x="546" 
d="M371 327l-342 195v119l473 -271q4 -2 9 -9t5 -33q0 -14 -2 -22.5t-4.5 -13.5t-6 -7.5t-6.5 -3.5l-468 -268v119z" />
    <glyph glyph-name="question" unicode="?" horiz-adv-x="453" 
d="M97 -7q0 29 20.5 49.5t49.5 20.5q30 0 50.5 -20.5t20.5 -49.5q0 -30 -20.5 -51t-50.5 -21q-29 0 -49.5 21t-20.5 51zM419 533q0 -35 -15 -65.5t-37 -57t-47.5 -49t-45.5 -40.5q-17 -15 -28.5 -26t-18 -22.5t-9.5 -24.5t-3 -32v-48q0 -14 -13 -19t-37 -5q-53 0 -53 24v52
q0 18 1 35t6.5 34t18 34.5t35.5 35.5q25 21 50.5 42t45 42.5t32 43.5t12.5 46q0 51 -32.5 73t-89.5 22q-42 0 -81 -9.5t-84 -23.5v93q29 11 72.5 22t92.5 11q48 0 89.5 -8.5t72 -29.5t48.5 -57.5t18 -92.5z" />
    <glyph glyph-name="at" unicode="@" horiz-adv-x="924" 
d="M345 506q-11 0 -17 10t-6 34q0 43 23 43h168q92 0 134 -39t42 -133v-217q1 -11 6.5 -13t18.5 -2q47 0 62 25t15 70v106q0 70 -24 126t-66 95t-98.5 60t-122.5 21q-79 0 -143 -27t-109.5 -74.5t-70 -111.5t-24.5 -138q0 -75 25 -139t69.5 -110.5t106 -73t134.5 -26.5h232
q22 0 22 -43q0 -42 -22 -42h-232q-94 0 -174 33t-138.5 91t-91 137.5t-32.5 172.5q0 96 33.5 176.5t93 138.5t141.5 90t180 30q86 2 161 -25.5t131 -77.5t88 -120.5t32 -155.5v-105q0 -96 -45 -145.5t-135 -49.5h-76q-29 0 -40.5 6.5t-11.5 14.5v2q-33 -14 -74.5 -23
t-75.5 -9q-36 0 -67.5 9t-55 28.5t-37 50t-13.5 73.5q0 44 14.5 76.5t40.5 53.5t61.5 31.5t77.5 10.5q34 0 67 -5t62 -12v20q0 42 -17.5 62t-60.5 20h-161zM455 334q-49 0 -69 -25t-20 -59q0 -32 19.5 -53t59.5 -21q38 0 74 8.5t65 19.5v112q-23 5 -58.5 11.5t-70.5 6.5z
" />
    <glyph glyph-name="A" unicode="A" horiz-adv-x="680" 
d="M541 -30l-52 154h-296l-54 -154h-115l272 737h90l270 -737h-115zM343 545l-117 -324h230z" />
    <glyph glyph-name="B" unicode="B" horiz-adv-x="639" 
d="M51 707h325q48 0 87 -13.5t66.5 -39t42 -61.5t14.5 -81q0 -56 -25.5 -94.5t-64.5 -58.5q22 -8 41.5 -22t34 -34.5t23 -48.5t8.5 -65q0 -47 -14.5 -87t-43 -69.5t-69.5 -46t-94 -16.5h-194q-17 0 -39.5 12t-48.5 37q-24 23 -36.5 45.5t-12.5 36.5v606zM368 67q60 0 91 31
t31 91q0 63 -28 91t-85 28h-214v-207q0 -20 8 -27t25 -7h172zM370 405q103 0 103 108q0 47 -31.5 72t-79.5 25h-199v-205h207z" />
    <glyph glyph-name="C" unicode="C" horiz-adv-x="654" 
d="M411 -43q-91 0 -161.5 29t-119 80.5t-74 121.5t-25.5 152q0 96 31 167.5t83.5 119t121.5 71t144 23.5q62 0 110 -12.5t83 -32.5q12 -7 15 -16.5t-10 -37.5q-12 -26 -20 -31.5t-20 -0.5q-41 16 -76.5 25t-80.5 9q-60 0 -109.5 -22t-85 -60t-55 -90t-19.5 -112t18.5 -112
t53.5 -90.5t84.5 -61t112.5 -22.5q45 0 80.5 9t76.5 25q12 5 20 1t20 -32q6 -15 8 -23.5t1.5 -14t-4.5 -9t-10 -6.5q-35 -20 -83 -33.5t-110 -13.5z" />
    <glyph glyph-name="D" unicode="D" horiz-adv-x="675" 
d="M314 67q57 0 98 21.5t67 58t38.5 86t12.5 106.5q0 56 -12.5 105.5t-38.5 86t-67 58t-98 21.5h-151v-509q0 -20 8 -27t25 -7h118zM170 -30q-17 0 -39.5 14t-38.5 31q-16 16 -28.5 35.5t-12.5 33.5v623h258q78 0 140 -26.5t105 -74.5t66 -116t23 -151q0 -84 -23 -152
t-66 -116t-105 -74.5t-140 -26.5h-139z" />
    <glyph glyph-name="E" unicode="E" horiz-adv-x="587" 
d="M170 -30q-17 0 -39.5 14t-38.5 31q-16 16 -28.5 35.5t-12.5 33.5v623h472q14 0 19.5 -11t5.5 -37q0 -49 -25 -49h-360v-211h336q13 0 18.5 -11t5.5 -37q0 -49 -24 -49h-336v-201q0 -20 8 -27t25 -7h335q25 0 25 -49q0 -48 -25 -48h-361z" />
    <glyph glyph-name="F" unicode="F" horiz-adv-x="577" 
d="M163 -16q0 -23 -56 -23q-25 0 -40.5 5t-15.5 18v723h473q14 0 19.5 -11t5.5 -37q0 -49 -25 -49h-361v-210h349q25 0 25 -49t-25 -49h-349v-318z" />
    <glyph glyph-name="G" unicode="G" horiz-adv-x="716" 
d="M664 101q0 -14 -11.5 -36.5t-35.5 -45.5q-52 -49 -89 -49h-108q-87 0 -158 25.5t-120.5 74.5t-76.5 118.5t-27 158.5q0 92 31.5 162t85.5 117t125 71t151 24q63 0 110 -9.5t84 -26.5q14 -6 15.5 -15.5t-9.5 -35.5q-11 -28 -19.5 -32.5t-21.5 -0.5q-36 11 -74.5 17
t-83.5 6q-67 0 -119.5 -22t-88.5 -59.5t-54.5 -88t-18.5 -107.5q0 -62 18 -113.5t52.5 -88.5t84.5 -57.5t113 -20.5h100q19 0 26 9t7 25v190h-179v97h291v-287z" />
    <glyph glyph-name="H" unicode="H" horiz-adv-x="659" 
d="M608 -16q0 -23 -56 -23q-25 0 -40.5 5t-15.5 18v314h-333v-314q0 -23 -56 -23t-56 23v723h112v-312h333v312h112v-723z" />
    <glyph glyph-name="I" unicode="I" horiz-adv-x="397" 
d="M51 -30v97h93v543h-93v97h280q13 0 18.5 -11t5.5 -37q0 -49 -24 -49h-75v-543h75q13 0 18.5 -11t5.5 -37q0 -49 -24 -49h-280z" />
    <glyph glyph-name="J" unicode="J" horiz-adv-x="433" 
d="M45 -30q-24 0 -24 48q0 49 24 49h126q48 0 73 19t25 61v463h-143v97h255v-553q0 -94 -52 -139.5t-151 -44.5h-133z" />
    <glyph glyph-name="K" unicode="K" horiz-adv-x="633" 
d="M491 -30l-259 314h-69v-300q0 -23 -56 -23t-56 23v723h112v-326h67l227 326h123l-259 -369l299 -368h-129z" />
    <glyph glyph-name="L" unicode="L" horiz-adv-x="566" 
d="M51 707h112v-606q0 -20 8 -27t25 -7h316q25 0 25 -49q0 -26 -6 -37t-19 -11h-342q-17 0 -39.5 14t-38.5 31q-16 16 -28.5 35.5t-12.5 33.5v623z" />
    <glyph glyph-name="M" unicode="M" horiz-adv-x="803" 
d="M478 164q-11 -23 -28.5 -36.5t-47.5 -13.5q-29 0 -48 13.5t-30 36.5l-159 349h-2v-529q0 -23 -56 -23t-56 23v723h139l212 -463l212 463h138v-723q0 -23 -56 -23q-25 0 -40 5t-15 18v529h-3z" />
    <glyph glyph-name="N" unicode="N" horiz-adv-x="675" 
d="M51 707h146l310 -550h4v550h112v-737h-128l-328 564h-4v-550q0 -23 -56 -23t-56 23v723z" />
    <glyph glyph-name="O" unicode="O" horiz-adv-x="747" 
d="M601 339q0 57 -14 108.5t-42.5 91t-71 62.5t-99.5 23q-58 0 -101 -23t-71.5 -62.5t-43 -91t-14.5 -108.5t14.5 -109t43 -91t71.5 -62t101 -23q57 0 99.5 23t71 62t42.5 91t14 109zM31 339q0 86 25.5 156.5t71.5 120.5t108.5 77.5t136.5 27.5t136.5 -27.5t108.5 -77.5
t71.5 -120.5t25.5 -156.5t-25.5 -156.5t-71.5 -120.5t-108.5 -77.5t-136.5 -27.5t-136.5 27.5t-108.5 77.5t-71.5 120.5t-25.5 156.5z" />
    <glyph glyph-name="P" unicode="P" horiz-adv-x="628" 
d="M350 349q69 0 99.5 32.5t30.5 98.5t-32 98t-102 32h-183v-261h187zM51 707h292q67 0 114 -17t77 -47.5t44 -72t14 -90.5q0 -48 -14 -90t-43.5 -72.5t-76 -48t-111.5 -17.5h-184v-268q0 -23 -56 -23t-56 23v723z" />
    <glyph glyph-name="Q" unicode="Q" horiz-adv-x="752" 
d="M31 339q0 86 25.5 156.5t71.5 120.5t108.5 77.5t136.5 27.5t136.5 -27.5t108.5 -77.5t71.5 -120.5t25.5 -156.5q0 -67 -15.5 -124t-44.5 -103l69 -60q10 -8 4.5 -24.5t-22.5 -34.5q-36 -40 -55 -24l-68 60q-43 -35 -96 -53.5t-114 -18.5q-74 0 -136.5 27.5t-108.5 77.5
t-71.5 120.5t-25.5 156.5zM486 261l85 -75q30 67 30 153q0 57 -14 108.5t-42.5 91t-71 62.5t-99.5 23q-58 0 -101 -23t-71.5 -62.5t-43 -91t-14.5 -108.5t14.5 -109t43 -91t71.5 -62t101 -23q40 0 72.5 11.5t58.5 32.5l-92 81z" />
    <glyph glyph-name="R" unicode="R" horiz-adv-x="628" 
d="M51 707h292q67 0 114 -17t77 -47.5t44 -72t14 -90.5q0 -77 -35.5 -135t-114.5 -81l185 -294h-127l-173 282h-164v-268q0 -23 -56 -23t-56 23v723zM350 349q69 0 99.5 32.5t30.5 98.5t-32 98t-102 32h-183v-261h187z" />
    <glyph glyph-name="S" unicode="S" horiz-adv-x="608" 
d="M269 -43q-35 0 -69 5.5t-63.5 13.5t-52.5 17t-36 16q-11 6 -15.5 17t6.5 37q12 28 22 33.5t22 0.5q17 -7 39 -14.5t46.5 -14t50 -10.5t50.5 -4q85 0 136.5 28t51.5 85q0 25 -13 43.5t-37.5 33.5t-60 29.5t-80.5 32.5q-42 17 -82.5 39t-70.5 52q-26 26 -40 58t-14 70
q0 55 22 93t59 60.5t84 32.5t97 10q31 0 61.5 -5.5t57 -14t47.5 -18t34 -16.5q11 -6 15.5 -16t-6.5 -36q-11 -28 -21 -34t-23 -1q-32 14 -75 29t-93 15q-67 0 -106.5 -24t-39.5 -74q0 -42 38 -72t118 -64q48 -21 95 -40.5t82 -48.5q29 -24 47 -56.5t18 -77.5
q0 -48 -21 -89.5t-63 -70.5q-72 -50 -217 -50z" />
    <glyph glyph-name="T" unicode="T" horiz-adv-x="587" 
d="M26 610v97h520q13 0 19 -11t6 -37q0 -49 -25 -49h-198v-626q0 -23 -57 -23q-55 0 -55 23v626h-210z" />
    <glyph glyph-name="U" unicode="U" horiz-adv-x="675" 
d="M338 54q78 0 125.5 50t47.5 147v456h112v-456q0 -75 -21 -130.5t-58.5 -91.5t-90 -54t-115.5 -18t-115.5 18t-91 54t-59.5 91.5t-21 130.5v456h112v-456q0 -48 13 -85t36 -61.5t55 -37.5t71 -13z" />
    <glyph glyph-name="V" unicode="V" horiz-adv-x="680" 
d="M341 -39q-36 0 -58 9.5t-33 41.5l-226 695h115l162 -508q6 -21 10.5 -36t9 -28.5t9 -28t11.5 -33.5q6 19 10.5 33.5t8.5 28t9 28.5t11 36l163 508h113l-228 -695q-11 -34 -31 -42.5t-56 -8.5z" />
    <glyph glyph-name="W" unicode="W" horiz-adv-x="937" 
d="M406 676h126l95 -441l18 -76.5t18 -80.5q9 43 18.5 83t16.5 74l104 472h112l-154 -684q-8 -35 -31 -48.5t-63 -13.5q-32 0 -58.5 11t-34.5 49l-69 319q-10 46 -17.5 89t-17.5 91q-9 -48 -17.5 -93t-17.5 -87l-69 -319q-9 -38 -35 -49t-58 -11q-40 0 -63.5 13.5
t-31.5 48.5l-153 684h111l104 -472q7 -34 17 -74t19 -83q8 38 17.5 80.5t17.5 76.5z" />
    <glyph glyph-name="X" unicode="X" horiz-adv-x="680" 
d="M522 -30l-183 292l-183 -292h-132l251 380l-236 357h131l169 -269l169 269h132l-238 -357l254 -380h-134z" />
    <glyph glyph-name="Y" unicode="Y" horiz-adv-x="649" 
d="M381 -16q0 -13 -16 -18t-40 -5q-56 0 -56 23v291l-245 432h124l177 -330l175 330h125l-244 -432v-291z" />
    <glyph glyph-name="Z" unicode="Z" horiz-adv-x="587" 
d="M158 67h377q24 0 24 -50q0 -26 -5.5 -36.5t-18.5 -10.5h-504v103l381 537h-372v97h506v-95z" />
    <glyph glyph-name="bracketleft" unicode="[" horiz-adv-x="330" 
d="M92 -178v978h207v-86h-100v-806h100v-86h-207z" />
    <glyph glyph-name="backslash" unicode="\" horiz-adv-x="989" 
d="M426 676h126l60 -279h142l68 310h112l-70 -310h61q25 0 25 -49q0 -26 -6 -37t-19 -11h-83l-62 -277q-8 -35 -31 -48.5t-63 -13.5q-32 0 -58.5 11t-34.5 49l-61 279h-87l-60 -279q-9 -38 -35 -49t-58 -11q-40 0 -63.5 13.5t-31.5 48.5l-62 277h-96v97h74l-69 310h111
l68 -310h142zM259 235q7 -34 17 -74t19 -83q8 38 17.5 80.5t17.5 76.5l14 65h-99zM647 235l18 -76.5t18 -80.5q9 43 18.5 83t16.5 74l14 65h-99zM489 520q-6 -32 -12 -63t-11 -60h46q-5 30 -10.5 60t-12.5 63z" />
    <glyph glyph-name="bracketright" unicode="]" horiz-adv-x="330" 
d="M30 -178v86h100v806h-100v86h207v-978h-207z" />
    <glyph glyph-name="asciicircum" unicode="^" horiz-adv-x="556" 
d="M404 387l-126 211l-124 -211h-108l184 320h97l183 -320h-106z" />
    <glyph glyph-name="underscore" unicode="_" horiz-adv-x="510" 
d="M0 -116h485q25 0 25 -49q0 -26 -5.5 -37t-19.5 -11h-485v97z" />
    <glyph glyph-name="grave" unicode="`" horiz-adv-x="324" 
d="M195 563q-32 40 -65.5 78t-62.5 77l95 57q7 -17 19.5 -40t25.5 -47t26 -47.5t22 -41.5q5 -8 -2.5 -17t-18.5 -16q-12 -6 -22.5 -8.5t-16.5 5.5z" />
    <glyph glyph-name="a" unicode="a" horiz-adv-x="541" 
d="M115 407q-13 0 -18.5 10.5t-5.5 36.5q0 25 5.5 35.5t18.5 10.5h183q101 0 146 -42.5t45 -144.5v-329q0 -13 -14.5 -18t-38.5 -5q-56 0 -56 23v2q-36 -16 -83 -25.5t-86 -9.5t-73 10.5t-59.5 32t-40.5 55.5t-15 81q0 44 16 78.5t44.5 58.5t67.5 36.5t84 12.5q40 0 78 -7.5
t67 -15.5v25q0 45 -20.5 67t-68.5 22h-176zM240 223q-53 0 -80.5 -24t-27.5 -68q0 -36 22.5 -61.5t69.5 -25.5q43 0 83.5 9.5t72.5 21.5v126q-32 9 -67 15.5t-73 6.5z" />
    <glyph glyph-name="b" unicode="b" horiz-adv-x="603" 
d="M160 -16q0 -13 -14.5 -18t-39.5 -5t-40 5t-15 18v744h109v-277h1q27 29 70 46t89 17q62 0 109 -22.5t78.5 -60.5t47.5 -88.5t16 -107.5q0 -59 -17.5 -110t-49 -88.5t-75 -58.5t-95.5 -21q-54 0 -99 16t-74 51h-1v-40zM160 230q0 -56 16 -91t39 -55t49 -27.5t48 -7.5
q33 0 61 14t47.5 39t30.5 59t11 74q0 38 -10 71.5t-29.5 59t-47 40.5t-63.5 15q-24 0 -51 -8.5t-49.5 -30t-37 -58.5t-14.5 -94z" />
    <glyph glyph-name="c" unicode="c" horiz-adv-x="507" 
d="M419 407q-19 5 -49.5 9.5t-57.5 4.5q-40 0 -71.5 -14.5t-53.5 -39.5t-33.5 -58.5t-11.5 -72.5t11 -72.5t32.5 -59t53 -40t71.5 -14.5q34 0 66.5 6t58.5 14q12 4 21 -0.5t20 -32.5q5 -15 7 -24t1 -14t-4.5 -8t-9.5 -6q-12 -7 -31.5 -12t-42 -8.5t-45.5 -5.5t-42 -2
q-62 0 -112.5 19t-87 55t-56.5 87.5t-20 116.5q0 67 21 119.5t58.5 87.5t88.5 53.5t110 18.5q39 0 79.5 -6.5t63.5 -17.5q13 -5 15 -14.5t-9 -36.5t-19.5 -32t-21.5 0z" />
    <glyph glyph-name="d" unicode="d" horiz-adv-x="603" 
d="M442 24h-1q-29 -35 -74 -51t-99 -16q-52 0 -95.5 21t-75 58.5t-49 88.5t-17.5 110q0 57 16 107.5t47.5 88.5t78.5 60.5t109 22.5q46 0 89 -17t70 -46h1v277h109v-744q0 -13 -15 -18t-40 -5t-39.5 5t-14.5 18v40zM442 230q0 57 -14.5 94t-37 58.5t-49.5 30t-51 8.5
q-36 0 -63.5 -15t-47 -40.5t-29.5 -59t-10 -71.5q0 -40 11 -74t30.5 -59t47.5 -39t61 -14q22 0 48 7.5t49 27.5t39 55t16 91z" />
    <glyph glyph-name="e" unicode="e" horiz-adv-x="566" 
d="M424 281q-4 67 -42 103.5t-98 36.5q-35 0 -60.5 -12t-43 -31.5t-27.5 -45t-12 -51.5h283zM329 -43q-64 0 -118.5 16.5t-94.5 50.5t-62.5 86.5t-22.5 124.5q0 64 19.5 116t53 88t80 55.5t100.5 19.5q66 0 114 -23t78.5 -62.5t45 -92t14.5 -111.5q0 -21 -10 -30.5t-26 -9.5
h-358q3 -35 19 -60.5t41 -42t57 -24.5t66 -8q35 0 66 8t60 18q13 5 21.5 -0.5t19.5 -32.5q11 -26 9 -35t-15 -16q-13 -8 -32 -14.5t-40.5 -11t-43.5 -7t-41 -2.5z" />
    <glyph glyph-name="f" unicode="f" horiz-adv-x="412" 
d="M134 407h-103v93h103v99q0 57 32 88t86 31h95q25 0 25 -47q0 -26 -5.5 -36t-19.5 -10h-64q-23 0 -31.5 -16.5t-8.5 -39.5v-69h112q25 0 25 -48q0 -26 -5.5 -35.5t-19.5 -9.5h-112v-423q0 -13 -15.5 -18t-39.5 -5t-39 5t-15 18v423z" />
    <glyph glyph-name="g" unicode="g" horiz-adv-x="603" 
d="M442 19h-1q-27 -29 -70 -45.5t-89 -16.5q-62 0 -109 22t-78.5 60.5t-47.5 89t-16 107.5q0 59 17.5 109.5t49 88t75 59t95.5 21.5q60 0 102.5 -18.5t70.5 -47.5h1v52h109v-507q0 -56 -14.5 -105.5t-45.5 -86.5t-79 -58.5t-115 -21.5h-149q-13 0 -18.5 10.5t-5.5 35.5
q0 26 5.5 36.5t18.5 10.5h138q80 0 118 51.5t38 136.5v17zM442 241q0 55 -16 90t-39 55.5t-49 28t-48 7.5q-33 0 -61 -14t-47.5 -39t-30.5 -59t-11 -74q0 -38 10 -71.5t29.5 -59t47 -40.5t63.5 -15q24 0 51 8t49.5 29.5t37 58.5t14.5 95z" />
    <glyph glyph-name="h" unicode="h" horiz-adv-x="566" 
d="M406 332q0 44 -35.5 66.5t-87.5 22.5q-22 0 -44 -6t-39.5 -15.5t-28.5 -22t-11 -25.5v-368q0 -13 -15 -18t-39 -5q-25 0 -40 5t-15 18v744h109v-275q9 12 25.5 23.5t38.5 19.5t47 13t51 5q46 0 81.5 -15.5t60.5 -42t38 -61.5t13 -74v-337q0 -13 -15 -18t-39 -5
q-25 0 -40 5t-15 18v348z" />
    <glyph glyph-name="i" unicode="i" horiz-adv-x="247" 
d="M68 511h109v-527q0 -13 -14.5 -18t-38.5 -5q-25 0 -40.5 5t-15.5 18v527zM53 666q0 29 20.5 49.5t49.5 20.5q30 0 50.5 -20.5t20.5 -49.5t-20.5 -50t-50.5 -21q-29 0 -49.5 21t-20.5 50z" />
    <glyph glyph-name="j" unicode="j" horiz-adv-x="268" 
d="M-49 -256q-14 0 -19.5 10.5t-5.5 35.5q0 26 5.5 36.5t19.5 10.5h78q19 0 30.5 6t18.5 15.5t9.5 22.5t2.5 28v602h109v-595q0 -81 -36 -126.5t-117 -45.5h-95zM73 666q0 29 20.5 49.5t49.5 20.5q30 0 50.5 -20.5t20.5 -49.5t-20.5 -50t-50.5 -21q-29 0 -49.5 21t-20.5 50z
" />
    <glyph glyph-name="k" unicode="k" horiz-adv-x="541" 
d="M160 -16q0 -13 -15 -18t-39 -5q-55 0 -55 23v744h109v-432h59l156 204h125l-195 -250l222 -280h-122l-183 233h-62v-219z" />
    <glyph glyph-name="l" unicode="l" horiz-adv-x="216" 
d="M53 728h109v-744q0 -13 -15 -18t-39 -5q-55 0 -55 23v744z" />
    <glyph glyph-name="m" unicode="m" horiz-adv-x="788" 
d="M627 337q0 15 -5.5 30t-17 27t-28.5 19.5t-39 7.5q-23 0 -39.5 -8t-27.5 -20.5t-16.5 -27.5t-5.5 -28v-353q0 -13 -15 -18t-39 -5t-39 5t-15 18v351q0 15 -5.5 30t-16.5 27.5t-28 20t-40 7.5t-39.5 -8t-28 -20t-17 -26.5t-5.5 -27.5v-354q0 -13 -15 -18t-39 -5
q-25 0 -40 5t-15 18v516h105v-50q16 26 49.5 45t88.5 19q50 0 80.5 -21t44.5 -52q20 34 56 53.5t96 19.5q45 0 76.5 -15.5t51 -41.5t28.5 -59.5t9 -70.5v-343q0 -13 -15 -18t-39 -5q-25 0 -40 5t-15 18v353z" />
    <glyph glyph-name="n" unicode="n" horiz-adv-x="561" 
d="M51 500h105v-52q9 11 23.5 22.5t35.5 21.5t47 16t57 6q42 0 77 -14.5t60.5 -40.5t39.5 -62t14 -79v-334q0 -13 -15 -18t-39 -5q-25 0 -40 5t-15 18v345q0 24 -10.5 41.5t-27.5 29t-38.5 16.5t-44.5 5t-44.5 -6t-38.5 -16t-27 -23t-10 -26v-366q0 -13 -15 -18t-39 -5
q-25 0 -40 5t-15 18v516z" />
    <glyph glyph-name="o" unicode="o" horiz-adv-x="608" 
d="M303 49q38 0 68 14.5t51 40t32 59.5t11 72t-11 71.5t-32 59t-51 40.5t-68 15t-68 -15t-50.5 -40.5t-31.5 -59t-11 -71.5t11 -72t31.5 -59.5t50.5 -40t68 -14.5zM303 -43q-64 0 -114 21.5t-84.5 59t-53 88.5t-18.5 109t18.5 108.5t53 88.5t84.5 60t114 22t114 -22t85 -60
t53.5 -88.5t18.5 -108.5t-18.5 -109t-53.5 -88.5t-85 -59t-114 -21.5z" />
    <glyph glyph-name="p" unicode="p" horiz-adv-x="603" 
d="M160 -252q0 -24 -56 -24q-24 0 -38.5 5t-14.5 19v752h109v-57h1q29 34 71 52.5t103 18.5q52 0 95.5 -21.5t75 -59t49 -88t17.5 -109.5q0 -57 -16 -107.5t-48 -89t-79 -60.5t-109 -22q-45 0 -88.5 16.5t-70.5 45.5h-1v-271zM160 241q0 -58 14.5 -95t37 -58.5t49.5 -29.5
t51 -8q36 0 64 15t47.5 40.5t29.5 59t10 71.5q0 40 -11 73.5t-31 58t-47.5 38.5t-61.5 14q-22 0 -48 -7.5t-49 -27t-39 -54.5t-16 -90z" />
    <glyph glyph-name="q" unicode="q" horiz-adv-x="603" 
d="M443 19h-1q-27 -29 -70.5 -45.5t-88.5 -16.5q-62 0 -109 22t-79 60.5t-48 89t-16 107.5q0 59 17.5 109.5t49 88t75 59t95.5 21.5q61 0 103 -18.5t71 -52.5h1v57h109v-752q0 -14 -14.5 -19t-38.5 -5q-56 0 -56 24v271zM443 241q0 55 -16 90t-39 54.5t-49 27t-48 7.5
q-34 0 -61.5 -14t-47.5 -38.5t-31 -58t-11 -73.5q0 -38 10 -71.5t29.5 -59t47.5 -40.5t64 -15q24 0 51 8t49.5 29.5t37 58.5t14.5 95z" />
    <glyph glyph-name="r" unicode="r" horiz-adv-x="427" 
d="M279 407q-24 0 -45.5 -9.5t-38 -25.5t-26 -35.5t-9.5 -39.5v-313q0 -13 -15 -18t-38 -5q-26 0 -41 6t-15 17v516h109v-74h1q19 34 51 54t75 20h99q14 0 19.5 -9.5t5.5 -37.5q0 -26 -5.5 -36t-19.5 -10h-107z" />
    <glyph glyph-name="s" unicode="s" horiz-adv-x="463" 
d="M209 -54q-26 0 -55 5t-54.5 12t-45 15t-26.5 13q-11 7 -14 14.5t6 34.5q8 26 17.5 32.5t21.5 1.5q36 -14 76.5 -24.5t72.5 -10.5q53 0 87 19t34 55q0 14 -6.5 24.5t-21 20.5t-37.5 19.5t-56 21.5q-26 9 -56.5 21.5t-57 31.5t-44.5 46.5t-18 67.5q0 39 16 68.5t43 49.5
t64 30t79 10q26 0 51 -4.5t46.5 -10.5t37.5 -13t23 -12q6 -4 9.5 -7t5 -8t0.5 -13.5t-6 -21.5q-10 -26 -19 -32t-20 -1q-18 7 -33.5 13t-30 9.5t-30 5.5t-34.5 2q-17 0 -34 -4t-30 -12.5t-21 -21.5t-8 -30t8 -29t23.5 -22t37.5 -19t50 -19l67.5 -27t57 -30.5t39 -42.5
t14.5 -61t-16 -66.5t-45.5 -53t-72 -35t-95.5 -12.5z" />
    <glyph glyph-name="t" unicode="t" horiz-adv-x="427" 
d="M247 407v-298q0 -27 11.5 -36.5t35.5 -9.5h73q14 0 20 -10t6 -37q0 -28 -6 -37t-20 -9h-99q-28 0 -52 7t-41 22.5t-27 40.5t-10 61v306h-107v93h107v153h109v-153h124q25 0 25 -47q0 -26 -6 -36t-19 -10h-124z" />
    <glyph glyph-name="u" unicode="u" horiz-adv-x="551" 
d="M500 -16q0 -13 -14 -18t-38 -5q-53 0 -53 23v23q-21 -23 -65 -36.5t-94 -13.5q-87 0 -136 51.5t-49 142.5v349h109v-362q0 -26 9 -43t24.5 -27t36 -14t43.5 -4t44 4.5t37.5 13t26.5 19.5t10 25v388h109v-516z" />
    <glyph glyph-name="v" unicode="v" horiz-adv-x="561" 
d="M273 64q11 34 21 62.5t20 58.5l106 315h111l-174 -488q-11 -31 -29.5 -41t-56.5 -10q-35 0 -53.5 10t-30.5 41l-174 488h112l106 -315l19.5 -58.5t21.5 -62.5h1z" />
    <glyph glyph-name="w" unicode="w" horiz-adv-x="814" 
d="M534 188q8 -31 15 -59.5t15 -60.5q11 32 19.5 61.5t16.5 58.5l88 312h106l-141 -486q-8 -29 -27.5 -41t-56.5 -12q-38 0 -58.5 8.5t-28.5 42.5l-48 205q-8 32 -14.5 66.5t-12.5 68.5q-6 -34 -13 -70t-14 -65l-49 -205q-10 -34 -29.5 -42.5t-57.5 -8.5q-37 0 -56.5 12
t-27.5 41l-141 486h106l87 -312q8 -30 16.5 -59t19.5 -61q8 32 15.5 60.5t15.5 59.5l79 302h96z" />
    <glyph glyph-name="x" unicode="x" horiz-adv-x="546" 
d="M391 -30l-125 186l-127 -186h-126l191 270l-182 260h127l117 -181l117 181h125l-181 -260l189 -270h-125z" />
    <glyph glyph-name="y" unicode="y" horiz-adv-x="556" 
d="M75 -256q-25 0 -25 47q0 26 6 36t19 10h29q42 0 76 23.5t49 67.5l13 37q-17 4 -28 14.5t-19 32.5l-175 488h111l107 -316q10 -30 20 -58.5t21 -62.5h1q12 34 21.5 62.5l19.5 58.5l107 316h112l-209 -587q-13 -36 -32.5 -67t-47 -53.5t-63.5 -35.5t-82 -13h-31z" />
    <glyph glyph-name="z" unicode="z" horiz-adv-x="484" 
d="M31 -30v84l270 353h-255v93h396v-84l-271 -353h271q25 0 25 -47q0 -26 -6 -36t-19 -10h-411z" />
    <glyph glyph-name="braceleft" unicode="{" horiz-adv-x="433" 
d="M379 713q-60 0 -84 -23.5t-24 -78.5v-127q0 -111 -107 -155q106 -45 106 -154v-165q0 -55 26 -78.5t89 -23.5h33v-86h-33q-222 0 -222 185v164q0 46 -33.5 73.5t-92.5 37.5q-16 3 -18.5 12t-2.5 26q0 18 3 27t20 12q58 11 91.5 38t33.5 73v141q0 188 215 188h39v-86h-39z
" />
    <glyph glyph-name="bar" unicode="|" horiz-adv-x="330" 
d="M217 -158q0 -13 -13.5 -18t-37.5 -5q-54 0 -54 23v958h105v-958z" />
    <glyph glyph-name="braceright" unicode="}" horiz-adv-x="433" 
d="M15 713v86h39q215 0 215 -188v-141q0 -46 33.5 -73t91.5 -38q17 -3 20 -12t3 -27q0 -17 -2.5 -26t-18.5 -12q-59 -10 -92.5 -37.5t-33.5 -73.5v-164q0 -185 -222 -185h-33v86h33q63 0 89 23.5t26 78.5v165q0 109 106 154q-107 44 -107 155v127q0 55 -24 78.5t-84 23.5
h-39z" />
    <glyph glyph-name="asciitilde" unicode="~" horiz-adv-x="603" 
d="M32 264q0 42 11 72.5t30.5 50.5t45.5 30t55 10q23 0 43.5 -6t40 -16t38.5 -22t39 -25q23 -14 41.5 -23t38.5 -9q46 0 46 90h109q0 -92 -38.5 -140.5t-109.5 -48.5q-31 0 -61 11t-64 32q-20 12 -34.5 22.5t-27 19t-24 13t-24.5 4.5q-20 0 -31.5 -16.5t-11.5 -44.5v-16
q0 -13 -15.5 -18t-39.5 -5q-27 0 -42 6t-15 17v12z" />
    <glyph glyph-name="exclamdown" unicode="&#xa1;" 
d="M389 543q0 30 20.5 51t49.5 21q30 0 50.5 -21t20.5 -51q0 -29 -20.5 -49.5t-50.5 -20.5q-29 0 -49.5 20.5t-20.5 49.5zM521 -171h-123l19 542q0 21 43 21q22 0 31.5 -4.5t10.5 -16.5z" />
    <glyph glyph-name="cent" unicode="&#xa2;" 
d="M627 407q-7 2 -15 3.5t-17 3.5l-123 -358q21 -6 46 -6q34 0 66.5 6t58.5 14q12 4 21 -0.5t20 -32.5q5 -15 7 -24t1 -14t-4.5 -8t-9.5 -6q-12 -7 -31.5 -12t-42 -8.5t-45.5 -5.5t-42 -2q-40 0 -76 9l-24 -70h-102l37 107q-53 35 -82 93.5t-29 138.5q0 67 21 119.5
t58.5 87.5t88.5 53.5t110 18.5h8l29 84h102l-33 -96q11 -3 20 -6t17 -6q13 -5 15 -14.5t-9 -36.5t-19.5 -32t-21.5 0zM350 236q0 -37 9.5 -69t29.5 -57l106 309q-35 -4 -61.5 -20t-45.5 -40t-28.5 -55.5t-9.5 -67.5z" />
    <glyph glyph-name="cent" unicode="&#xffe0;" 
d="M627 407q-7 2 -15 3.5t-17 3.5l-123 -358q21 -6 46 -6q34 0 66.5 6t58.5 14q12 4 21 -0.5t20 -32.5q5 -15 7 -24t1 -14t-4.5 -8t-9.5 -6q-12 -7 -31.5 -12t-42 -8.5t-45.5 -5.5t-42 -2q-40 0 -76 9l-24 -70h-102l37 107q-53 35 -82 93.5t-29 138.5q0 67 21 119.5
t58.5 87.5t88.5 53.5t110 18.5h8l29 84h102l-33 -96q11 -3 20 -6t17 -6q13 -5 15 -14.5t-9 -36.5t-19.5 -32t-21.5 0zM350 236q0 -37 9.5 -69t29.5 -57l106 309q-35 -4 -61.5 -20t-45.5 -40t-28.5 -55.5t-9.5 -67.5z" />
    <glyph glyph-name="sterling" unicode="&#xa3;" 
d="M761 4q-23 -15 -58.5 -24.5t-79.5 -9.5h-422v97h53q17 0 29.5 8.5t21 22t12.5 30t4 31.5v148h-109v97h109v182q0 60 35.5 90.5t98.5 30.5h211q24 0 24 -48q0 -49 -24 -49h-187q-22 0 -34 -13.5t-12 -36.5v-156h213q24 0 24 -48q0 -49 -24 -49h-213v-135q0 -39 -9.5 -65
t-24.5 -40h226q33 0 59.5 5.5t54.5 13.5q11 3 19 -3.5t16 -31.5q7 -21 2 -31t-15 -16z" />
    <glyph glyph-name="sterling" unicode="&#xffe1;" 
d="M761 4q-23 -15 -58.5 -24.5t-79.5 -9.5h-422v97h53q17 0 29.5 8.5t21 22t12.5 30t4 31.5v148h-109v97h109v182q0 60 35.5 90.5t98.5 30.5h211q24 0 24 -48q0 -49 -24 -49h-187q-22 0 -34 -13.5t-12 -36.5v-156h213q24 0 24 -48q0 -49 -24 -49h-213v-135q0 -39 -9.5 -65
t-24.5 -40h226q33 0 59.5 5.5t54.5 13.5q11 3 19 -3.5t16 -31.5q7 -21 2 -31t-15 -16z" />
    <glyph glyph-name="currency" unicode="&#xa4;" 
d="M160 252q0 50 15.5 95t42.5 83q-42 43 -67.5 69.5t-26.5 26.5t9.5 10.5l23 23t23.5 22.5l11 10q11 -12 25 -27q12 -13 29.5 -30.5l38.5 -38.5q38 27 82 42t94 15q49 0 93 -15t82 -41l38 38t29 30q14 15 26 27l10.5 -10t23.5 -22.5t23.5 -23t9.5 -10.5q-12 -12 -26 -27
q-12 -13 -29.5 -30t-37.5 -38q28 -38 43.5 -83t15.5 -96t-15.5 -96t-43.5 -83q21 -22 38.5 -39t30.5 -30q15 -15 26 -27l-69 -67q-11 12 -26 27l-30.5 30.5t-38.5 39.5q-37 -26 -81 -40.5t-92 -14.5q-49 0 -93 14.5t-81 40.5q-22 -23 -39 -40.5t-30 -30.5l-26 -26l-69 67
l27 27q13 13 30 30.5t39 39.5q-28 38 -43 82.5t-15 95.5zM253 252q0 -43 16 -80.5t44 -65.5t65.5 -44t80.5 -16t80.5 16t65.5 44t44.5 65.5t16.5 80.5t-16.5 80.5t-44.5 65.5t-65.5 44.5t-80.5 16.5t-80.5 -16.5t-65.5 -44.5t-44 -65.5t-16 -80.5z" />
    <glyph glyph-name="yen" unicode="&#xa5;" 
d="M664 192q13 0 17 -13t4 -35q0 -43 -21 -43h-147v-117q0 -13 -16 -18t-40 -5q-56 0 -56 23v117h-149v91h149v60h-149v91h110l-206 364h124l177 -330l175 330h125l-206 -364h109q13 0 17 -13t4 -35q0 -43 -21 -43h-147v-60h147z" />
    <glyph glyph-name="yen" unicode="&#xffe5;" 
d="M664 192q13 0 17 -13t4 -35q0 -43 -21 -43h-147v-117q0 -13 -16 -18t-40 -5q-56 0 -56 23v117h-149v91h149v60h-149v91h110l-206 364h124l177 -330l175 330h125l-206 -364h109q13 0 17 -13t4 -35q0 -43 -21 -43h-147v-60h147z" />
    <glyph glyph-name="section" unicode="&#xa7;" horiz-adv-x="450" 
d="M134 310q0 -29 16 -48t53 -38l73 -39q19 18 28 40.5t9 46.5q0 26 -14 50t-52 43l-66 33q-23 -19 -35 -42t-12 -46zM340 573q-31 11 -57 18t-50 7q-39 0 -58.5 -18.5t-19.5 -42.5q0 -35 58 -63q40 -21 80 -40q60 -29 86.5 -68t26.5 -93q0 -36 -18.5 -72t-47.5 -61
q21 -16 32 -37.5t11 -44.5q0 -66 -48 -104.5t-133 -38.5q-77 0 -149 33v88q41 -22 78.5 -31t74.5 -9q45 0 63 18.5t18 43.5q0 16 -15 29.5t-38 26.5l-84 43q-57 29 -86 67t-29 82q0 38 18.5 73.5t51.5 61.5q-49 37 -49 96q0 33 13.5 59.5t36.5 44.5t55 28t70 10
q18 0 36.5 -3t36 -8t32.5 -10.5t25 -10.5q11 -5 13 -15t-3 -29q-11 -37 -31 -30z" />
    <glyph glyph-name="dieresis" unicode="&#xa8;" horiz-adv-x="556" 
d="M207 677q0 -33 -21 -53.5t-53 -20.5t-53 20.5t-21 53.5t21 53.5t53 20.5t53 -20.5t21 -53.5zM497 677q0 -33 -21 -53.5t-53 -20.5t-53 20.5t-21 53.5t21 53.5t53 20.5t53 -20.5t21 -53.5z" />
    <glyph glyph-name="copyright" unicode="&#xa9;" 
d="M802 299q0 70 -27 132.5t-73.5 109t-109 73.5t-132.5 27q-71 0 -133 -27t-108.5 -73.5t-73.5 -109t-27 -132.5q0 -71 27 -133t73.5 -108.5t108.5 -73.5t133 -27q70 0 132.5 27t109 73.5t73.5 108.5t27 133zM882 299q0 -87 -33 -163.5t-90.5 -133.5t-134.5 -90t-164 -33
t-164 33t-134.5 90t-90.5 133.5t-33 163.5t33 163.5t90.5 133.5t134.5 90t164 33t164 -33t134.5 -90t90.5 -133.5t33 -163.5zM482 49q-58 0 -103.5 18.5t-76.5 51.5t-47 77.5t-16 96.5q0 62 19.5 108t53 77t77.5 46t93 15q38 0 69.5 -8t54.5 -21q10 -6 13.5 -13t-2.5 -21
q-12 -26 -20.5 -32.5t-18.5 -1.5q-25 9 -47.5 15t-47.5 6q-35 0 -64.5 -13t-50.5 -36t-32.5 -54t-11.5 -67q0 -35 11 -65.5t31.5 -53t50 -36t66.5 -13.5q24 0 47.5 6t47.5 14q11 5 18.5 2t16.5 -24q8 -23 6 -30t-10 -12q-24 -14 -56 -23t-71 -9z" />
    <glyph glyph-name="ordfeminine" unicode="&#xaa;" horiz-adv-x="460" 
d="M136 656q-13 0 -19 9t-6 30q0 39 25 39h121q67 0 96.5 -28.5t29.5 -95.5v-220q0 -13 -12.5 -18.5t-31.5 -5.5q-33 0 -41 14q-23 -10 -50 -15t-49 -5q-25 0 -48.5 7.5t-41.5 23t-28.5 39t-10.5 54.5q0 29 11.5 52.5t31 40t45.5 25.5t55 9q22 0 43.5 -3t38.5 -7v12
q0 22 -10 32.5t-33 10.5h-116zM37 308h371q13 0 18.5 -9.5t5.5 -33.5q0 -25 -5.5 -34t-18.5 -9h-371v86zM216 534q-26 0 -42 -13t-16 -37q0 -17 14 -31.5t35 -14.5q23 0 46 4.5t42 10.5v70q-19 5 -39 8t-40 3z" />
    <glyph glyph-name="guillemotleft" unicode="&#xab;" 
d="M596 581l-373 -241l369 -249l-49 -68l-471 317l477 307zM838 581l-373 -241l368 -249l-48 -68l-471 317l477 307z" />
    <glyph glyph-name="guillemotleft" unicode="&#x226a;" 
d="M596 581l-373 -241l369 -249l-49 -68l-471 317l477 307zM838 581l-373 -241l368 -249l-48 -68l-471 317l477 307z" />
    <glyph glyph-name="logicalnot" unicode="&#xac;" 
d="M859 50h-94v249h-725v85h819v-334z" />
    <glyph glyph-name="logicalnot" unicode="&#xffe2;" 
d="M859 50h-94v249h-725v85h819v-334z" />
    <glyph glyph-name="uni00AD" unicode="&#xad;" horiz-adv-x="510" 
d="M57 398h371q24 0 24 -48t-24 -48h-371v96z" />
    <glyph glyph-name="uni00AD" unicode="&#x2013;" horiz-adv-x="510" 
d="M57 398h371q24 0 24 -48t-24 -48h-371v96z" />
    <glyph glyph-name="registered" unicode="&#xae;" 
d="M882 299q0 -87 -33 -163.5t-90.5 -133.5t-134.5 -90t-164 -33t-164 33t-134.5 90t-90.5 133.5t-33 163.5t33 163.5t90.5 133.5t134.5 90t164 33t164 -33t134.5 -90t90.5 -133.5t33 -163.5zM802 299q0 70 -27 132.5t-73.5 109t-109 73.5t-132.5 27q-71 0 -133 -27
t-108.5 -73.5t-73.5 -109t-27 -132.5q0 -71 27 -133t73.5 -108.5t108.5 -73.5t133 -27q70 0 132.5 27t109 73.5t73.5 108.5t27 133zM303 539h185q40 0 69.5 -12t48 -32.5t27.5 -48.5t9 -59q0 -47 -19 -84t-61 -55l104 -186h-96l-94 172h-85v-155q0 -11 -12 -17t-32 -6
q-44 0 -44 23v460zM490 313q30 0 46.5 19.5t16.5 54.5q0 71 -65 71h-97v-145h99z" />
    <glyph glyph-name="degree" unicode="&#xb0;" horiz-adv-x="352" 
d="M286 651q0 -43 -30.5 -73t-77.5 -30t-77.5 30t-30.5 73q0 44 30.5 74t77.5 30t77.5 -30t30.5 -74zM221 651q0 24 -12 39.5t-31 15.5q-20 0 -31.5 -15.5t-11.5 -39.5q0 -23 11.5 -38.5t31.5 -15.5q19 0 31 15.5t12 38.5z" />
    <glyph glyph-name="plusminus" unicode="&#xb1;" horiz-adv-x="560" 
d="M37 515h192v166h96v-166h173q24 0 24 -48t-24 -48h-173v-160q0 -24 -48 -24t-48 24v160h-192v96zM37 134h461q24 0 24 -48t-24 -48h-461v96z" />
    <glyph glyph-name="uni00B2" unicode="&#xb2;" horiz-adv-x="430" 
d="M328 423q23 0 23 -36t-23 -36h-230v63l86 94q12 12 25.5 27.5t25 32t19 33.5t7.5 34q0 29 -15.5 40t-41.5 11q-17 0 -36 -4.5t-54 -15.5v72q18 7 40 14t50 7q27 0 52 -7.5t44 -22.5t30.5 -38.5t11.5 -55.5q0 -23 -8 -46t-21.5 -45t-30 -42t-32.5 -37l-39 -42h117z" />
    <glyph glyph-name="uni00B3" unicode="&#xb3;" horiz-adv-x="430" 
d="M191 344q-26 0 -50 4t-43 9v77q17 -6 42.5 -11t45.5 -5q30 0 54 11.5t24 40.5q0 23 -13.5 37t-38.5 14h-77v72h73q22 0 33 12.5t11 33.5q0 22 -12.5 34.5t-42.5 12.5q-17 0 -42 -5.5t-53 -15.5v75q49 19 95 19q60 0 98 -28.5t38 -91.5q0 -23 -10 -44.5t-26 -35.5
q23 -15 35.5 -38.5t12.5 -51.5q0 -33 -12 -56.5t-32.5 -39t-48.5 -22.5t-61 -7z" />
    <glyph glyph-name="acute" unicode="&#xb4;" horiz-adv-x="340" 
d="M157 521q-4 -8 -14.5 -12.5t-22.5 -4.5q-20 0 -25.5 7.5t-3.5 17.5l46 178h112z" />
    <glyph glyph-name="paragraph" unicode="&#xb6;" 
d="M643 726v-810h-37v773h-101v-773h-37v451q-45 0 -80.5 14t-60 38t-37.5 57t-13 72q0 36 14 68.5t38.5 57t57 38.5t69.5 14h187z" />
    <glyph glyph-name="periodcentered" unicode="&#xb7;" horiz-adv-x="280" 
d="M62 373q0 32 23 55t55 23t55 -23t23 -55t-23 -55t-55 -23t-55 23t-23 55z" />
    <glyph glyph-name="periodcentered" unicode="&#x30fb;" horiz-adv-x="280" 
d="M62 373q0 32 23 55t55 23t55 -23t23 -55t-23 -55t-55 -23t-55 23t-23 55z" />
    <glyph glyph-name="cedilla" unicode="&#xb8;" horiz-adv-x="352" 
d="M248 -14q18 -9 33.5 -27t16.5 -41q1 -37 -29.5 -65t-91.5 -30q-36 -1 -68.5 9.5t-55.5 29.5l23 45q20 -11 36.5 -18t37.5 -7q23 0 33 9t9 17t-9.5 12t-18.5 4q-9 0 -17 -1.5t-16 -3.5l-33 33l75 78l88 -25z" />
    <glyph glyph-name="uni00B9" unicode="&#xb9;" horiz-adv-x="430" 
d="M187 674q-17 -8 -35.5 -15.5t-31.5 -12.5v74l79 33h68v-384q0 -23 -40 -23t-40 23v305z" />
    <glyph glyph-name="ordmasculine" unicode="&#xba;" horiz-adv-x="460" 
d="M229 437q21 0 37 8.5t27.5 23t17 32.5t5.5 37t-5.5 37.5t-17 32.5t-27.5 23t-37 9t-36.5 -9t-26.5 -23t-16.5 -32.5t-5.5 -37.5t5.5 -37t16.5 -32.5t26.5 -23t36.5 -8.5zM229 360q-41 0 -73 14t-54 38t-34 56.5t-12 69.5q0 38 12 70.5t34 56.5t54 38t73 14t73.5 -14
t55 -38t34.5 -56.5t12 -70.5q0 -37 -12 -69.5t-34.5 -56.5t-55 -38t-73.5 -14zM37 308h371q13 0 18.5 -9.5t5.5 -33.5q0 -25 -5.5 -34t-18.5 -9h-371v86z" />
    <glyph glyph-name="guillemotright" unicode="&#xbb;" 
d="M371 647l477 -307l-471 -317l-49 68l369 249l-373 241zM129 647l477 -307l-471 -317l-48 68l368 249l-373 241z" />
    <glyph glyph-name="guillemotright" unicode="&#x226b;" 
d="M371 647l477 -307l-471 -317l-49 68l369 249l-373 241zM129 647l477 -307l-471 -317l-48 68l368 249l-373 241z" />
    <glyph glyph-name="onequarter" unicode="&#xbc;" 
d="M220 -85h-93l524 749h93zM172 620q-17 -6 -38 -14.5t-35 -13.5v74l85 34h73v-399q0 -22 -43 -22q-42 0 -42 22v319zM676 43v139q-20 -36 -39 -68.5t-41 -70.5h80zM760 -89q0 -11 -11 -16.5t-31 -5.5q-42 0 -42 22v60h-173v65l157 274h100v-267h29q23 0 23 -36
q0 -20 -5 -28t-18 -8h-29v-60z" />
    <glyph glyph-name="onehalf" unicode="&#xbd;" 
d="M220 -85h-93l524 749h93zM737 187q0 31 -18 44.5t-47 13.5q-22 0 -46 -7t-51 -15v73q19 8 43.5 14.5t53.5 6.5q30 0 57 -7.5t47.5 -23.5t33 -40.5t12.5 -58.5q0 -23 -8.5 -44.5t-21.5 -42t-29 -38.5t-30 -34q-9 -10 -15.5 -17t-12.5 -14t-13 -14t-16 -17h132q24 0 24 -36
t-24 -36h-250v64q37 38 57.5 59.5t31 32.5t14 15t5.5 6q25 27 48 56.5t23 59.5zM172 620q-17 -6 -38 -14.5t-35 -13.5v74l85 34h73v-399q0 -22 -43 -22q-42 0 -42 22v319z" />
    <glyph glyph-name="threequarters" unicode="&#xbe;" 
d="M253 -85h-93l524 749h93zM686 43v139q-20 -36 -39 -68.5t-41 -70.5h80zM770 -89q0 -11 -11 -16.5t-31 -5.5q-42 0 -42 22v60h-173v65l157 274h100v-267h29q23 0 23 -36q0 -20 -5 -28t-18 -8h-29v-60zM203 277q-28 0 -54 4.5t-44 9.5v77q18 -6 44.5 -12t49.5 -6
q35 0 61 13t26 44q0 24 -15.5 39.5t-44.5 15.5h-83v73h81q23 0 37 13t14 36t-15.5 37.5t-47.5 14.5q-19 0 -45.5 -6.5t-58.5 -14.5v73q26 9 52 14.5t52 5.5q63 0 104.5 -29.5t41.5 -94.5q0 -26 -11 -47.5t-28 -35.5q26 -14 39.5 -39.5t13.5 -54.5q0 -35 -13 -59.5t-36 -40
t-53.5 -23t-66.5 -7.5z" />
    <glyph glyph-name="questiondown" unicode="&#xbf;" 
d="M530 543q0 -29 -20.5 -49.5t-49.5 -20.5q-30 0 -50.5 20.5t-20.5 49.5q0 30 20.5 51t50.5 21q29 0 49.5 -21t20.5 -51zM208 3q0 35 15 65.5t37 57t47.5 49t45.5 40.5q17 15 28.5 26t18 22.5t9.5 24.5t3 32v48q0 14 13 19t37 5q53 0 53 -24v-52q0 -18 -1 -35t-6.5 -34
t-18 -34.5t-35.5 -35.5q-26 -21 -51 -42t-44.5 -42.5t-32 -43.5t-12.5 -46q0 -51 32.5 -73t89.5 -22q42 0 81 9.5t84 23.5v-93q-29 -11 -72.5 -22t-92.5 -11q-48 0 -89.5 8.5t-72 29.5t-48.5 57.5t-18 92.5z" />
    <glyph glyph-name="AE" unicode="&#xc6;" horiz-adv-x="845" 
d="M23 -30l313 737h447q24 0 24 -48q0 -49 -24 -49h-276v-210h252q24 0 24 -48q0 -49 -24 -49h-252v-203q0 -20 7.5 -26.5t24.5 -6.5h252q24 0 24 -48q0 -49 -24 -49h-281q-17 0 -38.5 13.5t-37.5 30.5q-15 15 -27 34t-12 33v202h-126l-130 -313h-116zM395 364v222l-92 -222
h92z" />
    <glyph glyph-name="Eth" unicode="&#xd0;" horiz-adv-x="745" 
d="M17 398h104v309h258q78 0 140 -26.5t105 -74.5t66 -116t23 -151q0 -84 -23 -152t-66 -116t-105 -74.5t-140 -26.5h-139q-17 0 -39.5 14t-38.5 31q-16 16 -28.5 35.5t-12.5 33.5v217h-104v97zM384 67q57 0 98 21.5t67 58t38.5 86t12.5 106.5q0 56 -12.5 105.5t-38.5 86
t-67 58t-98 21.5h-151v-212h106q24 0 24 -48q0 -49 -24 -49h-106v-200q0 -20 8 -27t25 -7h118z" />
    <glyph glyph-name="multiply" unicode="&#xd7;" horiz-adv-x="560" 
d="M279 401l131 141l68 -65l-133 -146l148 -153l-75 -70l-141 148l-135 -148l-72 67l140 152l-143 150l76 67z" />
    <glyph glyph-name="Oslash" unicode="&#xd8;" horiz-adv-x="747" 
d="M31 339q0 86 25.5 156.5t71.5 120.5t108.5 77.5t136.5 27.5q34 0 64 -6l13 39h99l-22 -69q86 -44 137 -133.5t51 -212.5q0 -86 -25.5 -156.5t-71.5 -120.5t-108.5 -77.5t-136.5 -27.5q-42 0 -79 9l-19 -61h-99l30 94q-81 46 -128 133.5t-47 206.5zM601 339
q0 78 -26.5 144t-79.5 104l-171 -528q12 -2 24 -3.5t26 -1.5q57 0 99.5 23t71 62t42.5 91t14 109zM374 624q-58 0 -101 -23t-71.5 -62.5t-43 -91t-14.5 -108.5q0 -75 23.5 -138t71.5 -102l168 523q-8 1 -16.5 1.5t-16.5 0.5z" />
    <glyph glyph-name="Thorn" unicode="&#xde;" horiz-adv-x="530" 
d="M50 758h112v-148q21 6 41.5 9t37.5 3q49 0 93.5 -16t78.5 -48t54 -80t20 -112q0 -66 -20 -114.5t-54 -80.5t-78.5 -47.5t-93.5 -15.5q-17 0 -37.5 2.5t-41.5 8.5v-105q0 -13 -15.5 -18t-39.5 -5q-27 0 -42 6t-15 17v744zM241 202q63 0 99.5 44t36.5 119t-36.5 119
t-99.5 44q-40 0 -79 -14v-299q19 -6 38.5 -9.5t40.5 -3.5z" />
    <glyph glyph-name="germandbls" unicode="&#xdf;" horiz-adv-x="525" 
d="M50 555q0 46 14 82.5t39 61t59.5 37.5t76.5 13q44 0 81 -14t64 -39t42.5 -59.5t15.5 -74.5q0 -33 -10.5 -62t-27 -51t-36.5 -36.5t-39 -19.5q24 -5 51.5 -18.5t51.5 -36t40 -54.5t16 -73q0 -101 -62.5 -156t-178.5 -55q-12 0 -26 1t-25 3v82q11 -3 25 -4.5t26 -1.5
q26 0 50 8t42 24.5t28.5 40.5t10.5 57q0 63 -39 97t-102 34h-37v97h37q22 0 39.5 11.5t30 29.5t19 40t6.5 43q0 24 -7.5 43.5t-20 33.5t-29.5 22t-36 8q-42 0 -60.5 -28t-18.5 -76v-551q0 -13 -15.5 -18t-38.5 -5q-26 0 -41 6t-15 17v541z" />
    <glyph glyph-name="ae" unicode="&#xe6;" horiz-adv-x="845" 
d="M112 407q-24 0 -24 47q0 46 24 46h165q28 0 48.5 -5.5t36 -15.5t27 -23t20.5 -28q28 45 74.5 65.5t97.5 20.5q61 0 105 -24t72.5 -64t42.5 -92.5t14 -109.5q0 -21 -9.5 -30t-25.5 -9h-322q5 -69 47 -102t109 -33q33 0 62 7.5t57 17.5q12 5 20.5 0t19.5 -32
q11 -25 8.5 -35t-14.5 -17q-26 -15 -69 -24.5t-81 -9.5q-65 0 -110.5 14.5t-84.5 51.5q-15 -12 -34.5 -25t-45 -23t-57.5 -16.5t-72 -6.5q-41 0 -76 11t-60.5 33.5t-40 56.5t-14.5 79q0 43 15.5 78t42.5 59.5t64.5 38t81.5 13.5q40 0 68 -7.5t56 -15.5q1 6 4 21t5 20
q-8 33 -26 50.5t-64 17.5h-157zM231 228q-26 0 -44.5 -8t-30.5 -21.5t-17.5 -30.5t-5.5 -35q0 -40 22.5 -64t69.5 -24q37 0 75.5 12t71.5 32q-11 25 -17 54.5t-8 62.5q-30 9 -55 15.5t-61 6.5zM703 281q-4 65 -38.5 102.5t-83.5 37.5q-30 0 -52.5 -12t-37.5 -31.5
t-23.5 -44.5t-10.5 -52h246z" />
    <glyph glyph-name="eth" unicode="&#xf0;" horiz-adv-x="608" 
d="M529 398q45 -71 45 -163q0 -58 -18.5 -109t-53.5 -88.5t-85 -59t-114 -21.5t-114 21.5t-84.5 59t-53 88.5t-18.5 109t18.5 108.5t53 88.5t84.5 60t114 22q10 0 20 -0.5t21 -1.5l-61 96l-62 -40h-112l142 91l-62 101h108l32 -51l34 22h112l-113 -73zM303 49q38 0 68 14.5
t51 40t32 59.5t11 72t-11 71.5t-32 59t-51 40.5t-68 15t-68 -15t-50.5 -40.5t-31.5 -59t-11 -71.5t11 -72t31.5 -59.5t50.5 -40t68 -14.5z" />
    <glyph glyph-name="divide" unicode="&#xf7;" horiz-adv-x="560" 
d="M202 520q0 32 23 55t55 23t55 -23t23 -55t-23 -55t-55 -23t-55 23t-23 55zM202 114q0 32 23 55t55 23t55 -23t23 -55t-23 -55t-55 -23t-55 23t-23 55zM37 368h461q24 0 24 -48t-24 -48h-461v96z" />
    <glyph glyph-name="oslash" unicode="&#xf8;" horiz-adv-x="608" 
d="M303 -43q-16 0 -30.5 1.5t-28.5 3.5l-26 -62h-97l39 93q-62 36 -94.5 99.5t-32.5 142.5q0 58 18.5 108.5t53 88.5t84.5 60t114 22q36 0 71 -8l26 61h97l-40 -96q57 -38 87 -99.5t30 -136.5q0 -58 -18.5 -109t-53.5 -88.5t-85 -59t-114 -21.5zM303 421q-38 0 -68 -15
t-50.5 -40.5t-31.5 -59t-11 -71.5q0 -45 14.5 -83t42.5 -64l138 329q-15 4 -34 4zM303 49q38 0 68 14.5t51 40t32 59.5t11 72q0 41 -13 76.5t-36 61.5l-135 -323q5 -1 10.5 -1h11.5z" />
    <glyph glyph-name="thorn" unicode="&#xfe;" horiz-adv-x="559" 
d="M525 214q0 -61 -20 -111.5t-56 -87t-85.5 -56.5t-107.5 -20q-20 0 -45.5 4t-51.5 12v-201q0 -13 -15 -18t-38 -5q-26 0 -41 6t-15 17v912h109v-190q26 9 51.5 13t45.5 4q58 0 107.5 -21.5t85.5 -59t56 -88.5t20 -110zM256 32q41 0 71 15t50 40.5t29.5 58t9.5 68.5
t-9.5 69.5t-29.5 59.5t-50 41.5t-71 15.5q-26 0 -50 -6t-47 -15v-326q23 -9 47 -15t50 -6z" />
    <glyph glyph-name="dcroat" unicode="&#x111;" horiz-adv-x="650" 
d="M442 24h-1q-29 -35 -74 -51t-99 -16q-52 0 -95.5 21t-75 58.5t-49 88.5t-17.5 110q0 57 16 107.5t47.5 88.5t78.5 60.5t109 22.5q46 0 89 -17t70 -46h1v94h-160v97h160v86h109v-86h53q24 0 24 -48q0 -49 -24 -49h-53v-561q0 -13 -15 -18t-40 -5t-39.5 5t-14.5 18v40z
M442 230q0 57 -14.5 94t-37 58.5t-49.5 30t-51 8.5q-36 0 -63.5 -15t-47 -40.5t-29.5 -59t-10 -71.5q0 -40 11 -74t30.5 -59t47.5 -39t61 -14q22 0 48 7.5t49 27.5t39 55t16 91z" />
    <glyph glyph-name="Hbar" unicode="&#x126;" horiz-adv-x="760" 
d="M658 -16q0 -23 -56 -23q-25 0 -40.5 5t-15.5 18v314h-333v-314q0 -23 -56 -23t-56 23v501h-77v97h77v125h112v-125h333v125h112v-125h65q24 0 24 -48q0 -49 -24 -49h-65v-501zM546 395v90h-333v-90h333z" />
    <glyph glyph-name="hbar" unicode="&#x127;" horiz-adv-x="666" 
d="M506 337q0 44 -35.5 66.5t-87.5 22.5q-22 0 -44 -6t-39.5 -15.5t-28.5 -22t-11 -25.5v-373q0 -13 -15 -18t-39 -5q-25 0 -40 5t-15 18v581h-94v97h94v56h109v-56h119q24 0 24 -48q0 -49 -24 -49h-119v-107q9 12 25.5 23.5t38.5 19.5t47 13t51 5q46 0 81.5 -15.5t60.5 -42
t38 -61.5t13 -74v-342q0 -13 -15 -18t-39 -5q-25 0 -40 5t-15 18v353z" />
    <glyph glyph-name="dotlessi" unicode="&#x131;" horiz-adv-x="247" 
d="M68 511h109v-527q0 -13 -14.5 -18t-38.5 -5q-25 0 -40.5 5t-15.5 18v527z" />
    <glyph glyph-name="IJ" unicode="&#x132;" horiz-adv-x="785" 
d="M51 -30v97h93v543h-93v97h280q13 0 18.5 -11t5.5 -37q0 -49 -24 -49h-75v-543h75q13 0 18.5 -11t5.5 -37q0 -49 -24 -49h-280zM397 -30q-24 0 -24 48q0 49 24 49h126q48 0 73 19t25 61v463h-143v97h255v-553q0 -94 -52 -139.5t-151 -44.5h-133z" />
    <glyph glyph-name="ij" unicode="&#x133;" horiz-adv-x="478" 
d="M68 511h109v-527q0 -13 -14.5 -18t-38.5 -5q-25 0 -40.5 5t-15.5 18v527zM53 666q0 29 20.5 49.5t49.5 20.5q30 0 50.5 -20.5t20.5 -49.5t-20.5 -50t-50.5 -21q-29 0 -49.5 21t-20.5 50zM161 -256q-14 0 -19.5 10.5t-5.5 35.5q0 26 5.5 36.5t19.5 10.5h78q19 0 30.5 6
t18.5 15.5t9.5 22.5t2.5 28v602h109v-595q0 -81 -36 -126.5t-117 -45.5h-95zM283 666q0 29 20.5 49.5t49.5 20.5q30 0 50.5 -20.5t20.5 -49.5t-20.5 -50t-50.5 -21q-29 0 -49.5 21t-20.5 50z" />
    <glyph glyph-name="kgreenlandic" unicode="&#x138;" horiz-adv-x="541" 
d="M160 -16q0 -13 -15 -18t-39 -5q-55 0 -55 23v515h109v-203h59l156 204h125l-195 -250l222 -280h-122l-183 233h-62v-219z" />
    <glyph glyph-name="Ldot" unicode="&#x13f;" horiz-adv-x="566" 
d="M323 381q0 27 19 46t46 19t46 -19t19 -46t-19 -46t-46 -19t-46 19t-19 46zM51 707h112v-606q0 -20 8 -27t25 -7h316q25 0 25 -49q0 -26 -6 -37t-19 -11h-342q-17 0 -39.5 14t-38.5 31q-16 16 -28.5 35.5t-12.5 33.5v623z" />
    <glyph glyph-name="ldot" unicode="&#x140;" horiz-adv-x="480" 
d="M51 -30v97h93v543h-93v97h280q13 0 18.5 -11t5.5 -37q0 -49 -24 -49h-75v-543h75q13 0 18.5 -11t5.5 -37q0 -49 -24 -49h-280zM343 341q0 27 19 46t46 19t46 -19t19 -46t-19 -46t-46 -19t-46 19t-19 46z" />
    <glyph glyph-name="Lslash" unicode="&#x141;" horiz-adv-x="695" 
d="M180 707h112v-282l109 106h97l-206 -200v-230q0 -20 8 -27t25 -7h316q25 0 25 -49q0 -26 -6 -37t-19 -11h-342q-17 0 -39.5 14t-38.5 31q-16 16 -28.5 35.5t-12.5 33.5v138l-64 -62h-97l161 156v391z" />
    <glyph glyph-name="lslash" unicode="&#x142;" horiz-adv-x="490" 
d="M77 -30v97h93v159l-68 -66h-97l165 160v290h-93v97h280q13 0 18.5 -11t5.5 -37q0 -49 -24 -49h-75v-181l105 102h97l-202 -196v-268h75q13 0 18.5 -11t5.5 -37q0 -49 -24 -49h-280z" />
    <glyph glyph-name="napostrophe" unicode="&#x149;" horiz-adv-x="681" 
d="M110 610q-26 1 -46 17.5t-20 51.5q0 28 19 46.5t46 18.5q32 0 50.5 -18.5t18.5 -50.5q0 -27 -9.5 -55t-23.5 -53t-29 -45t-25 -31q-5 -5 -9.5 -3t-15.5 11q-20 13 -13 20q18 23 35 46.5t22 44.5zM171 500h105v-47q9 11 23.5 22.5t35.5 21.5t47 16t57 6q42 0 77 -14.5
t60.5 -40.5t39.5 -62t14 -79v-339q0 -13 -15 -18t-39 -5q-25 0 -40 5t-15 18v350q0 24 -10.5 41.5t-27.5 29t-38.5 16.5t-44.5 5t-44.5 -6t-38.5 -16t-27 -23t-10 -26v-371q0 -13 -15 -18t-39 -5q-25 0 -40 5t-15 18v516z" />
    <glyph glyph-name="Eng" unicode="&#x14a;" horiz-adv-x="675" 
d="M287 -249q-24 0 -24 48q0 49 24 49h126q48 0 73 19t25 61v15l-344 591h-4v-550q0 -23 -56 -23t-56 23v723h146l310 -550h4v550h112v-772q0 -94 -52 -139.5t-151 -44.5h-133z" />
    <glyph glyph-name="eng" unicode="&#x14b;" horiz-adv-x="561" 
d="M262 -256q-14 0 -19.5 10.5t-5.5 35.5q0 26 5.5 36.5t19.5 10.5h78q19 0 30.5 6t18.5 15.5t9.5 22.5t2.5 28v425q0 24 -10.5 41.5t-27.5 29t-38.5 16.5t-44.5 5t-44.5 -6t-38.5 -16t-27 -23t-10 -26v-371q0 -13 -15 -18t-39 -5q-25 0 -40 5t-15 18v516h105v-47
q9 11 23.5 22.5t35.5 21.5t47 16t57 6q42 0 77 -14.5t60.5 -40.5t39.5 -62t14 -79v-407q0 -81 -36 -126.5t-117 -45.5h-95z" />
    <glyph glyph-name="OE" unicode="&#x152;" horiz-adv-x="830" 
d="M399 -30q-88 0 -156.5 28t-116 77t-72 116.5t-24.5 147.5q0 93 30.5 162t81 115t115 68.5t133.5 22.5h378q24 0 24 -48q0 -49 -24 -49h-286v-211h262q24 0 24 -48q0 -49 -24 -49h-262v-202q0 -20 7.5 -26.5t24.5 -6.5h262q24 0 24 -48q0 -49 -24 -49h-377zM143 339
q0 -54 15 -101.5t44.5 -83.5t71.5 -58.5t96 -27.5v541q-52 -5 -94 -27.5t-71.5 -58t-45.5 -83t-16 -101.5z" />
    <glyph glyph-name="oe" unicode="&#x153;" horiz-adv-x="875" 
d="M436 43q-31 -41 -74.5 -64t-97.5 -23q-51 0 -94 22.5t-73.5 60.5t-47.5 89t-17 107t17 106.5t47.5 89t73.5 61t94 22.5q55 0 98.5 -27t68.5 -71q23 41 67.5 69.5t111.5 28.5q61 0 105 -24t73 -64t43 -92.5t14 -109.5q0 -21 -9.5 -30t-25.5 -9h-323q5 -69 47.5 -102
t109.5 -33q33 0 62 7.5t57 17.5q12 5 20.5 0t19.5 -32q6 -14 8 -23t1 -14t-5 -8.5t-10 -6.5q-26 -15 -69 -24.5t-81 -9.5q-29 0 -60 4t-59.5 14t-52.5 26.5t-39 41.5zM386 235q0 33 -8 66.5t-23.5 60t-38 43t-52.5 16.5t-52.5 -16.5t-38.5 -43t-24 -60t-8 -66.5t8 -66.5
t24 -60t38.5 -43t52.5 -16.5t52.5 16.5t38 43t23.5 60t8 66.5zM733 281q-4 65 -39 102.5t-84 37.5q-33 0 -55.5 -13t-37 -33.5t-21.5 -45.5t-9 -48h246z" />
    <glyph glyph-name="Tbar" unicode="&#x166;" horiz-adv-x="587" 
d="M26 610v97h520q13 0 19 -11t6 -37q0 -49 -25 -49h-198v-189h128q24 0 24 -48q0 -49 -24 -49h-128v-340q0 -23 -57 -23q-55 0 -55 23v340h-147v97h147v189h-210z" />
    <glyph glyph-name="tbar" unicode="&#x167;" horiz-adv-x="427" 
d="M247 407v-102h83q24 0 24 -47q0 -25 -5.5 -35.5t-18.5 -10.5h-83v-103q0 -27 11.5 -36.5t35.5 -9.5h73q14 0 20 -10t6 -37q0 -28 -6 -37t-20 -9h-99q-28 0 -52 7t-41 22.5t-27 40.5t-10 61v111h-88v93h88v102h-107v93h107v153h109v-153h124q25 0 25 -47q0 -26 -6 -36
t-19 -10h-124z" />
    <glyph glyph-name="uni02BC" unicode="&#x2bc;" horiz-adv-x="352" 
d="M181 613q-29 1 -51 19.5t-22 56.5q0 31 21 51.5t51 20.5q35 0 55.5 -20.5t20.5 -55.5q0 -30 -10.5 -61t-25.5 -58.5t-31.5 -50t-28.5 -34.5q-5 -5 -10 -3.5t-18 11.5q-21 16 -15 23q20 26 39 52t25 49z" />
    <glyph glyph-name="caron" unicode="&#x2c7;" horiz-adv-x="600" 
d="M91 760h115l94 -117l93 117h116l-153 -189h-111z" />
    <glyph glyph-name="uni02D0" unicode="&#x2d0;" horiz-adv-x="250" 
d="M53 75l72 121l72 -121h-144zM197 525l-72 -122l-72 122h144z" />
    <glyph glyph-name="uni02D0" unicode="&#x2236;" horiz-adv-x="250" 
d="M53 75l72 121l72 -121h-144zM197 525l-72 -122l-72 122h144z" />
    <glyph glyph-name="breve" unicode="&#x2d8;" horiz-adv-x="600" 
d="M300 576q-43 0 -81.5 13t-68.5 37t-49.5 58t-25.5 76h105q12 -43 41 -65.5t79 -22.5t79 22.5t41 65.5h105q-6 -42 -25.5 -76t-49.5 -58t-68.5 -37t-81.5 -13z" />
    <glyph glyph-name="dotaccent" unicode="&#x2d9;" horiz-adv-x="314" 
d="M79 676q0 32 23 55t55 23t55 -23t23 -55t-23 -55t-55 -23t-55 23t-23 55z" />
    <glyph glyph-name="ring" unicode="&#x2da;" horiz-adv-x="376" 
d="M286 666q0 -43 -30.5 -73t-77.5 -30t-77.5 30t-30.5 73q0 44 30.5 74t77.5 30t77.5 -30t30.5 -74zM221 666q0 24 -12 39.5t-31 15.5q-20 0 -31.5 -15.5t-11.5 -39.5q0 -23 11.5 -38.5t31.5 -15.5q19 0 31 15.5t12 38.5z" />
    <glyph glyph-name="ogonek" unicode="&#x2db;" horiz-adv-x="352" 
d="M200 -1q-21 -23 -31.5 -37t-10.5 -25q0 -14 11 -21.5t23 -6.5q24 1 36.5 8.5t29.5 18.5l36 -31q-28 -32 -64 -51t-74 -21q-20 -1 -37.5 5t-30.5 17.5t-21 28t-8 36.5q0 25 12.5 44t28.5 35h100z" />
    <glyph glyph-name="tilde" unicode="&#x2dc;" 
d="M191 600q0 42 11 72.5t30.5 50.5t45.5 30t55 10q23 0 43.5 -6t40 -16t38.5 -22t39 -25q23 -14 41.5 -23t38.5 -9q46 0 46 90h109q0 -92 -38.5 -140.5t-109.5 -48.5q-31 0 -61 11t-64 32q-20 12 -34.5 22.5t-27 19t-24 13t-24.5 4.5q-20 0 -31.5 -16.5t-11.5 -44.5v-16
q0 -13 -15.5 -18t-39.5 -5q-27 0 -42 6t-15 17v12z" />
    <glyph glyph-name="hungarumlaut" unicode="&#x2dd;" horiz-adv-x="478" 
d="M152 531q-4 -8 -14.5 -12.5t-22.5 -4.5q-20 0 -25.5 7.5t-3.5 17.5l46 178h112zM322 531q-5 -10 -15 -13.5t-22 -3.5q-17 0 -24.5 6.5t-5.5 15.5l47 181h112z" />
    <glyph glyph-name="Alpha" unicode="&#x391;" horiz-adv-x="680" 
d="M541 -30l-52 154h-296l-54 -154h-115l272 737h90l270 -737h-115zM343 545l-117 -324h230z" />
    <glyph glyph-name="Beta" unicode="&#x392;" horiz-adv-x="639" 
d="M51 707h325q48 0 87 -13.5t66.5 -39t42 -61.5t14.5 -81q0 -56 -25.5 -94.5t-64.5 -58.5q22 -8 41.5 -22t34 -34.5t23 -48.5t8.5 -65q0 -47 -14.5 -87t-43 -69.5t-69.5 -46t-94 -16.5h-194q-17 0 -39.5 12t-48.5 37q-24 23 -36.5 45.5t-12.5 36.5v606zM368 67q60 0 91 31
t31 91q0 63 -28 91t-85 28h-214v-207q0 -20 8 -27t25 -7h172zM370 405q103 0 103 108q0 47 -31.5 72t-79.5 25h-199v-205h207z" />
    <glyph glyph-name="Gamma" unicode="&#x393;" horiz-adv-x="530" 
d="M163 610v-626q0 -12 -15 -17.5t-41 -5.5t-41 5.5t-15 17.5v723h410q24 0 24 -48q0 -49 -24 -49h-298z" />
    <glyph glyph-name="uni0394" unicode="&#x394;" horiz-adv-x="660" 
d="M631 -30h-602l235 737h132zM177 66h306l-153 540z" />
    <glyph glyph-name="Epsilon" unicode="&#x395;" horiz-adv-x="587" 
d="M170 -30q-17 0 -39.5 14t-38.5 31q-16 16 -28.5 35.5t-12.5 33.5v623h472q14 0 19.5 -11t5.5 -37q0 -49 -25 -49h-360v-211h336q13 0 18.5 -11t5.5 -37q0 -49 -24 -49h-336v-201q0 -20 8 -27t25 -7h335q25 0 25 -49q0 -48 -25 -48h-361z" />
    <glyph glyph-name="Zeta" unicode="&#x396;" horiz-adv-x="587" 
d="M158 67h377q24 0 24 -50q0 -26 -5.5 -36.5t-18.5 -10.5h-504v103l381 537h-372v97h506v-95z" />
    <glyph glyph-name="Eta" unicode="&#x397;" horiz-adv-x="659" 
d="M608 -16q0 -23 -56 -23q-25 0 -40.5 5t-15.5 18v314h-333v-314q0 -23 -56 -23t-56 23v723h112v-312h333v312h112v-723z" />
    <glyph glyph-name="Theta" unicode="&#x398;" horiz-adv-x="747" 
d="M511 380v-97h-275v97h275zM601 339q0 57 -14 108.5t-42.5 91t-71 62.5t-99.5 23q-58 0 -101 -23t-71.5 -62.5t-43 -91t-14.5 -108.5t14.5 -109t43 -91t71.5 -62t101 -23q57 0 99.5 23t71 62t42.5 91t14 109zM31 339q0 86 25.5 156.5t71.5 120.5t108.5 77.5t136.5 27.5
t136.5 -27.5t108.5 -77.5t71.5 -120.5t25.5 -156.5t-25.5 -156.5t-71.5 -120.5t-108.5 -77.5t-136.5 -27.5t-136.5 27.5t-108.5 77.5t-71.5 120.5t-25.5 156.5z" />
    <glyph glyph-name="Iota" unicode="&#x399;" horiz-adv-x="397" 
d="M51 -30v97h93v543h-93v97h280q13 0 18.5 -11t5.5 -37q0 -49 -24 -49h-75v-543h75q13 0 18.5 -11t5.5 -37q0 -49 -24 -49h-280z" />
    <glyph glyph-name="Kappa" unicode="&#x39a;" horiz-adv-x="633" 
d="M491 -30l-259 314h-69v-300q0 -23 -56 -23t-56 23v723h112v-326h67l227 326h123l-259 -369l299 -368h-129z" />
    <glyph glyph-name="Lambda" unicode="&#x39b;" horiz-adv-x="680" 
d="M139 -30h-115l272 737h90l270 -737h-115l-198 575z" />
    <glyph glyph-name="Mu" unicode="&#x39c;" horiz-adv-x="803" 
d="M478 164q-11 -23 -28.5 -36.5t-47.5 -13.5q-29 0 -48 13.5t-30 36.5l-159 349h-2v-529q0 -23 -56 -23t-56 23v723h139l212 -463l212 463h138v-723q0 -23 -56 -23q-25 0 -40 5t-15 18v529h-3z" />
    <glyph glyph-name="Nu" unicode="&#x39d;" horiz-adv-x="675" 
d="M51 707h146l310 -550h4v550h112v-737h-128l-328 564h-4v-550q0 -23 -56 -23t-56 23v723z" />
    <glyph glyph-name="Xi" unicode="&#x39e;" horiz-adv-x="580" 
d="M527 666v-95h-475v95h475zM482 378v-95h-385v95h385zM540 75v-95h-501v95h501z" />
    <glyph glyph-name="Omicron" unicode="&#x39f;" horiz-adv-x="747" 
d="M601 339q0 57 -14 108.5t-42.5 91t-71 62.5t-99.5 23q-58 0 -101 -23t-71.5 -62.5t-43 -91t-14.5 -108.5t14.5 -109t43 -91t71.5 -62t101 -23q57 0 99.5 23t71 62t42.5 91t14 109zM31 339q0 86 25.5 156.5t71.5 120.5t108.5 77.5t136.5 27.5t136.5 -27.5t108.5 -77.5
t71.5 -120.5t25.5 -156.5t-25.5 -156.5t-71.5 -120.5t-108.5 -77.5t-136.5 -27.5t-136.5 27.5t-108.5 77.5t-71.5 120.5t-25.5 156.5z" />
    <glyph glyph-name="Pi" unicode="&#x3a0;" horiz-adv-x="620" 
d="M567 -16q0 -23 -56 -23q-24 0 -40 5t-16 18v626h-290v-626q0 -12 -15 -17.5t-41 -5.5t-41 5.5t-15 17.5v723h460q30 0 42 -12.5t12 -41.5v-669z" />
    <glyph glyph-name="Rho" unicode="&#x3a1;" horiz-adv-x="628" 
d="M350 349q69 0 99.5 32.5t30.5 98.5t-32 98t-102 32h-183v-261h187zM51 707h292q67 0 114 -17t77 -47.5t44 -72t14 -90.5q0 -48 -14 -90t-43.5 -72.5t-76 -48t-111.5 -17.5h-184v-268q0 -23 -56 -23t-56 23v723z" />
    <glyph glyph-name="Sigma" unicode="&#x3a3;" horiz-adv-x="640" 
d="M553 338q0 -33 -7 -48t-27 -29l-311 -194h345q24 0 24 -49q0 -48 -24 -48h-491v123l376 245l-376 246v123h491q24 0 24 -48q0 -49 -24 -49h-345l311 -195q20 -14 27 -29t7 -48z" />
    <glyph glyph-name="Tau" unicode="&#x3a4;" horiz-adv-x="587" 
d="M26 610v97h520q13 0 19 -11t6 -37q0 -49 -25 -49h-198v-626q0 -23 -57 -23q-55 0 -55 23v626h-210z" />
    <glyph glyph-name="Upsilon" unicode="&#x3a5;" horiz-adv-x="649" 
d="M381 -16q0 -13 -16 -18t-40 -5q-56 0 -56 23v291l-245 432h124l177 -330l175 330h125l-244 -432v-291z" />
    <glyph glyph-name="Phi" unicode="&#x3a6;" horiz-adv-x="590" 
d="M143 -30v97h93v57q-43 6 -80 21.5t-64.5 42t-43 63.5t-15.5 87q0 49 15.5 86.5t43 64t64.5 42t80 21.5v58h-93v97h280q13 0 18.5 -11t5.5 -37q0 -49 -24 -49h-75v-57q44 -6 82 -21.5t66.5 -41.5t44.5 -64t16 -88q0 -51 -16 -89t-44.5 -64t-66.5 -41.5t-82 -20.5v-56h75
q13 0 18.5 -11t5.5 -37q0 -49 -24 -49h-280zM449 338q0 49 -26 80t-75 42v-245q49 11 75 42.5t26 80.5zM141 338q0 -97 95 -122v243q-95 -25 -95 -121z" />
    <glyph glyph-name="Chi" unicode="&#x3a7;" horiz-adv-x="680" 
d="M522 -30l-183 292l-183 -292h-132l251 380l-236 357h131l169 -269l169 269h132l-238 -357l254 -380h-134z" />
    <glyph glyph-name="Psi" unicode="&#x3a8;" horiz-adv-x="677" 
d="M283 707h110v-397q54 14 87.5 57t33.5 119v221h112v-224q0 -65 -17.5 -113t-48.5 -81.5t-73.5 -53t-93.5 -25.5v-226q0 -13 -15.5 -18t-38.5 -5q-26 0 -41 6t-15 17v226q-51 7 -93.5 26.5t-73 53t-48 81.5t-17.5 112v224h112v-221q0 -75 33 -118t87 -57v396z" />
    <glyph glyph-name="uni03A9" unicode="&#x3a9;" horiz-adv-x="764" 
d="M458 66q32 27 59.5 60.5t47.5 70t31.5 75t11.5 77.5q0 58 -15.5 108t-45.5 87.5t-73 59t-98 21.5t-98 -21.5t-73 -59t-45.5 -87.5t-15.5 -108q0 -39 11.5 -77.5t31.5 -75t47.5 -70t59.5 -60.5v-96h-250v96h112q-22 21 -44 52t-40 68t-29.5 78.5t-11.5 84.5
q0 89 28.5 158.5t76 117t110 72t130.5 24.5t130.5 -24.5t110 -72t76 -117t28.5 -158.5q0 -43 -11.5 -84.5t-29.5 -78.5t-40 -68t-44 -52h112q24 0 24 -48t-24 -48h-250v96z" />
    <glyph glyph-name="alpha" unicode="&#x3b1;" horiz-adv-x="680" 
d="M277 49q33 0 59 15t44 40t27.5 58.5t9.5 70.5q0 39 -10 73t-28 59.5t-44 40.5t-57 15q-32 0 -58 -15t-44 -40.5t-28 -59.5t-10 -73q0 -96 37 -140t102 -44zM670 63q-5 -24 -17 -43.5t-27.5 -33.5t-34.5 -21.5t-38 -7.5q-41 0 -66 23t-41 66q-21 -37 -66 -63t-108 -26
q-57 0 -102 19.5t-76.5 55.5t-48 87t-16.5 114q0 67 20 119t54 88t78 55t91 19q33 0 62.5 -10t53.5 -26.5t41.5 -37t26.5 -42.5q3 10 7.5 24t9.5 27.5t10.5 25.5t9.5 20h105q-14 -26 -29 -58.5t-27 -70t-19.5 -79.5t-7.5 -85q0 -72 11.5 -111.5t27.5 -39.5q19 0 31 20.5
t23 43.5z" />
    <glyph glyph-name="beta" unicode="&#x3b2;" horiz-adv-x="562" 
d="M50 511q0 46 16.5 84.5t45.5 66.5t67 43t82 15q48 0 88.5 -15t69.5 -42t45.5 -64.5t16.5 -81.5q0 -28 -9 -52.5t-24 -43.5t-34.5 -32.5t-39.5 -18.5q24 -5 51 -20t50.5 -38.5t39 -56t15.5 -73.5q0 -114 -69.5 -169.5t-191.5 -55.5q-12 0 -26 1.5t-25 4.5v97q8 -2 23.5 -4
t27.5 -2q66 0 107 29t41 99q0 32 -13 57t-34.5 41.5t-50.5 25t-60 8.5h-47v97h47q50 1 81 30t31 76t-29 76.5t-81 29.5q-21 0 -39.5 -8t-32 -23t-21.5 -35.5t-8 -45.5v-695q0 -13 -15.5 -18t-38.5 -5q-26 0 -41 6t-15 17v695z" />
    <glyph glyph-name="gamma" unicode="&#x3b3;" horiz-adv-x="649" 
d="M381 -223q0 -13 -16 -18t-40 -5q-56 0 -56 23v291l-245 432h124l177 -330l175 330h125l-244 -432v-291z" />
    <glyph glyph-name="delta" unicode="&#x3b4;" horiz-adv-x="600" 
d="M303 49q38 0 68 14.5t51 40t32 59.5t11 72t-11 71.5t-32 59t-51 40.5t-68 15t-68 -15t-50.5 -40.5t-31.5 -59t-11 -71.5t11 -72t31.5 -59.5t50.5 -40t68 -14.5zM438 482q61 -32 98.5 -98t37.5 -149q0 -58 -18.5 -109t-53.5 -88.5t-85 -59t-114 -21.5t-114 21.5t-84.5 59
t-53 88.5t-18.5 109q0 89 42 159t121 101l-115 62v150h427q24 0 24 -48q0 -49 -24 -49h-320z" />
    <glyph glyph-name="epsilon" unicode="&#x3b5;" horiz-adv-x="483" 
d="M241 213q-27 0 -45.5 -7.5t-30.5 -19.5t-17.5 -27t-5.5 -31q0 -38 26 -59t78 -21q19 0 39 4.5t36 13.5t26.5 23.5t10.5 34.5h109q0 -38 -15 -68.5t-43.5 -53t-69.5 -34.5t-93 -12q-104 0 -158.5 42t-54.5 115q0 31 11 57t29 45.5t40.5 31.5t46.5 17q-19 5 -36.5 14.5
t-31 23t-21.5 32t-8 41.5q0 34 16.5 60.5t42.5 43.5t59.5 26t67.5 9q43 0 77 -14t57.5 -36t35.5 -48.5t12 -50.5h-109q0 9 -3.5 19t-11.5 18.5t-22.5 14t-35.5 5.5q-38 0 -57.5 -16t-19.5 -41q0 -21 15.5 -40t53.5 -19h37v-93h-37z" />
    <glyph glyph-name="zeta" unicode="&#x3b6;" horiz-adv-x="510" 
d="M56 610v97h352q23 0 42 -14t19 -44q0 -21 -5 -35t-18 -28q-41 -45 -86 -98t-83 -106.5t-63 -103t-25 -85.5q0 -38 19 -63.5t67 -47.5q41 -18 71.5 -33.5t51 -32.5t30.5 -39t10 -53q0 -28 -13.5 -49.5t-36.5 -38t-53.5 -27.5t-64.5 -18l-29 78q40 6 66 20.5t26 35.5
q0 7 -2 14t-10 14.5t-24 15.5t-43 19q-38 15 -70.5 32.5t-56 41.5t-37 55.5t-13.5 73.5q0 48 25.5 103t63.5 110.5t82 108.5t82 97h-274z" />
    <glyph glyph-name="eta" unicode="&#x3b7;" horiz-adv-x="561" 
d="M51 500h105v-47q9 11 23.5 22.5t35.5 21.5t47 16t57 6q42 0 77 -14.5t60.5 -40.5t39.5 -62t14 -79v-576q0 -13 -15.5 -18t-38.5 -5q-24 0 -39.5 5t-15.5 18v587q0 24 -10.5 41.5t-27.5 29t-38.5 16.5t-44.5 5t-44.5 -6t-38.5 -16t-27 -23t-10 -26v-371q0 -13 -15 -18
t-39 -5q-25 0 -40 5t-15 18v516z" />
    <glyph glyph-name="theta" unicode="&#x3b8;" horiz-adv-x="613" 
d="M581 338q0 -77 -17.5 -146t-52.5 -121t-86.5 -83t-118.5 -31q-68 0 -119 31t-86 83t-52.5 121t-17.5 146q0 76 17.5 145.5t52.5 122t86 83.5t119 31q67 0 118.5 -31t86.5 -83.5t52.5 -122t17.5 -145.5zM307 623q-38 0 -66 -20t-48 -53.5t-31.5 -76t-15.5 -87.5h320
q-4 45 -15.5 87.5t-31 76t-47.5 53.5t-65 20zM307 54q37 0 65 20t47.5 53t31 75.5t15.5 87.5h-320q4 -45 15.5 -87.5t31.5 -75.5t48 -53t66 -20z" />
    <glyph glyph-name="iota" unicode="&#x3b9;" horiz-adv-x="300" 
d="M51 501h109v-366q0 -45 14.5 -63t56.5 -18q11 0 31.5 3.5t34.5 9.5v-98q-23 -6 -45.5 -9t-40.5 -3q-32 0 -60.5 8.5t-51 29t-35.5 54t-13 84.5v368z" />
    <glyph glyph-name="kappa" unicode="&#x3ba;" horiz-adv-x="541" 
d="M462 405q-26 0 -49 -29l-108 -126l222 -280h-122l-183 233h-62v-219q0 -13 -15 -18t-39 -5q-55 0 -55 23v516h109v-204h59l127 152q22 29 46 40.5t49 11.5h52q13 0 21 -11t8 -37q0 -20 -7 -33.5t-18 -13.5h-35z" />
    <glyph glyph-name="lambda" unicode="&#x3bb;" horiz-adv-x="556" 
d="M106 726q46 0 82 -13t63.5 -35.5t47 -53.5t32.5 -67l154 -431q11 -29 31.5 -46t53.5 -17h43q23 0 23 -47q0 -46 -23 -46h-48q-66 0 -113 33t-70 103l-61 180l-19.5 58.5t-21.5 62.5h-1q-11 -34 -21 -62.5t-20 -58.5l-107 -316h-111l175 488q8 22 19 32.5t28 14.5l-13 37
q-15 44 -49 67.5t-76 23.5h-29q-13 0 -19 10t-6 36q0 47 25 47h31z" />
    <glyph glyph-name="uni03BC" unicode="&#x3bc;" horiz-adv-x="551" 
d="M500 -16q0 -13 -14 -18t-38 -5q-53 0 -53 23v23q-21 -23 -61.5 -36.5t-90.5 -13.5q-22 0 -43 4t-40 14v-228q0 -13 -15.5 -18t-38.5 -5q-24 0 -39.5 5t-15.5 18v753h109v-362q0 -26 9 -43t24.5 -27t36 -14t43.5 -4t44 4.5t37.5 13t26.5 19.5t10 25v388h109v-516z" />
    <glyph glyph-name="nu" unicode="&#x3bd;" horiz-adv-x="561" 
d="M273 64q11 34 21 62.5t20 58.5l106 315h111l-174 -488q-11 -31 -29.5 -41t-56.5 -10q-35 0 -53.5 10t-30.5 41l-174 488h112l106 -315l19.5 -58.5t21.5 -62.5h1z" />
    <glyph glyph-name="xi" unicode="&#x3be;" horiz-adv-x="506" 
d="M185 -220q-24 0 -24 49q0 48 24 48h118q22 0 36 8t14 27q0 26 -23.5 38.5t-64.5 24.5q-49 15 -90 36.5t-70 49.5t-45.5 62.5t-16.5 75.5q0 66 40.5 116.5t106.5 77.5q-23 8 -44.5 22t-37.5 33.5t-25.5 44t-9.5 52.5q0 80 48.5 121t128.5 41h178q24 0 24 -48
q0 -49 -24 -49h-172q-35 0 -52 -18t-17 -50q0 -37 31 -59t83 -22h112q24 0 24 -48q0 -49 -24 -49h-99q-36 0 -65.5 -14t-49.5 -37.5t-31 -53t-11 -60.5q0 -33 12 -56t31.5 -39t44 -26.5t49.5 -18.5q85 -28 128 -60t43 -85q0 -36 -14 -61.5t-37 -41.5t-53 -23.5t-61 -7.5
h-115z" />
    <glyph glyph-name="omicron" unicode="&#x3bf;" horiz-adv-x="608" 
d="M303 49q38 0 68 14.5t51 40t32 59.5t11 72t-11 71.5t-32 59t-51 40.5t-68 15t-68 -15t-50.5 -40.5t-31.5 -59t-11 -71.5t11 -72t31.5 -59.5t50.5 -40t68 -14.5zM303 -43q-64 0 -114 21.5t-84.5 59t-53 88.5t-18.5 109t18.5 108.5t53 88.5t84.5 60t114 22t114 -22t85 -60
t53.5 -88.5t18.5 -108.5t-18.5 -109t-53.5 -88.5t-85 -59t-114 -21.5z" />
    <glyph glyph-name="pi" unicode="&#x3c0;" horiz-adv-x="646" 
d="M609 -6q-19 -13 -45.5 -19t-57.5 -6q-21 0 -41.5 6.5t-37 23.5t-26.5 47t-10 77v284h-154v-423q0 -13 -15.5 -18t-38.5 -5q-24 0 -39.5 5t-15.5 18v423h-102v93h580q13 0 18.5 -10t5.5 -37q0 -25 -5.5 -35.5t-18.5 -10.5h-106v-287q0 -30 9.5 -44.5t32.5 -14.5
q11 0 27 3.5t26 7.5q11 4 15 -4.5t10 -34.5q4 -17 1 -25t-12 -14z" />
    <glyph glyph-name="rho" unicode="&#x3c1;" horiz-adv-x="620" 
d="M319 -43q-54 0 -91 16t-68 44v-270q0 -23 -55 -23q-23 0 -38.5 5t-15.5 18v488q0 56 18.5 106.5t53.5 89t84.5 61t111.5 22.5t111.5 -22.5t84 -61t53 -89t18.5 -106.5t-18.5 -106.5t-53 -88.5t-84 -60.5t-111.5 -22.5zM319 50q37 0 66.5 15t49.5 40.5t31 59t11 70.5
t-11 71t-31 59.5t-49.5 40.5t-66.5 15q-35 0 -64 -15.5t-50 -41t-33 -59t-12 -70.5t11.5 -70.5t32.5 -59t50 -40.5t65 -15z" />
    <glyph glyph-name="sigma" unicode="&#x3c3;" horiz-adv-x="637" 
d="M597 500q13 0 18.5 -10.5t5.5 -37.5q0 -47 -24 -47h-88q15 -14 27 -35t20.5 -44.5t13 -49t4.5 -48.5q0 -56 -18.5 -105.5t-53.5 -86.5t-85 -58t-114 -21t-114 21t-84.5 58t-53 86.5t-18.5 105.5t18.5 105.5t53 86.5t84.5 58.5t114 21.5h294zM303 49q38 0 68 13.5t51 37.5
t32 57t11 71q0 37 -11 70t-32 57t-51 38t-68 14t-68 -14t-50.5 -38t-31.5 -57t-11 -70q0 -38 11 -71t31.5 -57t50.5 -37.5t68 -13.5z" />
    <glyph glyph-name="tau" unicode="&#x3c4;" horiz-adv-x="570" 
d="M25 407v93h505q13 0 18.5 -10.5t5.5 -35.5q0 -47 -24 -47h-191v-423q0 -12 -15 -17.5t-41 -5.5t-41 5.5t-15 17.5v423h-202z" />
    <glyph glyph-name="upsilon" unicode="&#x3c5;" horiz-adv-x="551" 
d="M391 391q0 28 -25 28h-81v81h128q41 0 64 -22t23 -81v-413q0 -13 -14 -18t-38 -5q-53 0 -53 23v23q-21 -23 -65 -36.5t-94 -13.5q-87 0 -136 51.5t-49 142.5v349h109v-362q0 -26 9 -43t24.5 -27t36 -14t43.5 -4q22 0 43.5 4.5t38 12.5t26.5 19t10 24v281z" />
    <glyph glyph-name="phi" unicode="&#x3c6;" horiz-adv-x="652" 
d="M373 48q30 7 55 24.5t43 43t28 58t10 70.5q0 36 -6.5 68t-18.5 56t-29 37.5t-38 13.5q-22 0 -33 -14t-11 -38v-319zM264 -41q-53 7 -95.5 30.5t-72.5 60t-46.5 84.5t-16.5 105q0 39 10.5 78t32 73t53 61t73.5 43l23 -95q-40 -24 -61.5 -66.5t-21.5 -93.5q0 -72 30.5 -122
t91.5 -64v303q0 79 39.5 118t109.5 39q42 0 79.5 -19.5t65 -54.5t44 -85t16.5 -110q0 -61 -19.5 -111t-53 -87.5t-78 -61t-94.5 -31.5v-199q0 -23 -55 -23q-23 0 -38.5 5t-15.5 18v205z" />
    <glyph glyph-name="chi" unicode="&#x3c7;" horiz-adv-x="680" 
d="M522 -237l-183 292l-183 -292h-132l251 380l-236 357h131l169 -269l169 269h132l-238 -357l254 -380h-134z" />
    <glyph glyph-name="psi" unicode="&#x3c8;" horiz-adv-x="675" 
d="M284 500h109v-397q54 14 87.5 57t33.5 119v221h112v-224q0 -65 -17.5 -113t-48.5 -81.5t-73.5 -53t-93.5 -25.5v-256q0 -13 -15.5 -18t-38.5 -5q-55 0 -55 23v256q-51 6 -93.5 25.5t-73.5 53t-48.5 81.5t-17.5 113v224h112v-221q0 -76 33.5 -119t87.5 -57v397z" />
    <glyph glyph-name="omega" unicode="&#x3c9;" horiz-adv-x="760" 
d="M435 128q0 -20 8.5 -34.5t22 -24.5t30 -14.5t31.5 -4.5q38 0 63.5 37.5t25.5 125.5q0 30 -5 62.5t-13 64t-20 59.5t-25 48l90 49q19 -25 34 -58.5t26 -72t17 -79t6 -79.5q0 -65 -14.5 -112t-39.5 -78t-59.5 -46t-73.5 -15q-56 0 -96 18t-63 44q-24 -26 -64 -44t-96 -18
q-39 0 -73.5 15t-59.5 46t-39.5 78t-14.5 112q0 39 6 79.5t17 79t26 72t34 58.5l90 -49q-14 -20 -25.5 -48t-19.5 -59.5t-13 -64t-5 -62.5q0 -88 25.5 -125.5t63.5 -37.5q15 0 31.5 4.5t30 14.5t22.5 24.5t9 34.5v234h110v-234z" />
    <glyph glyph-name="phi1" unicode="&#x3d5;" 
d="M475 317q2 10 6 28t7.5 35t5.5 30l2 13q0 1 -11 1t-27 -2.5t-33 -8t-30 -15.5q-38 -31 -55 -69t-16 -86q1 -31 15.5 -52t32 -34t32 -18.5t16.5 -5.5q1 2 6.5 19t14 43t17.5 58t17 64zM602 218q13 17 19.5 38t7 42.5t-6.5 41.5t-21 36q-11 11 -22 19t-20.5 12.5t-16 6.5
t-6.5 1l-3.5 -12.5t-9 -31t-11.5 -40.5t-11 -40q-6 -23 -13.5 -50t-14 -51t-11 -40t-4.5 -17q1 0 14 0.5t33.5 8t46 25t50.5 51.5zM542 440q1 0 11.5 -3t24 -9t27.5 -14.5t22 -18.5q28 -39 33 -101q2 -44 -13.5 -80.5t-38.5 -59.5q-27 -26 -55.5 -41t-53 -23t-41 -10.5
t-17.5 -2.5q0 -2 -4.5 -13.5t-10.5 -29.5t-11.5 -41t-8.5 -46q-7 -54 -21.5 -69.5t-33.5 -9.5q-14 4 -18 13t-1.5 21t10.5 26.5t17 31.5q26 48 36 82.5t9 35.5q-2 0 -21.5 4t-43.5 18.5t-46.5 42.5t-31.5 76q-5 29 5 61.5t31.5 63t53 55t70.5 36.5q37 11 59.5 11.5t24.5 0.5
q0 1 2 10t6 30t9.5 54.5t12.5 83.5q3 16 7.5 34.5t12 33.5t19 23t26.5 3q21 -7 24.5 -20.5t-2.5 -33t-18.5 -45t-22.5 -56.5l-14 -44t-12.5 -39.5t-9 -29z" />
    <glyph glyph-name="phi1" unicode="&#xe271;" 
d="M475 317q2 10 6 28t7.5 35t5.5 30l2 13q0 1 -11 1t-27 -2.5t-33 -8t-30 -15.5q-38 -31 -55 -69t-16 -86q1 -31 15.5 -52t32 -34t32 -18.5t16.5 -5.5q1 2 6.5 19t14 43t17.5 58t17 64zM602 218q13 17 19.5 38t7 42.5t-6.5 41.5t-21 36q-11 11 -22 19t-20.5 12.5t-16 6.5
t-6.5 1l-3.5 -12.5t-9 -31t-11.5 -40.5t-11 -40q-6 -23 -13.5 -50t-14 -51t-11 -40t-4.5 -17q1 0 14 0.5t33.5 8t46 25t50.5 51.5zM542 440q1 0 11.5 -3t24 -9t27.5 -14.5t22 -18.5q28 -39 33 -101q2 -44 -13.5 -80.5t-38.5 -59.5q-27 -26 -55.5 -41t-53 -23t-41 -10.5
t-17.5 -2.5q0 -2 -4.5 -13.5t-10.5 -29.5t-11.5 -41t-8.5 -46q-7 -54 -21.5 -69.5t-33.5 -9.5q-14 4 -18 13t-1.5 21t10.5 26.5t17 31.5q26 48 36 82.5t9 35.5q-2 0 -21.5 4t-43.5 18.5t-46.5 42.5t-31.5 76q-5 29 5 61.5t31.5 63t53 55t70.5 36.5q37 11 59.5 11.5t24.5 0.5
q0 1 2 10t6 30t9.5 54.5t12.5 83.5q3 16 7.5 34.5t12 33.5t19 23t26.5 3q21 -7 24.5 -20.5t-2.5 -33t-18.5 -45t-22.5 -56.5l-14 -44t-12.5 -39.5t-9 -29z" />
    <glyph glyph-name="uni0401" unicode="&#x401;" horiz-adv-x="570" 
d="M344 807q0 26 18 44t44 18t44.5 -18t18.5 -44t-18.5 -44t-44.5 -18t-44 18t-18 44zM125 807q0 26 18.5 44t44.5 18t44 -18t18 -44t-18 -44t-44 -18t-44.5 18t-18.5 44zM170 -30q-17 0 -39.5 14t-38.5 31q-16 16 -28.5 35.5t-12.5 33.5v623h472q14 0 19.5 -11t5.5 -37
q0 -49 -25 -49h-360v-211h336q13 0 18.5 -11t5.5 -37q0 -49 -24 -49h-336v-201q0 -20 8 -27t25 -7h335q25 0 25 -49q0 -48 -25 -48h-361z" />
    <glyph glyph-name="uni0410" unicode="&#x410;" horiz-adv-x="680" 
d="M541 -30l-52 154h-296l-54 -154h-115l272 737h90l270 -737h-115zM343 545l-117 -324h230z" />
    <glyph glyph-name="uni0411" unicode="&#x411;" horiz-adv-x="586" 
d="M321 67q65 0 91 30.5t26 81.5t-25 84.5t-86 33.5h-164v-197q0 -20 7.5 -26.5t24.5 -6.5h126zM191 610q-28 0 -28 -28v-188h164q61 0 104 -17.5t69.5 -47t38.5 -68.5t12 -81q0 -102 -58 -156t-163 -54h-146q-35 0 -86 48q-23 22 -35 43.5t-12 35.5v503q0 31 9 51.5
t23.5 33t34 17.5t40.5 5h315q24 0 24 -48q0 -49 -24 -49h-282z" />
    <glyph glyph-name="uni0412" unicode="&#x412;" horiz-adv-x="639" 
d="M51 707h325q48 0 87 -13.5t66.5 -39t42 -61.5t14.5 -81q0 -56 -25.5 -94.5t-64.5 -58.5q22 -8 41.5 -22t34 -34.5t23 -48.5t8.5 -65q0 -47 -14.5 -87t-43 -69.5t-69.5 -46t-94 -16.5h-194q-17 0 -39.5 12t-48.5 37q-24 23 -36.5 45.5t-12.5 36.5v606zM368 67q60 0 91 31
t31 91q0 63 -28 91t-85 28h-214v-207q0 -20 8 -27t25 -7h172zM370 405q103 0 103 108q0 47 -31.5 72t-79.5 25h-199v-205h207z" />
    <glyph glyph-name="uni0413" unicode="&#x413;" horiz-adv-x="530" 
d="M163 610v-626q0 -12 -15 -17.5t-41 -5.5t-41 5.5t-15 17.5v723h410q24 0 24 -48q0 -49 -24 -49h-298z" />
    <glyph glyph-name="uni0414" unicode="&#x414;" horiz-adv-x="660" 
d="M630 -94q0 -12 -15 -17.5t-41 -5.5t-41 5.5t-15 17.5v64h-376v-64q0 -12 -15 -17.5t-41 -5.5t-41 5.5t-15 17.5v161h59q27 69 42.5 138.5t23.5 146t10.5 163.5t2.5 192h338q30 0 43.5 -10.5t13.5 -39.5v-590h15q23 0 37.5 -11t14.5 -37v-113zM283 610
q-2 -165 -21.5 -302.5t-54.5 -240.5h244v543h-168z" />
    <glyph glyph-name="uni0415" unicode="&#x415;" horiz-adv-x="587" 
d="M170 -30q-17 0 -39.5 14t-38.5 31q-16 16 -28.5 35.5t-12.5 33.5v623h472q14 0 19.5 -11t5.5 -37q0 -49 -25 -49h-360v-211h336q13 0 18.5 -11t5.5 -37q0 -49 -24 -49h-336v-201q0 -20 8 -27t25 -7h335q25 0 25 -49q0 -48 -25 -48h-361z" />
    <glyph glyph-name="uni0416" unicode="&#x416;" horiz-adv-x="855" 
d="M345 264l-206 -294h-126l264 373l-248 364h126l216 -327v327h112v-327l217 327h126l-249 -364l265 -373h-126l-207 294l-26 -38v-242q0 -12 -15 -17.5t-41 -5.5t-41 5.5t-15 17.5v242z" />
    <glyph glyph-name="uni0417" unicode="&#x417;" horiz-adv-x="597" 
d="M226 300v97h69q48 0 79.5 31.5t31.5 87.5q0 26 -8.5 46.5t-23.5 34t-34.5 20.5t-40.5 7q-47 0 -74.5 -26.5t-33.5 -66.5h-112q4 47 22 82.5t47 59.5t67.5 36t83.5 12q49 0 89.5 -16.5t69.5 -44t44.5 -65t15.5 -79.5q0 -63 -30.5 -103.5t-76.5 -55.5q28 -4 56 -17.5
t49.5 -35.5t35 -53t13.5 -70q0 -50 -18.5 -91t-53 -70.5t-83.5 -46t-110 -16.5q-58 0 -105.5 17t-82 48t-54.5 73.5t-22 93.5h111q1 -29 13.5 -54t33.5 -43t48.5 -28t57.5 -10q33 0 61 9t48.5 25.5t32 39.5t11.5 52q0 28 -12.5 50.5t-34 38t-50.5 23.5t-61 8h-69z" />
    <glyph glyph-name="uni0418" unicode="&#x418;" horiz-adv-x="675" 
d="M511 520h-4l-310 -550h-146v737h112v-564h4l328 564h128v-723q0 -23 -56 -23q-25 0 -40.5 5t-15.5 18v536z" />
    <glyph glyph-name="uni0419" unicode="&#x419;" horiz-adv-x="675" 
d="M320 696q-43 0 -81.5 13t-68.5 37t-49.5 58t-25.5 76h105q12 -43 41 -65.5t79 -22.5t79 22.5t41 65.5h105q-6 -42 -25.5 -76t-49.5 -58t-68.5 -37t-81.5 -13zM511 520h-4l-310 -550h-146v737h112v-564h4l328 564h128v-723q0 -23 -56 -23q-25 0 -40.5 5t-15.5 18v536z" />
    <glyph glyph-name="uni041A" unicode="&#x41a;" horiz-adv-x="633" 
d="M491 -30l-259 314h-69v-300q0 -23 -56 -23t-56 23v723h112v-326h67l227 326h123l-259 -369l299 -368h-129z" />
    <glyph glyph-name="uni041B" unicode="&#x41b;" horiz-adv-x="695" 
d="M533 611h-259v-480q0 -47 -11 -80t-31 -54t-47 -30.5t-59 -9.5q-19 0 -46.5 6t-49.5 20v88q15 -8 31.5 -12.5t29.5 -4.5q43 0 57 23t14 63v567h426q30 0 43.5 -10.5t13.5 -39.5v-673q0 -12 -15 -17.5t-41 -5.5t-41 5.5t-15 17.5v627z" />
    <glyph glyph-name="uni041C" unicode="&#x41c;" horiz-adv-x="803" 
d="M478 164q-11 -23 -28.5 -36.5t-47.5 -13.5q-29 0 -48 13.5t-30 36.5l-159 349h-2v-529q0 -23 -56 -23t-56 23v723h139l212 -463l212 463h138v-723q0 -23 -56 -23q-25 0 -40 5t-15 18v529h-3z" />
    <glyph glyph-name="uni041D" unicode="&#x41d;" horiz-adv-x="659" 
d="M608 -16q0 -23 -56 -23q-25 0 -40.5 5t-15.5 18v314h-333v-314q0 -23 -56 -23t-56 23v723h112v-312h333v312h112v-723z" />
    <glyph glyph-name="uni041E" unicode="&#x41e;" horiz-adv-x="747" 
d="M601 339q0 57 -14 108.5t-42.5 91t-71 62.5t-99.5 23q-58 0 -101 -23t-71.5 -62.5t-43 -91t-14.5 -108.5t14.5 -109t43 -91t71.5 -62t101 -23q57 0 99.5 23t71 62t42.5 91t14 109zM31 339q0 86 25.5 156.5t71.5 120.5t108.5 77.5t136.5 27.5t136.5 -27.5t108.5 -77.5
t71.5 -120.5t25.5 -156.5t-25.5 -156.5t-71.5 -120.5t-108.5 -77.5t-136.5 -27.5t-136.5 27.5t-108.5 77.5t-71.5 120.5t-25.5 156.5z" />
    <glyph glyph-name="uni041F" unicode="&#x41f;" horiz-adv-x="615" 
d="M565 -16q0 -23 -56 -23q-24 0 -40 5t-16 18v626h-291v-626q0 -12 -15 -17.5t-41 -5.5t-41 5.5t-15 17.5v723h461q30 0 42 -12.5t12 -41.5v-669z" />
    <glyph glyph-name="uni0420" unicode="&#x420;" horiz-adv-x="628" 
d="M350 349q69 0 99.5 32.5t30.5 98.5t-32 98t-102 32h-183v-261h187zM51 707h292q67 0 114 -17t77 -47.5t44 -72t14 -90.5q0 -48 -14 -90t-43.5 -72.5t-76 -48t-111.5 -17.5h-184v-268q0 -23 -56 -23t-56 23v723z" />
    <glyph glyph-name="uni0421" unicode="&#x421;" horiz-adv-x="654" 
d="M411 -43q-91 0 -161.5 29t-119 80.5t-74 121.5t-25.5 152q0 96 31 167.5t83.5 119t121.5 71t144 23.5q62 0 110 -12.5t83 -32.5q12 -7 15 -16.5t-10 -37.5q-12 -26 -20 -31.5t-20 -0.5q-41 16 -76.5 25t-80.5 9q-60 0 -109.5 -22t-85 -60t-55 -90t-19.5 -112t18.5 -112
t53.5 -90.5t84.5 -61t112.5 -22.5q45 0 80.5 9t76.5 25q12 5 20 1t20 -32q6 -15 8 -23.5t1.5 -14t-4.5 -9t-10 -6.5q-35 -20 -83 -33.5t-110 -13.5z" />
    <glyph glyph-name="uni0422" unicode="&#x422;" horiz-adv-x="587" 
d="M26 610v97h520q13 0 19 -11t6 -37q0 -49 -25 -49h-198v-626q0 -23 -57 -23q-55 0 -55 23v626h-210z" />
    <glyph glyph-name="uni0423" unicode="&#x423;" horiz-adv-x="570" 
d="M75 -30q-25 0 -25 47q0 26 6 36t19 10h29q42 0 76 23t49 67l13 37q-17 4 -28 14.5t-19 32.5l-175 470h111l107 -298q10 -30 20 -58.5t21 -62.5h1q12 34 21.5 62.5l19.5 58.5l107 298h112l-209 -569q-13 -36 -32.5 -67t-47 -53.5t-63.5 -35t-82 -12.5h-31z" />
    <glyph glyph-name="uni0424" unicode="&#x424;" horiz-adv-x="590" 
d="M143 -30v97h93v57q-43 6 -80 21.5t-64.5 42t-43 63.5t-15.5 87q0 49 15.5 86.5t43 64t64.5 42t80 21.5v58h-93v97h280q13 0 18.5 -11t5.5 -37q0 -49 -24 -49h-75v-57q44 -6 82 -21.5t66.5 -41.5t44.5 -64t16 -88q0 -51 -16 -89t-44.5 -64t-66.5 -41.5t-82 -20.5v-56h75
q13 0 18.5 -11t5.5 -37q0 -49 -24 -49h-280zM449 338q0 49 -26 80t-75 42v-245q49 11 75 42.5t26 80.5zM141 338q0 -97 95 -122v243q-95 -25 -95 -121z" />
    <glyph glyph-name="uni0425" unicode="&#x425;" horiz-adv-x="680" 
d="M522 -30l-183 292l-183 -292h-132l251 380l-236 357h131l169 -269l169 269h132l-238 -357l254 -380h-134z" />
    <glyph glyph-name="uni0426" unicode="&#x426;" horiz-adv-x="650" 
d="M568 67q23 0 37.5 -11t14.5 -37v-113q0 -12 -15 -17.5t-41 -5.5t-41 5.5t-15 17.5v64h-351q-21 0 -40.5 5t-34 17.5t-23.5 33t-9 51.5v630h112v-612q0 -28 28 -28h228q28 0 28 28v612h112v-640h10z" />
    <glyph glyph-name="uni0427" unicode="&#x427;" horiz-adv-x="580" 
d="M418 252q-27 -17 -68.5 -27t-86.5 -10q-39 0 -77.5 9.5t-68.5 28t-48.5 45.5t-18.5 63v346h112v-325q0 -20 10 -33.5t26 -21.5t37 -11.5t44 -3.5q41 0 79.5 11t59.5 27v357h112v-723q0 -13 -16.5 -18t-39.5 -5q-24 0 -40 5t-16 18v268z" />
    <glyph glyph-name="uni0428" unicode="&#x428;" horiz-adv-x="730" 
d="M281 67q28 0 28 28v612h112v-612q0 -28 28 -28h91q28 0 28 28v612h112v-630q0 -31 -9 -51.5t-23.5 -33t-34 -17.5t-40.5 -5h-390q-35 0 -86 48q-23 22 -35 43.5t-12 35.5v610h112v-609q0 -20 9 -25.5t26 -5.5h84z" />
    <glyph glyph-name="uni0429" unicode="&#x429;" horiz-adv-x="780" 
d="M183 -30q-35 0 -86 48q-23 22 -35 43.5t-12 35.5v610h112v-609q0 -20 9 -25.5t26 -5.5h84q28 0 28 28v612h112v-612q0 -28 28 -28h91q28 0 28 28v612h112v-640h18q23 0 37.5 -11t14.5 -37v-113q0 -12 -15 -17.5t-41 -5.5t-41 5.5t-15 17.5v64h-455z" />
    <glyph glyph-name="uni042A" unicode="&#x42a;" horiz-adv-x="750" 
d="M225 582q0 28 -28 28h-158v97h191q21 0 40.5 -5t34 -17.5t23.5 -33t9 -51.5v-206h154q61 0 104 -17.5t69.5 -47t38.5 -68.5t12 -81q0 -102 -58 -156t-163 -54h-136q-35 0 -86 48q-23 22 -35 43.5t-12 35.5v485zM485 67q65 0 91.5 30.5t26.5 81.5t-25.5 84.5t-86.5 33.5
h-154v-197q0 -20 7.5 -26.5t24.5 -6.5h116z" />
    <glyph glyph-name="uni042B" unicode="&#x42b;" horiz-adv-x="750" 
d="M310 67q65 0 91.5 30.5t26.5 81.5t-25.5 84.5t-86.5 33.5h-154v-197q0 -20 7.5 -26.5t24.5 -6.5h116zM162 707v-313h154q61 0 104 -17.5t69.5 -47t38.5 -68.5t12 -81q0 -102 -58 -156t-163 -54h-136q-35 0 -86 48q-23 22 -35 43.5t-12 35.5v610h112zM588 707h112v-723
q0 -13 -16 -18t-39 -5q-26 0 -41.5 6t-15.5 17v723z" />
    <glyph glyph-name="uni042C" unicode="&#x42c;" horiz-adv-x="570" 
d="M310 67q65 0 91.5 30.5t26.5 81.5t-25.5 84.5t-86.5 33.5h-154v-197q0 -20 7.5 -26.5t24.5 -6.5h116zM162 707v-313h154q61 0 104 -17.5t69.5 -47t38.5 -68.5t12 -81q0 -102 -58 -156t-163 -54h-136q-35 0 -86 48q-23 22 -35 43.5t-12 35.5v610h112z" />
    <glyph glyph-name="uni042D" unicode="&#x42d;" horiz-adv-x="580" 
d="M218 55q52 0 91 20.5t65.5 54t41 77t19.5 90.5h-375v97h373q-7 47 -23.5 89t-43.5 73t-64 49t-84 18q-51 0 -98.5 -16.5t-87.5 -39.5v103q35 20 82 35t104 15q71 0 131.5 -28.5t105 -79.5t69.5 -121.5t25 -155.5q0 -78 -23.5 -146.5t-66.5 -120t-104 -81.5t-137 -30
q-53 0 -98.5 13t-87.5 30v107q38 -19 86.5 -35.5t99.5 -16.5z" />
    <glyph glyph-name="uni042E" unicode="&#x42e;" horiz-adv-x="800" 
d="M50 707h112v-313h87q6 70 25 130t51.5 103.5t78 68t104.5 24.5q65 0 114 -30t81.5 -82t49 -122.5t16.5 -152.5t-16.5 -151t-49 -119t-81.5 -78t-114 -28q-62 0 -109 25t-79.5 70t-50.5 107.5t-22 137.5h-85v-313q0 -13 -16.5 -18t-39.5 -5q-26 0 -41 6t-15 17v723z
M508 623q-40 0 -68 -26.5t-46 -68t-26 -93t-8 -102.5q0 -50 8 -100t26 -90t46 -64.5t68 -24.5t68 24.5t46 64.5t26 90t8 100q0 51 -8 102.5t-26 93t-46 68t-68 26.5z" />
    <glyph glyph-name="uni042F" unicode="&#x42f;" horiz-adv-x="628" 
d="M577 -16q0 -23 -56 -23t-56 23v268h-165l-172 -282h-127l184 294q-79 23 -114 81t-35 135q0 49 14 90.5t44 72t77 47.5t114 17h292v-723zM465 349v261h-183q-70 0 -102 -32t-32 -98t30.5 -98.5t99.5 -32.5h187z" />
    <glyph glyph-name="uni0430" unicode="&#x430;" horiz-adv-x="541" 
d="M115 407q-13 0 -18.5 10.5t-5.5 36.5q0 25 5.5 35.5t18.5 10.5h183q101 0 146 -42.5t45 -144.5v-329q0 -13 -14.5 -18t-38.5 -5q-56 0 -56 23v2q-36 -16 -83 -25.5t-86 -9.5t-73 10.5t-59.5 32t-40.5 55.5t-15 81q0 44 16 78.5t44.5 58.5t67.5 36.5t84 12.5q40 0 78 -7.5
t67 -15.5v25q0 45 -20.5 67t-68.5 22h-176zM240 223q-53 0 -80.5 -24t-27.5 -68q0 -36 22.5 -61.5t69.5 -25.5q43 0 83.5 9.5t72.5 21.5v126q-32 9 -67 15.5t-73 6.5z" />
    <glyph glyph-name="uni0431" unicode="&#x431;" horiz-adv-x="590" 
d="M303 -43q-64 0 -114 21.5t-84.5 59t-53 88.5t-18.5 109q0 52 13 97t27 82q11 29 29 61.5t43 61t58.5 49.5t76.5 29q29 5 50.5 16t36 24t21.5 26.5t7 25.5h104q-10 -69 -54.5 -111.5t-120.5 -53.5q-38 -6 -60.5 -18t-36.5 -26q35 16 76 16q64 0 114 -22t85 -60t53.5 -88.5
t18.5 -108.5t-18.5 -109t-53.5 -88.5t-85 -59t-114 -21.5zM303 49q38 0 68 14.5t51 40t32 59.5t11 72t-11 71.5t-32 59t-51 40.5t-68 15t-68 -15t-50.5 -40.5t-31.5 -59t-11 -71.5t11 -72t31.5 -59.5t50.5 -40t68 -14.5z" />
    <glyph glyph-name="uni0432" unicode="&#x432;" horiz-adv-x="506" 
d="M158 -30q-21 0 -40.5 5t-34 17t-23.5 32t-9 51v425h230q34 0 64 -9t52 -25.5t34.5 -40.5t12.5 -53q0 -39 -19 -67t-55 -40q46 -15 73.5 -51t27.5 -93q0 -71 -48 -111t-133 -40h-132zM163 200v-108q0 -29 24 -29h100q35 0 55.5 19t20.5 49q0 32 -25 50.5t-60 18.5h-115z
M163 407v-114h88q41 0 62.5 14.5t21.5 43.5q0 21 -19.5 38.5t-53.5 17.5h-99z" />
    <glyph glyph-name="uni0433" unicode="&#x433;" horiz-adv-x="421" 
d="M51 369q0 63 35.5 97t104.5 34h193q13 0 18.5 -10.5t5.5 -35.5q0 -47 -24 -47h-175q-49 0 -49 -55v-368q0 -23 -55 -23q-54 0 -54 23v385z" />
    <glyph glyph-name="uni0434" unicode="&#x434;" horiz-adv-x="590" 
d="M508 63q23 0 37.5 -11t14.5 -37v-109q0 -12 -15 -17.5t-41 -5.5t-41 5.5t-15 17.5v64h-306v-64q0 -12 -15 -17.5t-41 -5.5t-41 5.5t-15 17.5v157h59q32 59 54 164.5t22 272.5h270q30 0 43.5 -10.5t13.5 -39.5v-387h16zM380 407h-108q0 -41 -4.5 -88t-12.5 -93
t-19.5 -88.5t-27.5 -74.5h172v344z" />
    <glyph glyph-name="uni0435" unicode="&#x435;" horiz-adv-x="566" 
d="M424 281q-4 67 -42 103.5t-98 36.5q-35 0 -60.5 -12t-43 -31.5t-27.5 -45t-12 -51.5h283zM329 -43q-64 0 -118.5 16.5t-94.5 50.5t-62.5 86.5t-22.5 124.5q0 64 19.5 116t53 88t80 55.5t100.5 19.5q66 0 114 -23t78.5 -62.5t45 -92t14.5 -111.5q0 -21 -10 -30.5t-26 -9.5
h-358q3 -35 19 -60.5t41 -42t57 -24.5t66 -8q35 0 66 8t60 18q13 5 21.5 -0.5t19.5 -32.5q11 -26 9 -35t-15 -16q-13 -8 -32 -14.5t-40.5 -11t-43.5 -7t-41 -2.5z" />
    <glyph glyph-name="uni0436" unicode="&#x436;" horiz-adv-x="710" 
d="M300 140l-26 44l-131 -214h-120l183 287l-154 243h118l130 -212v212h109v-212l131 212h118l-154 -243l183 -287h-120l-132 214l-26 -44v-156q0 -13 -15.5 -18t-38.5 -5q-55 0 -55 23v156z" />
    <glyph glyph-name="uni0437" unicode="&#x437;" horiz-adv-x="483" 
d="M204 213v93h37q38 0 53.5 19t15.5 40q0 25 -19.5 41t-57.5 16q-21 0 -35.5 -5.5t-22.5 -14t-11.5 -18.5t-3.5 -19h-109q0 24 12 50.5t35.5 48.5t57 36t77.5 14q34 0 67.5 -9t59.5 -26t42.5 -43.5t16.5 -60.5q0 -23 -8 -41.5t-21.5 -32t-31 -23t-36.5 -14.5
q24 -5 46.5 -17t40.5 -31.5t29 -45.5t11 -57q0 -73 -54.5 -115t-158.5 -42q-52 0 -93 12t-69.5 34.5t-43.5 53t-15 68.5h109q0 -20 10.5 -34.5t26.5 -23.5t36 -13.5t39 -4.5q52 0 78 21t26 59q0 16 -5.5 31t-17.5 27t-30.5 19.5t-45.5 7.5h-37z" />
    <glyph glyph-name="uni0438" unicode="&#x438;" horiz-adv-x="535" 
d="M485 -16q0 -23 -55 -23q-54 0 -54 23v353h-4l-198 -367h-124v530h109v-348h4l181 348h141v-516z" />
    <glyph glyph-name="uni0439" unicode="&#x439;" horiz-adv-x="535" 
d="M270 546q-43 0 -81.5 13t-68.5 37t-49.5 58t-25.5 76h105q12 -43 41 -65.5t79 -22.5t79 22.5t41 65.5h105q-6 -42 -25.5 -76t-49.5 -58t-68.5 -37t-81.5 -13zM485 -16q0 -23 -55 -23q-54 0 -54 23v353h-4l-198 -367h-124v530h109v-348h4l181 348h141v-516z" />
    <glyph glyph-name="uni043A" unicode="&#x43a;" horiz-adv-x="541" 
d="M160 -16q0 -13 -15 -18t-39 -5q-55 0 -55 23v516h109v-204h59l156 204h125l-195 -250l222 -280h-122l-183 233h-62v-219z" />
    <glyph glyph-name="uni043B" unicode="&#x43b;" horiz-adv-x="600" 
d="M441 407h-170v-276q0 -47 -10.5 -80t-30 -54t-46 -30.5t-58.5 -9.5q-19 0 -46.5 6t-49.5 20v88q15 -8 31.5 -12.5t29.5 -4.5q43 0 57 23t14 63v360h331q30 0 43.5 -10.5t13.5 -39.5v-466q0 -23 -54 -23q-55 0 -55 23v423z" />
    <glyph glyph-name="uni043C" unicode="&#x43c;" horiz-adv-x="620" 
d="M381 118q-9 -22 -25.5 -35t-45.5 -13q-28 0 -44.5 12.5t-27.5 35.5l-77 184h-2v-318q0 -23 -55 -23q-54 0 -54 23v516h132l128 -299l128 299h132v-516q0 -23 -54 -23q-24 0 -39.5 5t-15.5 18v318h-2z" />
    <glyph glyph-name="uni043D" unicode="&#x43d;" horiz-adv-x="520" 
d="M470 -16q0 -23 -54 -23q-24 0 -39.5 5t-15.5 18v210h-202v-210q0 -23 -55 -23q-54 0 -54 23v516h109v-212h202v212h109v-516z" />
    <glyph glyph-name="uni043E" unicode="&#x43e;" horiz-adv-x="608" 
d="M303 49q38 0 68 14.5t51 40t32 59.5t11 72t-11 71.5t-32 59t-51 40.5t-68 15t-68 -15t-50.5 -40.5t-31.5 -59t-11 -71.5t11 -72t31.5 -59.5t50.5 -40t68 -14.5zM303 -43q-64 0 -114 21.5t-84.5 59t-53 88.5t-18.5 109t18.5 108.5t53 88.5t84.5 60t114 22t114 -22t85 -60
t53.5 -88.5t18.5 -108.5t-18.5 -109t-53.5 -88.5t-85 -59t-114 -21.5z" />
    <glyph glyph-name="uni043F" unicode="&#x43f;" horiz-adv-x="540" 
d="M490 -16q0 -23 -54 -23q-24 0 -39.5 5t-15.5 18v423h-222v-423q0 -23 -55 -23q-54 0 -54 23v516h386q30 0 42 -12.5t12 -41.5v-462z" />
    <glyph glyph-name="uni0440" unicode="&#x440;" horiz-adv-x="603" 
d="M160 -252q0 -24 -56 -24q-24 0 -38.5 5t-14.5 19v752h109v-57h1q29 34 71 52.5t103 18.5q52 0 95.5 -21.5t75 -59t49 -88t17.5 -109.5q0 -57 -16 -107.5t-48 -89t-79 -60.5t-109 -22q-45 0 -88.5 16.5t-70.5 45.5h-1v-271zM160 241q0 -58 14.5 -95t37 -58.5t49.5 -29.5
t51 -8q36 0 64 15t47.5 40.5t29.5 59t10 71.5q0 40 -11 73.5t-31 58t-47.5 38.5t-61.5 14q-22 0 -48 -7.5t-49 -27t-39 -54.5t-16 -90z" />
    <glyph glyph-name="uni0441" unicode="&#x441;" horiz-adv-x="507" 
d="M419 407q-19 5 -49.5 9.5t-57.5 4.5q-40 0 -71.5 -14.5t-53.5 -39.5t-33.5 -58.5t-11.5 -72.5t11 -72.5t32.5 -59t53 -40t71.5 -14.5q34 0 66.5 6t58.5 14q12 4 21 -0.5t20 -32.5q5 -15 7 -24t1 -14t-4.5 -8t-9.5 -6q-12 -7 -31.5 -12t-42 -8.5t-45.5 -5.5t-42 -2
q-62 0 -112.5 19t-87 55t-56.5 87.5t-20 116.5q0 67 21 119.5t58.5 87.5t88.5 53.5t110 18.5q39 0 79.5 -6.5t63.5 -17.5q13 -5 15 -14.5t-9 -36.5t-19.5 -32t-21.5 0z" />
    <glyph glyph-name="uni0442" unicode="&#x442;" horiz-adv-x="500" 
d="M25 407v93h435q13 0 18.5 -10.5t5.5 -35.5q0 -47 -24 -47h-157v-423q0 -23 -54 -23q-55 0 -55 23v423h-169z" />
    <glyph glyph-name="uni0443" unicode="&#x443;" horiz-adv-x="556" 
d="M75 -256q-25 0 -25 47q0 26 6 36t19 10h29q42 0 76 23.5t49 67.5l13 37q-17 4 -28 14.5t-19 32.5l-175 488h111l107 -316q10 -30 20 -58.5t21 -62.5h1q12 34 21.5 62.5l19.5 58.5l107 316h112l-209 -587q-13 -36 -32.5 -67t-47 -53.5t-63.5 -35.5t-82 -13h-31z" />
    <glyph glyph-name="uni0444" unicode="&#x444;" horiz-adv-x="840" 
d="M368 686h110v-223q40 8 70 8q59 0 107 -18t81.5 -51t52 -80t18.5 -105q0 -59 -18.5 -105t-52.5 -78.5t-82 -49.5t-106 -17q-30 0 -70 8v-221q0 -13 -15.5 -18t-38.5 -5q-26 0 -41 6t-15 17v222q-21 -5 -41 -7.5t-36 -2.5q-59 0 -106.5 17t-81.5 49.5t-52.5 78.5
t-18.5 105q0 58 18.5 105t52 80t81.5 50.5t107 17.5q16 0 36 -2.5t41 -7.5v227zM292 386q-34 0 -61.5 -12.5t-47 -34.5t-30 -53t-10.5 -68q0 -38 10 -69.5t29.5 -54t46.5 -34.5t62 -11q20 0 35 2t42 11v312q-38 12 -76 12zM548 50q69 0 108.5 46t39.5 123q0 37 -10.5 68
t-30 53.5t-47 35t-61.5 12.5t-69 -11v-317q17 -5 35 -7.5t35 -2.5z" />
    <glyph glyph-name="uni0445" unicode="&#x445;" horiz-adv-x="546" 
d="M391 -30l-125 186l-127 -186h-126l191 270l-182 260h127l117 -181l117 181h125l-181 -260l189 -270h-125z" />
    <glyph glyph-name="uni0446" unicode="&#x446;" horiz-adv-x="571" 
d="M491 67q23 0 36.5 -11t13.5 -37v-113q0 -23 -54 -23q-55 0 -55 23v64h-274q-21 0 -40.5 5t-34 17.5t-23.5 33t-9 51.5v423h109v-405q0 -28 28 -28h157q28 0 28 28v405h109v-433h9z" />
    <glyph glyph-name="uni0447" unicode="&#x447;" horiz-adv-x="522" 
d="M362 162q-27 -17 -55 -27t-73 -10q-39 0 -72.5 9.5t-58 28t-38.5 45.5t-14 63v229h109v-212q0 -40 22.5 -55t67.5 -15q41 0 66 11t46 27v244h109v-516q0 -13 -15.5 -18t-38.5 -5q-24 0 -39.5 5t-15.5 18v178z" />
    <glyph glyph-name="uni0448" unicode="&#x448;" horiz-adv-x="670" 
d="M253 63q28 0 28 28v409h109v-409q0 -28 28 -28h65q28 0 28 28v409h109v-423q0 -31 -9 -51.5t-23.5 -33t-34 -17.5t-40.5 -5h-330q-35 0 -86 48q-23 22 -35 43.5t-12 35.5v403h109v-406q0 -20 9 -25.5t26 -5.5h59z" />
    <glyph glyph-name="uni0449" unicode="&#x449;" horiz-adv-x="710" 
d="M630 63q23 0 36.5 -9t13.5 -35v-113q0 -23 -54 -23q-55 0 -55 23v64h-388q-35 0 -86 48q-23 22 -35 43.5t-12 35.5v403h109v-406q0 -20 9 -25.5t26 -5.5h59q28 0 28 28v409h109v-409q0 -28 28 -28h65q28 0 28 28v409h109v-437h10z" />
    <glyph glyph-name="uni044A" unicode="&#x44a;" horiz-adv-x="640" 
d="M180 378q0 28 -28 28h-113v93h146q21 0 40.5 -5t34 -17.5t23.5 -33t9 -51.5v-78h99q104 0 159 -44t55 -126q0 -85 -57 -129.5t-154 -44.5h-81q-35 0 -86 48q-23 22 -35 43.5t-12 35.5v281zM385 63q25 0 45.5 3t35 11.5t22.5 24t8 41.5q0 44 -29.5 61t-75.5 17h-99v-125
q0 -20 7.5 -26.5t24.5 -6.5h61z" />
    <glyph glyph-name="uni044B" unicode="&#x44b;" horiz-adv-x="680" 
d="M521 499h109v-515q0 -13 -15.5 -18t-38.5 -5q-55 0 -55 23v515zM159 499v-185h102q104 0 159 -44t55 -126q0 -85 -57 -129.5t-154 -44.5h-81q-35 0 -86 48q-23 22 -35 43.5t-12 35.5v402h109zM255 63q25 0 45.5 3t35 11.5t22.5 24t8 41.5q0 44 -29.5 61t-75.5 17h-102
v-125q0 -20 7.5 -26.5t24.5 -6.5h64z" />
    <glyph glyph-name="uni044C" unicode="&#x44c;" horiz-adv-x="505" 
d="M159 499v-185h102q104 0 159 -44t55 -126q0 -85 -57 -129.5t-154 -44.5h-81q-35 0 -86 48q-23 22 -35 43.5t-12 35.5v402h109zM255 63q25 0 45.5 3t35 11.5t22.5 24t8 41.5q0 44 -29.5 61t-75.5 17h-102v-125q0 -20 7.5 -26.5t24.5 -6.5h64z" />
    <glyph glyph-name="uni044D" unicode="&#x44d;" horiz-adv-x="465" 
d="M32 88q29 -17 64.5 -27.5t73.5 -10.5q26 0 51.5 10t46.5 28t35.5 43.5t19.5 56.5h-261v91h261q-6 31 -20.5 57t-34.5 45t-45.5 29.5t-54.5 10.5q-42 0 -76.5 -12t-55.5 -23v95q26 13 66 23t81 10q56 0 102 -22.5t79 -61t51.5 -90.5t18.5 -110q0 -56 -18.5 -105.5
t-52.5 -87t-82 -59t-106 -21.5q-19 0 -39.5 2.5t-40 6.5t-36 10t-27.5 13v99z" />
    <glyph glyph-name="uni044E" unicode="&#x44e;" horiz-adv-x="745" 
d="M481 513q58 0 101.5 -23.5t73 -62.5t44 -89.5t14.5 -103.5t-14.5 -103t-44 -88.5t-73 -62t-101.5 -23.5q-49 0 -88 17t-67.5 45.5t-46.5 67t-26 82.5h-91v-185q0 -13 -16.5 -18t-39.5 -5q-26 0 -41 6t-15 17v516h112v-237h87q4 49 20 94.5t45 80t71 55t96 20.5zM481 50
q56 0 89.5 49t33.5 135t-33.5 136t-89.5 50t-89.5 -50t-33.5 -136t33.5 -135t89.5 -49z" />
    <glyph glyph-name="uni044F" unicode="&#x44f;" horiz-adv-x="500" 
d="M450 -16q0 -23 -55 -23q-54 0 -54 23v165h-117l-105 -179h-118l121 200q-95 43 -95 152q0 85 57 131.5t154 46.5h212v-516zM341 407h-94q-25 0 -45.5 -3.5t-35 -13t-22.5 -26t-8 -41.5q0 -45 29.5 -63t75.5 -18h100v165z" />
    <glyph glyph-name="uni0451" unicode="&#x451;" horiz-adv-x="566" 
d="M337 617q0 26 18 44t44 18t44.5 -18t18.5 -44t-18.5 -44t-44.5 -18t-44 18t-18 44zM118 617q0 26 18.5 44t44.5 18t44 -18t18 -44t-18 -44t-44 -18t-44.5 18t-18.5 44zM424 281q-4 67 -42 103.5t-98 36.5q-35 0 -60.5 -12t-43 -31.5t-27.5 -45t-12 -51.5h283zM329 -43
q-64 0 -118.5 16.5t-94.5 50.5t-62.5 86.5t-22.5 124.5q0 64 19.5 116t53 88t80 55.5t100.5 19.5q66 0 114 -23t78.5 -62.5t45 -92t14.5 -111.5q0 -21 -10 -30.5t-26 -9.5h-358q3 -35 19 -60.5t41 -42t57 -24.5t66 -8q35 0 66 8t60 18q13 5 21.5 -0.5t19.5 -32.5
q11 -26 9 -35t-15 -16q-13 -8 -32 -14.5t-40.5 -11t-43.5 -7t-41 -2.5z" />
    <glyph glyph-name="uni2010" unicode="&#x2010;" horiz-adv-x="630" 
d="M47 398h515q24 0 24 -48t-24 -48h-515v96z" />
    <glyph glyph-name="uni2010" unicode="&#xe001;" horiz-adv-x="630" 
d="M47 398h515q24 0 24 -48t-24 -48h-515v96z" />
    <glyph glyph-name="emdash" unicode="&#x2014;" 
d="M47 398h807q24 0 24 -48t-24 -48h-807v96z" />
    <glyph glyph-name="emdash" unicode="&#x2015;" 
d="M47 398h807q24 0 24 -48t-24 -48h-807v96z" />
    <glyph glyph-name="uni2016" unicode="&#x2016;" horiz-adv-x="500" 
d="M308 733h78v-861h-78v861zM122 733h78v-861h-78v861z" />
    <glyph glyph-name="quoteleft" unicode="&#x2018;" horiz-adv-x="360" 
d="M234 642q29 -1 51 -19.5t22 -56.5q0 -31 -21 -51.5t-51 -20.5q-35 0 -55.5 20.5t-20.5 55.5q0 30 10.5 61t25.5 58.5t31.5 50t28.5 34.5q5 5 10 3.5t18 -11.5q21 -16 15 -23q-20 -26 -39 -52t-25 -49z" />
    <glyph glyph-name="quoteright" unicode="&#x2019;" horiz-adv-x="360" 
d="M126 613q-29 1 -51 19.5t-22 56.5q0 31 21 51.5t51 20.5q35 0 55.5 -20.5t20.5 -55.5q0 -30 -10.5 -61t-25.5 -58.5t-31.5 -50t-28.5 -34.5q-5 -5 -10 -3.5t-18 11.5q-21 16 -15 23q20 26 39 52t25 49z" />
    <glyph glyph-name="quotereversed" unicode="&#x201b;" horiz-adv-x="360" 
d="M234 613q6 -23 25 -49t39 -52q6 -7 -15 -23q-13 -10 -18 -11.5t-10 3.5q-12 12 -28.5 34.5t-31.5 50t-25.5 58.5t-10.5 61q0 35 20.5 55.5t55.5 20.5q30 0 51 -20.5t21 -51.5q0 -38 -22 -56.5t-51 -19.5z" />
    <glyph glyph-name="quotedblleft" unicode="&#x201c;" horiz-adv-x="410" 
d="M304 642q29 -1 51 -19.5t22 -56.5q0 -31 -21 -51.5t-51 -20.5q-35 0 -55.5 20.5t-20.5 55.5q0 30 10.5 61t25.5 58.5t31.5 50t28.5 34.5q5 5 10 3.5t18 -11.5q21 -16 15 -23q-20 -26 -39 -52t-25 -49zM134 642q29 -1 51 -19.5t22 -56.5q0 -31 -21 -51.5t-51 -20.5
q-35 0 -55.5 20.5t-20.5 55.5q0 30 10.5 61t25.5 58.5t31.5 50t28.5 34.5q5 5 10 3.5t18 -11.5q21 -16 15 -23q-20 -26 -39 -52t-25 -49z" />
    <glyph glyph-name="quotedblright" unicode="&#x201d;" horiz-adv-x="410" 
d="M106 613q-29 1 -51 19.5t-22 56.5q0 31 21 51.5t51 20.5q35 0 55.5 -20.5t20.5 -55.5q0 -30 -10.5 -61t-25.5 -58.5t-31.5 -50t-28.5 -34.5q-5 -5 -10 -3.5t-18 11.5q-21 16 -15 23q20 26 39 52t25 49zM276 613q-29 1 -51 19.5t-22 56.5q0 31 21 51.5t51 20.5
q35 0 55.5 -20.5t20.5 -55.5q0 -30 -10.5 -61t-25.5 -58.5t-31.5 -50t-28.5 -34.5q-5 -5 -10 -3.5t-18 11.5q-21 16 -15 23q20 26 39 52t25 49z" />
    <glyph glyph-name="uni201F" unicode="&#x201f;" horiz-adv-x="410" 
d="M304 613q6 -23 25 -49t39 -52q6 -7 -15 -23q-13 -10 -18 -11.5t-10 3.5q-12 12 -28.5 34.5t-31.5 50t-25.5 58.5t-10.5 61q0 35 20.5 55.5t55.5 20.5q30 0 51 -20.5t21 -51.5q0 -38 -22 -56.5t-51 -19.5zM134 613q6 -23 25 -49t39 -52q6 -7 -15 -23q-13 -10 -18 -11.5
t-10 3.5q-12 12 -28.5 34.5t-31.5 50t-25.5 58.5t-10.5 61q0 35 20.5 55.5t55.5 20.5q30 0 51 -20.5t21 -51.5q0 -38 -22 -56.5t-51 -19.5z" />
    <glyph glyph-name="dagger" unicode="&#x2020;" 
d="M403 -103v620h-147v80h147v180h123v-180h138v-80h-138v-620h-123z" />
    <glyph glyph-name="daggerdbl" unicode="&#x2021;" 
d="M664 517h-138v-98h138v-80h-138v-442h-123v442h-147v80h147v98h-147v80h147v180h123v-180h138v-80z" />
    <glyph glyph-name="bullet" unicode="&#x2022;" 
d="M534 376q0 -33 -21 -53.5t-53 -20.5t-53 20.5t-21 53.5t21 53.5t53 20.5t53 -20.5t21 -53.5z" />
    <glyph glyph-name="twodotenleader" unicode="&#x2025;" horiz-adv-x="556" 
d="M207 -4q0 -33 -21 -53.5t-53 -20.5t-53 20.5t-21 53.5t21 53.5t53 20.5t53 -20.5t21 -53.5zM497 -4q0 -33 -21 -53.5t-53 -20.5t-53 20.5t-21 53.5t21 53.5t53 20.5t53 -20.5t21 -53.5z" />
    <glyph glyph-name="ellipsis" unicode="&#x2026;" 
d="M244 -4q0 -33 -21 -53.5t-53 -20.5t-53 20.5t-21 53.5t21 53.5t53 20.5t53 -20.5t21 -53.5zM534 -4q0 -33 -21 -53.5t-53 -20.5t-53 20.5t-21 53.5t21 53.5t53 20.5t53 -20.5t21 -53.5zM824 -4q0 -33 -21 -53.5t-53 -20.5t-53 20.5t-21 53.5t21 53.5t53 20.5t53 -20.5
t21 -53.5z" />
    <glyph glyph-name="ellipsis" unicode="&#x22ef;" 
d="M244 -4q0 -33 -21 -53.5t-53 -20.5t-53 20.5t-21 53.5t21 53.5t53 20.5t53 -20.5t21 -53.5zM534 -4q0 -33 -21 -53.5t-53 -20.5t-53 20.5t-21 53.5t21 53.5t53 20.5t53 -20.5t21 -53.5zM824 -4q0 -33 -21 -53.5t-53 -20.5t-53 20.5t-21 53.5t21 53.5t53 20.5t53 -20.5
t21 -53.5z" />
    <glyph glyph-name="perthousand" unicode="&#x2030;" 
d="M194 -30h-95l342 737h94zM298 517q0 -31 -8.5 -60t-25.5 -51.5t-42 -36.5t-58 -14t-58 14t-42 36.5t-25.5 51.5t-8.5 60t8.5 59.5t25.5 51t42 36t58 13.5t58 -13.5t42 -36t25.5 -51t8.5 -59.5zM126 517q0 -78 38 -78t38 78q0 76 -38 76t-38 -76zM604 153q0 -31 -8.5 -60
t-25.5 -51.5t-42 -36t-58 -13.5t-58 13.5t-42 36t-25.5 51.5t-8.5 60t8.5 59.5t25.5 51t42 36t58 13.5t58 -13.5t42 -36t25.5 -51t8.5 -59.5zM432 153q0 -77 38 -77t38 77q0 76 -38 76t-38 -76zM893 153q0 -31 -8.5 -60t-25.5 -51.5t-42 -36t-58 -13.5t-58 13.5t-42 36
t-25.5 51.5t-8.5 60t8.5 59.5t25.5 51t42 36t58 13.5t58 -13.5t42 -36t25.5 -51t8.5 -59.5zM721 153q0 -77 38 -77t38 77q0 76 -38 76t-38 -76z" />
    <glyph glyph-name="minute" unicode="&#x2032;" horiz-adv-x="250" 
d="M112 521q-4 -8 -14.5 -12.5t-22.5 -4.5q-20 0 -25.5 7.5t-3.5 17.5l46 178h112z" />
    <glyph glyph-name="second" unicode="&#x2033;" horiz-adv-x="420" 
d="M112 521q-4 -8 -14.5 -12.5t-22.5 -4.5q-20 0 -25.5 7.5t-3.5 17.5l46 178h112zM282 521q-5 -10 -15 -13.5t-22 -3.5q-17 0 -24.5 6.5t-5.5 15.5l47 181h112z" />
    <glyph glyph-name="uni2034" unicode="&#x2034;" 
d="M277 521q-4 -8 -14.5 -12.5t-22.5 -4.5q-20 0 -25.5 7.5t-3.5 17.5l46 178h112zM447 521q-4 -8 -14.5 -12.5t-22.5 -4.5q-20 0 -25.5 7.5t-3.5 17.5l46 178h112zM617 521q-5 -10 -15 -13.5t-22 -3.5q-17 0 -24.5 6.5t-5.5 15.5l47 181h112z" />
    <glyph glyph-name="uni2035" unicode="&#x2035;" horiz-adv-x="380" 
d="M339 587v-43l-279 128v116z" />
    <glyph glyph-name="uni2035" unicode="&#xe47a;" horiz-adv-x="380" 
d="M339 587v-43l-279 128v116z" />
    <glyph glyph-name="uni2036" unicode="&#x2036;" horiz-adv-x="380" 
d="M339 587v-43l-279 128v116zM339 446v-43l-279 128v116z" />
    <glyph glyph-name="uni2036" unicode="&#xe478;" horiz-adv-x="380" 
d="M339 587v-43l-279 128v116zM339 446v-43l-279 128v116z" />
    <glyph glyph-name="guilsinglleft" unicode="&#x2039;" 
d="M815 608l-516 -319q131 -80 258.5 -159t257.5 -159v-115l-710 433l710 432v-113z" />
    <glyph glyph-name="guilsinglright" unicode="&#x203a;" 
d="M105 721l709 -432l-709 -433v115l516 318q-128 80 -258.5 160t-257.5 159v113z" />
    <glyph glyph-name="uni203B" unicode="&#x203b;" 
d="M196 671l286 -284q72 72 142 141.5t142 141.5l58 -62l-281 -283q72 -71 140.5 -140.5t140.5 -141.5l-58 -63l-284 283q-72 -72 -142.5 -141.5t-142.5 -141.5l-61 61l284 284l-284 284zM278 325q0 -30 -23 -52.5t-54 -22.5q-30 0 -52.5 22.5t-22.5 52.5q0 31 22.5 53
t52.5 22q31 0 54 -22t23 -53zM555 605q0 -32 -23 -54t-53 -22q-29 0 -51.5 22t-22.5 54q0 15 6 28.5t16.5 24t23.5 17t28 6.5q30 0 53 -23t23 -53zM686 325q0 31 22 53t52 22q33 0 54.5 -22.5t21.5 -52.5q0 -32 -21.5 -53.5t-54.5 -21.5q-30 0 -52 21.5t-22 53.5zM484 -30
q-31 0 -53 22t-22 54t22 53.5t52 21.5t53 -22.5t23 -52.5t-22.5 -53t-52.5 -23z" />
    <glyph glyph-name="exclamdbl" unicode="&#x203c;" 
d="M236 -9q0 29 20 48.5t48 19.5q29 0 49 -19.5t20 -48.5t-20 -49t-49 -20q-28 0 -48 20t-20 49zM345 158q-1 -20 -43 -20q-44 0 -44 20l-18 528h123zM546 -9q0 29 20 48.5t48 19.5q29 0 49 -19.5t20 -48.5t-20 -49t-49 -20q-28 0 -48 20t-20 49zM655 158q-1 -20 -43 -20
q-44 0 -44 20l-18 528h123z" />
    <glyph glyph-name="uni203E" unicode="&#x203e;" 
d="M0 760h895q24 0 24 -48t-24 -48h-895v96z" />
    <glyph glyph-name="uni203E" unicode="&#xffe3;" 
d="M0 760h895q24 0 24 -48t-24 -48h-895v96z" />
    <glyph glyph-name="uni2042" unicode="&#x2042;" 
d="M616 539l-92 -48l89 -44l-38 -66l-85 57l5 -100h-71l6 100l-87 -55l-39 66l93 42l-92 46l36 66l89 -61l-6 104h71l-5 -104l85 62zM831 47l-99 6l55 -85l-65 -40l-44 92l-44 -91l-67 37l60 87l-104 -6v72l104 -6l-61 88l65 41l47 -95l45 93l66 -39l-57 -88l99 6v-72z
M396 47l-100 6l56 -85l-66 -40l-43 92l-45 -91l-66 37l60 87l-104 -6v72l104 -6l-61 88l65 41l47 -95l45 93l66 -39l-58 -88l100 6v-72z" />
    <glyph glyph-name="uni2047" unicode="&#x2047;" 
d="M842 476q-5 -36 -17 -61t-27 -44.5t-30.5 -36t-28 -34t-21 -38.5t-8.5 -50v-96h-90v95q0 58 17.5 94t40 64t43 53t26.5 60q4 22 1 44t-13 39.5t-27 28.5t-41 11q-26 0 -44 -11t-29 -29t-15.5 -42t-2.5 -49h-90q-2 43 8 84t32 73t57.5 51.5t84.5 19.5q42 0 77.5 -18.5
t59 -49.5t34 -72t3.5 -86zM430 476q-5 -36 -17 -61t-27 -44.5t-30.5 -36t-28 -34t-21 -38.5t-8.5 -50v-96h-91v95q0 38 8.5 67t21.5 51t28 40t29.5 35t25.5 35.5t15 42.5q4 22 1 44t-13 39.5t-27 28.5t-41 11q-26 0 -44 -11t-29 -29t-15.5 -42t-2.5 -49h-89q-2 43 7.5 84
t32 73t58 51.5t84.5 19.5q42 0 77 -18.5t58.5 -49.5t34 -72t3.5 -86zM717 -104h-105v128h105v-128zM305 -104h-105v128h105v-128z" />
    <glyph glyph-name="uni2047" unicode="&#xe27e;" 
d="M842 476q-5 -36 -17 -61t-27 -44.5t-30.5 -36t-28 -34t-21 -38.5t-8.5 -50v-96h-90v95q0 58 17.5 94t40 64t43 53t26.5 60q4 22 1 44t-13 39.5t-27 28.5t-41 11q-26 0 -44 -11t-29 -29t-15.5 -42t-2.5 -49h-90q-2 43 8 84t32 73t57.5 51.5t84.5 19.5q42 0 77.5 -18.5
t59 -49.5t34 -72t3.5 -86zM430 476q-5 -36 -17 -61t-27 -44.5t-30.5 -36t-28 -34t-21 -38.5t-8.5 -50v-96h-91v95q0 38 8.5 67t21.5 51t28 40t29.5 35t25.5 35.5t15 42.5q4 22 1 44t-13 39.5t-27 28.5t-41 11q-26 0 -44 -11t-29 -29t-15.5 -42t-2.5 -49h-89q-2 43 7.5 84
t32 73t58 51.5t84.5 19.5q42 0 77 -18.5t58.5 -49.5t34 -72t3.5 -86zM717 -104h-105v128h105v-128zM305 -104h-105v128h105v-128z" />
    <glyph glyph-name="uni2049" unicode="&#x2049;" 
d="M264 364l-25 -238h-55l-25 238v340h105v-340zM764 476q-6 -36 -19 -61t-29.5 -44.5t-34 -36t-31.5 -34t-23.5 -38.5t-9.5 -50v-96h-99v95q0 38 9 67t23.5 51t31.5 40t32.5 35t27.5 35.5t17 42.5q4 22 0.5 43.5t-14.5 38.5t-30 27.5t-46 10.5q-29 0 -48.5 -10.5t-31.5 -28
t-17 -41t-3 -48.5h-99q-2 43 9 84.5t35.5 73.5t64 52t93.5 20q46 0 85 -19t65.5 -50.5t38 -72.5t3.5 -86zM626 -104h-116v128h116v-128zM271 -104h-119v128h119v-128z" />
    <glyph glyph-name="uni2049" unicode="&#xe27c;" 
d="M264 364l-25 -238h-55l-25 238v340h105v-340zM764 476q-6 -36 -19 -61t-29.5 -44.5t-34 -36t-31.5 -34t-23.5 -38.5t-9.5 -50v-96h-99v95q0 38 9 67t23.5 51t31.5 40t32.5 35t27.5 35.5t17 42.5q4 22 0.5 43.5t-14.5 38.5t-30 27.5t-46 10.5q-29 0 -48.5 -10.5t-31.5 -28
t-17 -41t-3 -48.5h-99q-2 43 9 84.5t35.5 73.5t64 52t93.5 20q46 0 85 -19t65.5 -50.5t38 -72.5t3.5 -86zM626 -104h-116v128h116v-128zM271 -104h-119v128h119v-128z" />
    <glyph glyph-name="uni204C" unicode="&#x204c;" horiz-adv-x="490" 
d="M409 714v-828h-36v828h36zM328 -114q-61 25 -112 67t-88 96t-58 117.5t-21 133.5t20.5 134t57.5 118t88.5 95.5t112.5 66.5v-828z" />
    <glyph glyph-name="uni204C" unicode="&#xe103;" horiz-adv-x="490" 
d="M409 714v-828h-36v828h36zM328 -114q-61 25 -112 67t-88 96t-58 117.5t-21 133.5t20.5 134t57.5 118t88.5 95.5t112.5 66.5v-828z" />
    <glyph glyph-name="uni204D" unicode="&#x204d;" horiz-adv-x="490" 
d="M84 714h36v-828h-36v828zM165 714q61 -25 112.5 -66.5t88.5 -95.5t57.5 -118t20.5 -134t-21 -133.5t-58 -117.5t-88 -96t-112 -67v828z" />
    <glyph glyph-name="uni204D" unicode="&#xe104;" horiz-adv-x="490" 
d="M84 714h36v-828h-36v828zM165 714q61 -25 112.5 -66.5t88.5 -95.5t57.5 -118t20.5 -134t-21 -133.5t-58 -117.5t-88 -96t-112 -67v828z" />
    <glyph glyph-name="uni204E" unicode="&#x204e;" 
d="M661 363l-137 -63l134 -61l-47 -80l-121 87l11 -144h-86l12 144l-120 -84l-48 79l136 59l-134 60l44 80l122 -88l-12 149h86l-11 -149l121 90z" />
    <glyph glyph-name="uni204E" unicode="&#xe20d;" 
d="M661 363l-137 -63l134 -61l-47 -80l-121 87l11 -144h-86l12 144l-120 -84l-48 79l136 59l-134 60l44 80l122 -88l-12 149h86l-11 -149l121 90z" />
    <glyph glyph-name="uni2051" unicode="&#x2051;" horiz-adv-x="380" 
d="M204 450l7 -82h-44l8 82l-69 -46l-24 38l78 34l-77 35l21 39l71 -49l-8 85h44l-7 -85l70 50l24 -39l-78 -36l77 -35l-24 -39zM204 96l7 -82h-44l8 82l-69 -47l-24 39l78 34l-77 34l21 40l71 -50l-8 86h44l-7 -86l70 51l24 -39l-78 -36l77 -35l-24 -40z" />
    <glyph glyph-name="uni2051" unicode="&#xe0e4;" horiz-adv-x="380" 
d="M204 450l7 -82h-44l8 82l-69 -46l-24 38l78 34l-77 35l21 39l71 -49l-8 85h44l-7 -85l70 50l24 -39l-78 -36l77 -35l-24 -39zM204 96l7 -82h-44l8 82l-69 -47l-24 39l78 34l-77 34l21 40l71 -50l-8 86h44l-7 -86l70 51l24 -39l-78 -36l77 -35l-24 -40z" />
    <glyph glyph-name="uni2074" unicode="&#x2074;" horiz-adv-x="430" 
d="M233 498v123q-17 -32 -38 -60t-41 -63h79zM311 369q0 -23 -40 -23q-38 0 -38 23v55h-168v65l153 264h93v-255h35q23 0 23 -37t-23 -37h-35v-55z" />
    <glyph glyph-name="uni207A" unicode="&#x207a;" horiz-adv-x="380" 
d="M336 486h-113v-113h-73v113h-114v73h114v114h73v-114h113v-73z" />
    <glyph glyph-name="uni207B" unicode="&#x207b;" horiz-adv-x="380" 
d="M36 559h300v-73h-300v73z" />
    <glyph glyph-name="uni207C" unicode="&#x207c;" horiz-adv-x="380" 
d="M52 616h268v-71h-268v71zM52 493h268v-71h-268v71z" />
    <glyph glyph-name="uni207D" unicode="&#x207d;" horiz-adv-x="300" 
d="M175 312q-12 16 -26 37.5t-25.5 48t-19 58t-7.5 66.5q0 36 7.5 67t19 58t25.5 48.5t26 37.5h67q-38 -63 -53.5 -114.5t-15.5 -96.5t16.5 -98t54.5 -112h-69z" />
    <glyph glyph-name="uni207E" unicode="&#x207e;" horiz-adv-x="300" 
d="M196 522q0 -35 -7.5 -66.5t-19 -58t-25.5 -48t-26 -37.5l-68 -1q38 59 54 112.5t16 98.5t-15.5 96.5t-53.5 114.5h67q12 -16 26 -37.5t25.5 -48.5t19 -58t7.5 -67z" />
    <glyph glyph-name="uni207F" unicode="&#x207f;" horiz-adv-x="430" 
d="M55 714h90v-19q15 13 37.5 21.5t56.5 8.5q30 0 54.5 -10t42.5 -28.5t28 -43.5t10 -55v-222q0 -14 -13 -19.5t-33 -5.5q-21 0 -34 5.5t-13 19.5v227q0 27 -20.5 39t-47.5 12q-26 0 -46 -11.5t-20 -25.5v-241q0 -14 -13 -19.5t-33 -5.5t-33 5.5t-13 19.5v348z" />
    <glyph glyph-name="uni2081" unicode="&#x2081;" horiz-adv-x="430" 
d="M187 174q-17 -8 -35.5 -15.5t-31.5 -12.5v74l79 33h68v-384q0 -23 -40 -23t-40 23v305z" />
    <glyph glyph-name="uni2082" unicode="&#x2082;" horiz-adv-x="430" 
d="M328 -77q23 0 23 -36t-23 -36h-230v63l86 94q12 12 25.5 27.5t25 32t19 33.5t7.5 34q0 29 -15.5 40t-41.5 11q-17 0 -36 -4.5t-54 -15.5v72q18 7 40 14t50 7q27 0 52 -7.5t44 -22.5t30.5 -38.5t11.5 -55.5q0 -23 -8 -46t-21.5 -45t-30 -42t-32.5 -37l-39 -42h117z" />
    <glyph glyph-name="uni2083" unicode="&#x2083;" horiz-adv-x="430" 
d="M191 -156q-26 0 -50 4t-43 9v77q17 -6 42.5 -11t45.5 -5q30 0 54 11.5t24 40.5q0 23 -13.5 37t-38.5 14h-77v72h73q22 0 33 12.5t11 33.5q0 22 -12.5 34.5t-42.5 12.5q-17 0 -42 -5.5t-53 -15.5v75q49 19 95 19q60 0 98 -28.5t38 -91.5q0 -23 -10 -44.5t-26 -35.5
q23 -15 35.5 -38.5t12.5 -51.5q0 -33 -12 -56.5t-32.5 -39t-48.5 -22.5t-61 -7z" />
    <glyph glyph-name="uni2084" unicode="&#x2084;" horiz-adv-x="430" 
d="M233 -2v123q-17 -32 -38 -60t-41 -63h79zM311 -131q0 -23 -40 -23q-38 0 -38 23v55h-168v65l153 264h93v-255h35q23 0 23 -37t-23 -37h-35v-55z" />
    <glyph glyph-name="uni20A9" unicode="&#x20a9;" horiz-adv-x="989" 
d="M426 676h126l60 -279h142l68 310h112l-70 -310h61q25 0 25 -49q0 -26 -6 -37t-19 -11h-83l-62 -277q-8 -35 -31 -48.5t-63 -13.5q-32 0 -58.5 11t-34.5 49l-61 279h-87l-60 -279q-9 -38 -35 -49t-58 -11q-40 0 -63.5 13.5t-31.5 48.5l-62 277h-96v97h74l-69 310h111
l68 -310h142zM259 235q7 -34 17 -74t19 -83q8 38 17.5 80.5t17.5 76.5l14 65h-99zM647 235l18 -76.5t18 -80.5q9 43 18.5 83t16.5 74l14 65h-99zM489 520q-6 -32 -12 -63t-11 -60h46q-5 30 -10.5 60t-12.5 63z" />
    <glyph glyph-name="Euro" unicode="&#x20ac;" 
d="M149 273h103q-2 16 -3 32.5t-1 33.5v24t2 23h-101v97h119q18 58 49.5 102t72 74t89 45t101.5 15q45 0 90.5 -11.5t75.5 -30.5q12 -8 15 -17t-8 -35q-12 -28 -20 -33t-22 1q-35 14 -64 21.5t-66 7.5q-68 0 -117.5 -38t-75.5 -101h153q25 0 25 -48q0 -49 -25 -49h-179
q-1 -11 -1.5 -23t-0.5 -24q0 -17 1.5 -33.5t3.5 -32.5h176q25 0 25 -49q0 -26 -5.5 -37t-19.5 -11h-145q29 -55 76.5 -88.5t113.5 -33.5q35 0 69 8.5t66 21.5q13 5 22 0.5t20 -32.5q10 -27 7.5 -36t-14.5 -16q-30 -19 -72.5 -31t-98.5 -12q-58 0 -107 16t-88.5 45t-68 69
t-46.5 89h-126v97z" />
    <glyph glyph-name="uni2103" unicode="&#x2103;" 
d="M244 626q0 21 -13.5 36t-35.5 15t-35.5 -15t-13.5 -36t13.5 -36t35.5 -15t35.5 15t13.5 36zM318 626q0 -49 -35 -79.5t-88 -30.5t-88 30.5t-35 79.5t35 79.5t88 30.5t88 -30.5t35 -79.5zM700 -43q-91 0 -160 29t-115.5 80.5t-70 121.5t-23.5 152q0 96 29.5 167.5
t79.5 119t117.5 71t142.5 23.5q62 0 105.5 -12.5t78.5 -32.5q12 -7 15 -16.5t-10 -37.5q-12 -26 -20 -31.5t-20 -0.5q-21 8 -38 14t-34 10.5t-35.5 7t-40.5 2.5q-60 0 -107.5 -22t-81 -60t-51.5 -90t-18 -112t17 -112t49.5 -90.5t80.5 -61t111 -22.5q22 0 40.5 2.5t35.5 7
t34 10.5t38 14q12 5 20 1t20 -32q6 -15 8 -23.5t1.5 -14t-4.5 -9t-10 -6.5q-35 -20 -78.5 -33.5t-105.5 -13.5z" />
    <glyph glyph-name="uni2109" unicode="&#x2109;" 
d="M244 626q0 21 -13.5 36t-35.5 15t-35.5 -15t-13.5 -36t13.5 -36t35.5 -15t35.5 15t13.5 36zM318 626q0 -49 -35 -79.5t-88 -30.5t-88 30.5t-35 79.5t35 79.5t88 30.5t88 -30.5t35 -79.5zM511 -16q0 -23 -56 -23q-24 0 -40 5t-16 18v723h459q24 0 24 -48q0 -49 -24 -49
h-347v-210h335q24 0 24 -49t-24 -49h-335v-318z" />
    <glyph glyph-name="uni2113" unicode="&#x2113;" 
d="M666 43q-27 -48 -66.5 -80t-90.5 -32q-36 0 -67.5 17t-53.5 52q-4 -2 -14.5 -5.5t-25 -7t-32 -6t-33.5 -2.5l-32 83q27 3 51 9t38 11q-29 68 -38 138t-9 145q0 70 14 134t39.5 113.5t61 79t79.5 29.5q39 0 64.5 -19t42 -50t24 -70t10 -78t0.5 -75.5t-5 -61.5
q-8 -59 -23.5 -109.5t-35 -91t-42 -70.5t-43.5 -49q7 -24 35 -24q14 0 26.5 7.5t23 18.5t19 23t13.5 21q13 21 48 -7q32 -25 22 -43zM486 628q-14 0 -29 -23t-27 -60t-20 -84t-8 -96q0 -30 0.5 -61.5t3.5 -61.5t8.5 -57.5t15.5 -49.5q14 14 27.5 38t25 55t20 68t12.5 76
q1 14 3.5 38.5t3.5 53t0.5 58t-4.5 53t-11.5 38.5t-20.5 15z" />
    <glyph glyph-name="uni2116" unicode="&#x2116;" 
d="M45 707h136l183 -519v519h110v-737h-120l-198 532v-518q0 -12 -15 -17.5t-41 -5.5t-40.5 5.5t-14.5 17.5v723zM892 289q0 -43 -14.5 -77t-40 -58t-60 -37t-74.5 -13t-74.5 13t-60 37t-40 58t-14.5 77t14.5 77t40 58t60 37t74.5 13t74.5 -13t60 -37t40 -58t14.5 -77z
M892 62q20 0 20 -41t-20 -41h-375v82h375zM783 289q0 42 -21 68.5t-59 26.5t-59 -26.5t-21 -68.5t21 -68.5t59 -26.5t59 26.5t21 68.5z" />
    <glyph glyph-name="uni2121" unicode="&#x2121;" 
d="M537 -43q-54 0 -98 17t-75.5 51.5t-48.5 86.5t-17 122q0 63 15.5 114.5t42.5 88t65 57t83 20.5q56 0 95 -24t63.5 -63.5t35.5 -92t11 -109.5q0 -21 -10 -30.5t-27 -9.5h-263q5 -62 36.5 -98.5t88.5 -36.5q29 0 50.5 7.5t43.5 16.5q14 6 24.5 -0.5t18.5 -30.5
q13 -40 -7 -52q-24 -14 -56 -24t-71 -10zM11 610v97h340q27 0 27 -48q0 -49 -27 -49h-107v-626q0 -12 -14.5 -17.5t-40.5 -5.5t-41 5.5t-15 17.5v626h-122zM754 728h109v-744q0 -13 -15.5 -18t-38.5 -5q-26 0 -40.5 6t-14.5 17v744zM598 281q-4 63 -26.5 101.5t-67.5 38.5
q-24 0 -41.5 -12.5t-28.5 -32.5t-17.5 -45t-8.5 -50h190z" />
    <glyph glyph-name="trademark" unicode="&#x2122;" 
d="M617 498l97 215h90v-365q0 -24 -42 -24q-18 0 -29 5t-11 19v204l-61 -128q-8 -16 -17 -24.5t-28 -8.5q-18 0 -28 10t-17 23l-62 129v-205q0 -24 -39 -24q-19 0 -30.5 6.5t-11.5 17.5v365h90zM101 638v75h274q24 0 24 -37q0 -38 -24 -38h-87v-290q0 -24 -41 -24t-41 24
v290h-105z" />
    <glyph glyph-name="Omega" unicode="&#x2126;" 
d="M229 53h113v45q-33 14 -64 41t-55 65t-38.5 86t-14.5 105q0 66 21 124.5t59.5 103t91.5 70.5t118 26q64 0 117.5 -26t92 -70.5t59.5 -103t21 -124.5q0 -57 -14.5 -105t-38.5 -86t-55 -65t-64 -41v-45h113q22 0 22 -41q0 -42 -22 -42h-169q-14 0 -28.5 8t-14.5 25v106
q0 31 8.5 44.5t18.5 17.5q67 29 100.5 82t33.5 143q0 51 -13 93.5t-36.5 73.5t-57 48t-73.5 17q-41 0 -74 -17t-56.5 -48t-36.5 -73.5t-13 -93.5q0 -90 33.5 -143t100.5 -82q10 -4 18.5 -17.5t8.5 -44.5v-106q0 -17 -14.5 -25t-28.5 -8h-169v83z" />
    <glyph glyph-name="uni212B" unicode="&#x212b;" 
d="M661 -30l-52 154h-296l-54 -154h-115l253 686q-28 14 -44 39t-16 58q0 24 9.5 46t26 38.5t39 26.5t48.5 10t48.5 -10t39 -26.5t26 -38.5t9.5 -46q0 -32 -16 -57t-43 -39l252 -687h-115zM463 545l-117 -324h230zM509 758q0 21 -13.5 36t-35.5 15t-35.5 -15t-13.5 -36
q0 -20 13 -35.5t36 -15.5t36 15.5t13 35.5z" />
    <glyph glyph-name="onethird" unicode="&#x2153;" 
d="M220 -85h-93l524 749h93zM172 620q-17 -6 -38 -14.5t-35 -13.5v74l85 34h73v-399q0 -22 -43 -22q-42 0 -42 22v319zM670 -114q-28 0 -54 4.5t-44 9.5v77q18 -6 44.5 -12t49.5 -6q35 0 61 13t26 44q0 24 -15.5 39.5t-44.5 15.5h-83v73h81q23 0 37 13t14 36t-15.5 37.5
t-47.5 14.5q-19 0 -45.5 -6.5t-58.5 -14.5v73q26 9 52 14.5t52 5.5q63 0 104.5 -29.5t41.5 -94.5q0 -26 -11 -47.5t-28 -35.5q26 -14 39.5 -39.5t13.5 -54.5q0 -35 -13 -59.5t-36 -40t-53.5 -23t-66.5 -7.5z" />
    <glyph glyph-name="twothirds" unicode="&#x2154;" 
d="M260 -85h-93l524 749h93zM690 -114q-28 0 -54 4.5t-44 9.5v77q18 -6 44.5 -12t49.5 -6q35 0 61 13t26 44q0 24 -15.5 39.5t-44.5 15.5h-83v73h81q23 0 37 13t14 36t-15.5 37.5t-47.5 14.5q-19 0 -45.5 -6.5t-58.5 -14.5v73q26 9 52 14.5t52 5.5q63 0 104.5 -29.5
t41.5 -94.5q0 -26 -11 -47.5t-28 -35.5q26 -14 39.5 -39.5t13.5 -54.5q0 -35 -13 -59.5t-36 -40t-53.5 -23t-66.5 -7.5zM254 578q0 31 -18 44.5t-47 13.5q-22 0 -46 -7t-51 -15v73q19 8 43.5 14.5t53.5 6.5q30 0 57 -7.5t47.5 -23.5t33 -40.5t12.5 -58.5q0 -23 -8.5 -44.5
t-21.5 -42t-29 -38.5t-30 -34q-9 -10 -15.5 -17t-12.5 -14t-13 -14t-16 -17h132q24 0 24 -36t-24 -36h-250v64q37 38 57.5 59.5t31 32.5t14 15t5.5 6q12 14 24.5 28t23 28.5t17 29.5t6.5 30z" />
    <glyph glyph-name="oneeighth" unicode="&#x215b;" 
d="M210 -85h-93l524 749h93zM172 620q-17 -6 -38 -14.5t-35 -13.5v74l85 34h73v-399q0 -22 -43 -22q-42 0 -42 22v319zM686 -37q28 0 47 15t19 39t-17.5 41.5t-48.5 17.5t-49 -17.5t-18 -41.5t19.5 -39t47.5 -15zM686 244q-28 0 -43.5 -13.5t-15.5 -36.5q0 -22 16.5 -37
t42.5 -15t42.5 15t16.5 37q0 23 -15.5 36.5t-43.5 13.5zM686 -111q-32 0 -59.5 9t-47.5 25.5t-31.5 40t-11.5 52.5q0 33 15 57t35 38q-17 14 -30 35t-13 50q0 54 39.5 86.5t103.5 32.5t103 -32.5t39 -86.5q0 -29 -13 -50t-30 -35q20 -14 35.5 -37.5t15.5 -57.5
q0 -29 -11.5 -52.5t-31.5 -40t-47.5 -25.5t-59.5 -9z" />
    <glyph glyph-name="threeeighths" unicode="&#x215c;" 
d="M250 -85h-93l524 749h93zM686 -37q28 0 47 15t19 39t-17.5 41.5t-48.5 17.5t-49 -17.5t-18 -41.5t19.5 -39t47.5 -15zM686 244q-28 0 -43.5 -13.5t-15.5 -36.5q0 -22 16.5 -37t42.5 -15t42.5 15t16.5 37q0 23 -15.5 36.5t-43.5 13.5zM686 -111q-32 0 -59.5 9t-47.5 25.5
t-31.5 40t-11.5 52.5q0 33 15 57t35 38q-17 14 -30 35t-13 50q0 54 39.5 86.5t103.5 32.5t103 -32.5t39 -86.5q0 -29 -13 -50t-30 -35q20 -14 35.5 -37.5t15.5 -57.5q0 -29 -11.5 -52.5t-31.5 -40t-47.5 -25.5t-59.5 -9zM203 277q-28 0 -54 4.5t-44 9.5v77q18 -6 44.5 -12
t49.5 -6q35 0 61 13t26 44q0 24 -15.5 39.5t-44.5 15.5h-83v73h81q23 0 37 13t14 36t-15.5 37.5t-47.5 14.5q-19 0 -45.5 -6.5t-58.5 -14.5v73q26 9 52 14.5t52 5.5q63 0 104.5 -29.5t41.5 -94.5q0 -26 -11 -47.5t-28 -35.5q26 -14 39.5 -39.5t13.5 -54.5q0 -35 -13 -59.5
t-36 -40t-53.5 -23t-66.5 -7.5z" />
    <glyph glyph-name="fiveeighths" unicode="&#x215d;" 
d="M196 635v-73h10q66 0 104.5 -30.5t38.5 -99.5q0 -35 -12.5 -61.5t-34 -44.5t-50.5 -27t-62 -9q-27 0 -49.5 4.5t-42.5 9.5v74q22 -5 42.5 -9t46.5 -4q29 0 53 17t24 49q0 30 -17 44.5t-45 14.5h-91v217h195q23 0 23 -36t-23 -36h-110zM228 -85h-93l524 749h93zM686 -37
q28 0 47 15t19 39t-17.5 41.5t-48.5 17.5t-49 -17.5t-18 -41.5t19.5 -39t47.5 -15zM686 244q-28 0 -43.5 -13.5t-15.5 -36.5q0 -22 16.5 -37t42.5 -15t42.5 15t16.5 37q0 23 -15.5 36.5t-43.5 13.5zM686 -111q-32 0 -59.5 9t-47.5 25.5t-31.5 40t-11.5 52.5q0 33 15 57
t35 38q-17 14 -30 35t-13 50q0 54 39.5 86.5t103.5 32.5t103 -32.5t39 -86.5q0 -29 -13 -50t-30 -35q20 -14 35.5 -37.5t15.5 -57.5q0 -29 -11.5 -52.5t-31.5 -40t-47.5 -25.5t-59.5 -9z" />
    <glyph glyph-name="seveneighths" unicode="&#x215e;" 
d="M108 635v72h258v-57l-137 -358h-89l129 343h-161zM208 -85h-93l524 749h93zM686 -37q28 0 47 15t19 39t-17.5 41.5t-48.5 17.5t-49 -17.5t-18 -41.5t19.5 -39t47.5 -15zM686 244q-28 0 -43.5 -13.5t-15.5 -36.5q0 -22 16.5 -37t42.5 -15t42.5 15t16.5 37q0 23 -15.5 36.5
t-43.5 13.5zM686 -111q-32 0 -59.5 9t-47.5 25.5t-31.5 40t-11.5 52.5q0 33 15 57t35 38q-17 14 -30 35t-13 50q0 54 39.5 86.5t103.5 32.5t103 -32.5t39 -86.5q0 -29 -13 -50t-30 -35q20 -14 35.5 -37.5t15.5 -57.5q0 -29 -11.5 -52.5t-31.5 -40t-47.5 -25.5t-59.5 -9z" />
    <glyph glyph-name="uni2160" unicode="&#x2160;" 
d="M312 -30v97h88v543h-88v97h271q24 0 24 -48q0 -49 -24 -49h-71v-543h71q24 0 24 -48q0 -49 -24 -49h-271z" />
    <glyph glyph-name="uni2161" unicode="&#x2161;" 
d="M201 -30v97h78v543h-78v97h493q24 0 24 -48q0 -49 -24 -49h-61v-543h61q24 0 24 -48q0 -49 -24 -49h-493zM391 610v-543h130v543h-130z" />
    <glyph glyph-name="uni2162" unicode="&#x2162;" 
d="M129 -30v97h63v543h-63v97h639q23 0 23 -48q0 -49 -23 -49h-47v-543h47q23 0 23 -48q0 -49 -23 -49h-639zM509 610v-543h107v543h-107zM297 610v-543h107v543h-107z" />
    <glyph glyph-name="uni2163" unicode="&#x2163;" 
d="M367 707h115l110 -505q7 -28 12.5 -57t13.5 -58q9 29 14.5 57t12.5 58l111 505h113l-169 -696q-8 -28 -28.5 -39t-52.5 -11t-54 11t-30 39zM70 -30v97h78v543h-78v97h251q24 0 24 -48q0 -49 -24 -49h-61v-543h61q24 0 24 -48q0 -49 -24 -49h-251z" />
    <glyph glyph-name="uni2164" unicode="&#x2164;" 
d="M461 -39q-35 0 -56.5 9.5t-31.5 40.5l-220 696h117l152 -505q6 -20 10.5 -34.5t9 -28t9 -27.5t10.5 -32q6 18 10.5 32t8.5 27.5t8.5 28t10.5 34.5l153 505h115l-221 -696q-10 -31 -30 -40.5t-55 -9.5z" />
    <glyph glyph-name="uni2165" unicode="&#x2165;" 
d="M53 707h115l110 -505q7 -28 12.5 -57t13.5 -58q9 29 14.5 57t12.5 58l111 505h113l-169 -696q-8 -28 -28.5 -39t-52.5 -11t-54 11t-30 39zM580 -30v97h78v543h-78v97h251q24 0 24 -48q0 -49 -24 -49h-61v-543h61q24 0 24 -48q0 -49 -24 -49h-251z" />
    <glyph glyph-name="uni2166" unicode="&#x2166;" 
d="M5 707h111l76 -436l5 -30t6 -39t6.5 -43.5t6.5 -41.5q8 41 13.5 82t11.5 72l77 436h109l-129 -696q-6 -29 -27.5 -39.5t-53.5 -10.5t-55 10.5t-29 39.5zM448 -30v97h63v543h-63v97h427q23 0 23 -48q0 -49 -23 -49h-47v-543h47q23 0 23 -48q0 -49 -23 -49h-427zM616 610
v-543h107v543h-107z" />
    <glyph glyph-name="uni2167" unicode="&#x2167;" 
d="M368 -30v97h57v543h-37v1l-109 -600q-6 -29 -25.5 -39.5t-48.5 -10.5t-49.5 10.5t-26.5 39.5l-127 696h104l72 -430q8 -45 15.5 -91t10.5 -85q5 38 12.5 85t15.5 91l73 430h582q21 0 21 -48q0 -49 -21 -49h-52v-543h52q21 0 21 -48q0 -49 -21 -49h-519zM677 610v-543h63
v543h-63zM520 610v-543h62v543h-62z" />
    <glyph glyph-name="uni2168" unicode="&#x2168;" 
d="M779 -30l-153 279q-38 -68 -76.5 -139.5t-76.5 -139.5h-126l219 379q-51 86 -103 179t-103 179h126l140 -259q35 60 70 129.5t70 129.5h127l-208 -358q55 -91 111 -189.5t111 -189.5h-128zM61 -30v97h78v543h-78v97h251q24 0 24 -48q0 -49 -24 -49h-61v-543h61
q24 0 24 -48q0 -49 -24 -49h-251z" />
    <glyph glyph-name="uni2169" unicode="&#x2169;" 
d="M633 -30l-174 286l-174 -286h-132l244 379l-229 358h131l160 -265l160 265h132l-231 -358l247 -379h-134z" />
    <glyph glyph-name="uni2170" unicode="&#x2170;" 
d="M404 511h109v-527q0 -13 -14.5 -18t-38.5 -5q-25 0 -40.5 5t-15.5 18v527zM389 666q0 29 20.5 49.5t49.5 20.5q30 0 50.5 -20.5t20.5 -49.5t-20.5 -50t-50.5 -21q-29 0 -49.5 21t-20.5 50z" />
    <glyph glyph-name="uni2171" unicode="&#x2171;" 
d="M268 511h109v-527q0 -13 -14.5 -18t-38.5 -5q-25 0 -40.5 5t-15.5 18v527zM253 666q0 29 20.5 49.5t49.5 20.5q30 0 50.5 -20.5t20.5 -49.5t-20.5 -50t-50.5 -21q-29 0 -49.5 21t-20.5 50zM539 511h109v-527q0 -13 -14.5 -18t-38.5 -5q-25 0 -40.5 5t-15.5 18v527z
M524 666q0 29 20.5 49.5t49.5 20.5q30 0 50.5 -20.5t20.5 -49.5t-20.5 -50t-50.5 -21q-29 0 -49.5 21t-20.5 50z" />
    <glyph glyph-name="uni2172" unicode="&#x2172;" 
d="M634 511h109v-527q0 -13 -14.5 -18t-38.5 -5q-25 0 -40.5 5t-15.5 18v527zM619 666q0 29 20.5 49.5t49.5 20.5q30 0 50.5 -20.5t20.5 -49.5t-20.5 -50t-50.5 -21q-29 0 -49.5 21t-20.5 50zM404 511h109v-527q0 -13 -14.5 -18t-38.5 -5q-25 0 -40.5 5t-15.5 18v527z
M389 666q0 29 20.5 49.5t49.5 20.5q30 0 50.5 -20.5t20.5 -49.5t-20.5 -50t-50.5 -21q-29 0 -49.5 21t-20.5 50zM174 511h109v-527q0 -13 -14.5 -18t-38.5 -5q-25 0 -40.5 5t-15.5 18v527zM159 666q0 29 20.5 49.5t49.5 20.5q30 0 50.5 -20.5t20.5 -49.5t-20.5 -50
t-50.5 -21q-29 0 -49.5 21t-20.5 50z" />
    <glyph glyph-name="uni2173" unicode="&#x2173;" 
d="M589 67q11 33 20.5 61t19.5 57l99 315h112l-169 -489q-11 -30 -29 -40t-55 -10q-35 0 -52.5 10t-28.5 40l-169 489h112l99 -315q10 -29 19.5 -57t20.5 -61h1zM151 511h109v-527q0 -13 -14.5 -18t-38.5 -5q-25 0 -40.5 5t-15.5 18v527zM136 666q0 29 20.5 49.5t49.5 20.5
q30 0 50.5 -20.5t20.5 -49.5t-20.5 -50t-50.5 -21q-29 0 -49.5 21t-20.5 50z" />
    <glyph glyph-name="uni2174" unicode="&#x2174;" 
d="M460 67q11 33 20.5 61t19.5 57l99 315h112l-169 -489q-11 -30 -29 -40t-55 -10q-35 0 -52.5 10t-28.5 40l-169 489h112l99 -315q10 -29 19.5 -57t20.5 -61h1z" />
    <glyph glyph-name="uni2175" unicode="&#x2175;" 
d="M344 67q11 33 20.5 61t19.5 57l99 315h112l-169 -489q-11 -30 -29 -40t-55 -10q-35 0 -52.5 10t-28.5 40l-169 489h112l99 -315q10 -29 19.5 -57t20.5 -61h1zM664 511h109v-527q0 -13 -14.5 -18t-38.5 -5q-25 0 -40.5 5t-15.5 18v527zM649 666q0 29 20.5 49.5t49.5 20.5
q30 0 50.5 -20.5t20.5 -49.5t-20.5 -50t-50.5 -21q-29 0 -49.5 21t-20.5 50z" />
    <glyph glyph-name="uni2176" unicode="&#x2176;" 
d="M274 67q11 33 17.5 61t16.5 57l85 315h112l-149 -489q-11 -30 -29 -40t-55 -10q-35 0 -52.5 10t-28.5 40l-149 489h112l85 -315q8 -29 16 -57t18 -61h1zM734 511h109v-527q0 -13 -14.5 -18t-38.5 -5q-25 0 -40.5 5t-15.5 18v527zM719 666q0 29 20.5 49.5t49.5 20.5
q30 0 50.5 -20.5t20.5 -49.5t-20.5 -50t-50.5 -21q-29 0 -49.5 21t-20.5 50zM544 511h109v-527q0 -13 -14.5 -18t-38.5 -5q-25 0 -40.5 5t-15.5 18v527zM529 666q0 29 20.5 49.5t49.5 20.5q30 0 50.5 -20.5t20.5 -49.5t-20.5 -50t-50.5 -21q-29 0 -49.5 21t-20.5 50z" />
    <glyph glyph-name="uni2177" unicode="&#x2177;" 
d="M214 67q9 37 15 64.5t11 53.5l63 315h112l-119 -489q-8 -31 -27.5 -40.5t-56.5 -9.5q-35 0 -54 9.5t-27 40.5l-119 489h112l63 -315q5 -25 11 -53.5t15 -64.5h1zM444 511h109v-527q0 -13 -14.5 -18t-38.5 -5q-25 0 -40.5 5t-15.5 18v527zM429 666q0 29 20.5 49.5
t49.5 20.5q30 0 50.5 -20.5t20.5 -49.5t-20.5 -50t-50.5 -21q-29 0 -49.5 21t-20.5 50zM603 511h109v-527q0 -13 -14.5 -18t-38.5 -5q-25 0 -40.5 5t-15.5 18v527zM588 666q0 29 20.5 49.5t49.5 20.5q30 0 50.5 -20.5t20.5 -49.5t-20.5 -50t-50.5 -21q-29 0 -49.5 21
t-20.5 50zM763 511h109v-527q0 -13 -14.5 -18t-38.5 -5q-25 0 -40.5 5t-15.5 18v527zM748 666q0 29 20.5 49.5t49.5 20.5q30 0 50.5 -20.5t20.5 -49.5t-20.5 -50t-50.5 -21q-29 0 -49.5 21t-20.5 50z" />
    <glyph glyph-name="uni2178" unicode="&#x2178;" 
d="M711 -30l-118 182l-119 -182h-126l185 269l-177 261h128l109 -178l110 178h125l-176 -261l184 -269h-125zM162 511h109v-527q0 -13 -14.5 -18t-38.5 -5q-25 0 -40.5 5t-15.5 18v527zM147 666q0 29 20.5 49.5t49.5 20.5q30 0 50.5 -20.5t20.5 -49.5t-20.5 -50t-50.5 -21
q-29 0 -49.5 21t-20.5 50z" />
    <glyph glyph-name="uni2179" unicode="&#x2179;" 
d="M579 -30l-118 182l-119 -182h-126l185 269l-177 261h128l109 -178l110 178h125l-176 -261l184 -269h-125z" />
    <glyph glyph-name="arrowleft" unicode="&#x2190;" 
d="M194 289l45 -127l-229 167l229 164l-45 -122h716v-82h-716z" />
    <glyph glyph-name="arrowup" unicode="&#x2191;" 
d="M498 -122h-82v716l-122 -45l164 229l167 -229l-127 45v-716z" />
    <glyph glyph-name="arrowright" unicode="&#x2192;" 
d="M10 371h716l-46 122l230 -164l-229 -167l45 127h-716v82z" />
    <glyph glyph-name="arrowdown" unicode="&#x2193;" 
d="M498 62l127 45l-167 -229l-164 229l122 -45v716h82v-716z" />
    <glyph glyph-name="arrowboth" unicode="&#x2194;" 
d="M726 371l-46 122l230 -164l-228 -166l44 126h-532l44 -126l-228 166l229 164l-45 -122h532z" />
    <glyph glyph-name="arrowupdn" unicode="&#x2195;" 
d="M502 72l122 45l-163 -229l-166 228l125 -44v513l-125 -45l166 229l163 -230l-122 46v-513z" />
    <glyph glyph-name="uni2196" unicode="&#x2196;" 
d="M142 583l-58 -122l-42 281l276 -46l-118 -55l678 -672l-58 -58z" />
    <glyph glyph-name="uni2197" unicode="&#x2197;" 
d="M716 640l-122 57l281 43l-46 -276l-55 118l-672 -678l-58 58z" />
    <glyph glyph-name="uni2198" unicode="&#x2198;" 
d="M778 76l57 122l43 -282l-278 47l120 55l-678 672l58 59z" />
    <glyph glyph-name="uni2199" unicode="&#x2199;" 
d="M204 12l122 -58l-283 -41l48 276l55 -119l672 679l58 -59z" />
    <glyph glyph-name="uni219C" unicode="&#x219c;" 
d="M365 479l-133 139l133 138v-123h16h30h35h30q43 0 80.5 -9t65.5 -29t45 -52t19 -78q2 -59 -22.5 -98t-62.5 -67.5t-82.5 -51t-82.5 -48t-63 -58.5t-23 -82q2 -50 26.5 -84t60 -55t77 -31.5t77 -14.5t59 -4h23.5v-30l-26.5 -0.5t-66 3t-85.5 15t-86 35.5t-67.5 63.5
t-29.5 100.5q-2 58 23.5 97.5t64.5 68t84.5 51t83.5 48.5t62 59t20 83q-6 71 -48.5 104.5t-127.5 33.5h-30h-35.5t-30 -0.5t-13.5 -0.5v-123z" />
    <glyph glyph-name="uni219C" unicode="&#xe3ec;" 
d="M365 479l-133 139l133 138v-123h16h30h35h30q43 0 80.5 -9t65.5 -29t45 -52t19 -78q2 -59 -22.5 -98t-62.5 -67.5t-82.5 -51t-82.5 -48t-63 -58.5t-23 -82q2 -50 26.5 -84t60 -55t77 -31.5t77 -14.5t59 -4h23.5v-30l-26.5 -0.5t-66 3t-85.5 15t-86 35.5t-67.5 63.5
t-29.5 100.5q-2 58 23.5 97.5t64.5 68t84.5 51t83.5 48.5t62 59t20 83q-6 71 -48.5 104.5t-127.5 33.5h-30h-35.5t-30 -0.5t-13.5 -0.5v-123z" />
    <glyph glyph-name="uni219D" unicode="&#x219d;" 
d="M555 602l-110 1q-85 0 -127.5 -33.5t-48.5 -104.5q-4 -50 20 -83t62 -59t83.5 -48.5t84.5 -51t64.5 -68t23.5 -97.5q-2 -60 -29 -100t-67.5 -64t-86.5 -35.5t-85.5 -15t-66 -3l-26.5 0.5v30h23.5t59 4t77 14.5t77 31.5t60 54.5t26.5 84.5q2 49 -22.5 82t-62.5 58.5
t-83 48t-83 51t-62.5 67.5t-22.5 98q2 46 19 78t45 52t65.5 29t80.5 9h30h35.5h30.5h16v123l132 -138l-132 -139v123z" />
    <glyph glyph-name="uni219D" unicode="&#xe3eb;" 
d="M555 602l-110 1q-85 0 -127.5 -33.5t-48.5 -104.5q-4 -50 20 -83t62 -59t83.5 -48.5t84.5 -51t64.5 -68t23.5 -97.5q-2 -60 -29 -100t-67.5 -64t-86.5 -35.5t-85.5 -15t-66 -3l-26.5 0.5v30h23.5t59 4t77 14.5t77 31.5t60 54.5t26.5 84.5q2 49 -22.5 82t-62.5 58.5
t-83 48t-83 51t-62.5 67.5t-22.5 98q2 46 19 78t45 52t65.5 29t80.5 9h30h35.5h30.5h16v123l132 -138l-132 -139v123z" />
    <glyph glyph-name="uni21B0" unicode="&#x21b0;" 
d="M857 536v-706h-45v661h-597v-143l-157 164l157 163v-139h642z" />
    <glyph glyph-name="uni21B1" unicode="&#x21b1;" 
d="M68 530h631v140l157 -163l-157 -164v142h-586v-655h-45v700z" />
    <glyph glyph-name="uni21B2" unicode="&#x21b2;" 
d="M861 49h-649v-140l-157 161l157 165v-142h604v677h45v-721z" />
    <glyph glyph-name="uni21B3" unicode="&#x21b3;" 
d="M70 56v714h44v-669h583v141l157 -165l-157 -161v140h-627z" />
    <glyph glyph-name="uni21B4" unicode="&#x21b4;" 
d="M752 630v-648h140l-161 -156l-164 156h141v603h-666v45h710z" />
    <glyph glyph-name="uni21B6" unicode="&#x21b6;" 
d="M725 -160h-33l1 701q0 35 -12 69t-34.5 60.5t-55 43t-74.5 16.5q-44 0 -79 -22.5t-57.5 -56t-31.5 -72t-1 -70.5h123l-139 -132l-138 132h124q-9 42 2 86.5t38 80.5t68 59.5t93 23.5q43 0 81 -17t66 -46t44 -69t16 -86z" />
    <glyph glyph-name="uni21B6" unicode="&#xe3e9;" 
d="M725 -160h-33l1 701q0 35 -12 69t-34.5 60.5t-55 43t-74.5 16.5q-44 0 -79 -22.5t-57.5 -56t-31.5 -72t-1 -70.5h123l-139 -132l-138 132h124q-9 42 2 86.5t38 80.5t68 59.5t93 23.5q43 0 81 -17t66 -46t44 -69t16 -86z" />
    <glyph glyph-name="uni21B7" unicode="&#x21b7;" 
d="M193 -160l1 701q0 46 16 86t44 69t66 46t81 17q52 0 93 -23.5t68 -59.5t38 -80.5t2 -86.5h124l-138 -132l-139 132h123q8 32 -1 70.5t-32 72t-58 56t-78 22.5q-42 0 -75 -16.5t-55.5 -43t-34 -60.5t-11.5 -69l-1 -701h-33z" />
    <glyph glyph-name="uni21B7" unicode="&#xe3ea;" 
d="M193 -160l1 701q0 46 16 86t44 69t66 46t81 17q52 0 93 -23.5t68 -59.5t38 -80.5t2 -86.5h124l-138 -132l-139 132h123q8 32 -1 70.5t-32 72t-58 56t-78 22.5q-42 0 -75 -16.5t-55.5 -43t-34 -60.5t-11.5 -69l-1 -701h-33z" />
    <glyph glyph-name="uni21BC" unicode="&#x21bc;" 
d="M21 271q23 20 47.5 40.5t53 42.5t63 47t78.5 55q34 23 65.5 37t59 21t50 9t39.5 2q-15 -8 -34.5 -18.5t-41 -25t-43 -32t-40.5 -38.5q-17 -18 -30.5 -33t-22 -25.5t-9.5 -16.5t7 -6h635v-59h-877z" />
    <glyph glyph-name="uni21C0" unicode="&#x21c0;" 
d="M21 271v59h635q16 0 -2.5 22t-52.5 59q-19 21 -40.5 38.5t-43 32t-41 25t-34.5 18.5q16 0 39 -2t50.5 -9t59 -21t65.5 -37q43 -30 78 -55t63.5 -47t53 -42.5t47.5 -40.5h-877z" />
    <glyph glyph-name="uni21C4" unicode="&#x21c4;" 
d="M898 465l-321 -138l109 103h-650v71h652l-111 103zM883 101h-650l109 -103l-321 139l321 139l-111 -104h652v-71z" />
    <glyph glyph-name="uni21C5" unicode="&#x21c5;" 
d="M435 428l-103 110v-671h-72v673l-103 -111l139 321zM763 174l-138 -322l-139 321l103 -111v672h72v-670z" />
    <glyph glyph-name="uni21CD" unicode="&#x21cd;" 
d="M886 280v-79h-323l-58 -180l-83 24l51 156h-226l89 -91l-57 -52l-265 269l269 271l53 -53l-89 -91h310l57 173l79 -27l-48 -146h241v-78h-266l-31 -96h297zM124 327l47 -47h328l32 96h-359z" />
    <glyph glyph-name="uni21CF" unicode="&#x21cf;" 
d="M265 21l-83 24l51 156h-209v79h235l32 96h-267v78h293l57 173l79 -27l-48 -146h258l-89 91l53 53l269 -271l-265 -269l-57 52l89 91h-340zM739 280l47 47l-48 49h-358l-31 -96h390z" />
    <glyph glyph-name="arrowdblleft" unicode="&#x21d0;" 
d="M886 280v-79h-639l89 -91l-57 -52l-265 269l269 271l53 -53l-89 -91h639v-78h-714l-48 -49l47 -47h715z" />
    <glyph glyph-name="arrowdblup" unicode="&#x21d1;" 
d="M884 306l-47 -46l-245 308v-713h-66v900zM394 755v-900h-66v713l-245 -308l-47 46z" />
    <glyph glyph-name="arrowdblup" unicode="&#x2963;" 
d="M884 306l-47 -46l-245 308v-713h-66v900zM394 755v-900h-66v713l-245 -308l-47 46z" />
    <glyph glyph-name="arrowdblright" unicode="&#x21d2;" 
d="M749 280l47 47l-48 49h-714v78h639l-89 91l53 53l269 -271l-265 -269l-57 52l89 91h-639v79h715z" />
    <glyph glyph-name="arrowdbldown" unicode="&#x21d3;" 
d="M526 -145v900h66v-713l245 308l47 -46zM36 304l47 46l245 -308v713h66v-900z" />
    <glyph glyph-name="arrowdbldown" unicode="&#x2965;" 
d="M526 -145v900h66v-713l245 308l47 -46zM36 304l47 46l245 -308v713h66v-900z" />
    <glyph glyph-name="arrowdblboth" unicode="&#x21d4;" 
d="M671 202h-422l88 -91l-54 -56l-266 272l265 271l57 -53l-88 -91h418l-88 91l57 51l265 -269l-265 -272l-55 56zM174 276h571l47 51l-47 51h-571l-47 -51z" />
    <glyph glyph-name="uni21E0" unicode="&#x21e0;" 
d="M235 465v-381l-176 190zM803 329q30 0 44 -18.5t13 -40.5q-1 -23 -17 -42.5t-48 -18.5q-30 0 -44 19t-12 42t18 41t46 18zM585 329q30 0 44.5 -18.5t13.5 -40.5q-1 -23 -16.5 -42.5t-47.5 -18.5q-31 0 -44.5 19t-11.5 42t17.5 41t44.5 18zM369 329q31 0 45 -18.5
t13 -41.5t-17 -42t-47 -18q-32 1 -46 20t-12 42q2 22 18.5 40t45.5 18z" />
    <glyph glyph-name="uni21E1" unicode="&#x21e1;" 
d="M269 509l192 177l189 -177h-381zM405 361q0 31 19 45.5t42 12.5t41.5 -18t18.5 -47q0 -30 -18.5 -44t-41.5 -13q-23 2 -42 18t-19 46zM405 143q0 31 19 45.5t42 12.5q23 -1 41.5 -16.5t18.5 -46.5t-18.5 -45t-41.5 -12q-23 1 -42 17t-19 45zM405 -72q0 31 19 45.5
t42 13.5q23 -2 41.5 -18t18.5 -46q0 -31 -18.5 -45.5t-41.5 -13.5q-23 2 -42 18t-19 46z" />
    <glyph glyph-name="uni21E2" unicode="&#x21e2;" 
d="M695 465l176 -190l-176 -190v380zM547 329q30 0 44 -18.5t13 -40.5q-1 -23 -17 -42.5t-48 -18.5q-30 0 -44 19t-12 42t18 41t46 18zM329 329q30 0 44.5 -18.5t13.5 -40.5q-1 -23 -16.5 -42.5t-47.5 -18.5q-31 0 -44.5 19t-11.5 42t17.5 41t44.5 18zM113 329
q31 0 45 -18.5t13 -41.5t-17 -42t-47 -18q-32 1 -46 20t-12 42q2 22 18.5 40t45.5 18z" />
    <glyph glyph-name="uni21E3" unicode="&#x21e3;" 
d="M269 40h381l-189 -177zM405 608q0 31 19 45.5t42 12.5t41.5 -18t18.5 -47q0 -30 -18.5 -44t-41.5 -13q-23 2 -42 18t-19 46zM405 390q0 31 19 45.5t42 12.5q23 -1 41.5 -16.5t18.5 -46.5t-18.5 -45t-41.5 -12q-23 1 -42 17t-19 45zM405 175q0 31 19 45.5t42 13.5
q23 -2 41.5 -18t18.5 -46q0 -31 -18.5 -45.5t-41.5 -13.5q-23 2 -42 18t-19 46z" />
    <glyph glyph-name="uni21E6" unicode="&#x21e6;" 
d="M865 192v273h-498v164l-301 -300l301 -301v164h498zM892 491v-324h-500v-204l-365 367l365 365v-204h500z" />
    <glyph glyph-name="uni21E7" unicode="&#x21e7;" 
d="M597 -75v498h164l-301 301l-299 -302h163v-497h273zM298 -102v499h-204l366 366l366 -365h-204v-500h-324z" />
    <glyph glyph-name="uni21E8" unicode="&#x21e8;" 
d="M54 192h498v-164l301 301l-301 300v-164h-498v-273zM27 491h500v204l365 -365l-365 -367v204h-500v324z" />
    <glyph glyph-name="uni21E9" unicode="&#x21e9;" 
d="M597 735h-273v-497h-163l299 -302l301 301h-164v498zM298 762h324v-500h204l-366 -365l-366 366h204v499z" />
    <glyph glyph-name="uni21F0" unicode="&#x21f0;" 
d="M27 467l140 -95h199v279l16.5 -16.5t43.5 -41t62.5 -54t74.5 -55.5q75 -50 135.5 -85t103.5 -57t66.5 -32t24.5 -10q-3 -2 -19 -8t-48.5 -22.5t-84 -45.5t-126.5 -76q-56 -36 -102 -71.5t-78.5 -64t-50.5 -46.5l-18 -18v278h-199l-140 -93v334zM52 186l108 67h234v-239
q2 2 20 18.5t46.5 40.5t64 51t73.5 50q59 35 101.5 59t70.5 38.5t43 21t18 7.5q-4 1 -25.5 11t-57.5 28.5t-84.5 46.5t-107.5 66q-30 20 -58.5 43t-51 42.5t-37 33t-15.5 15.5v-240h-234l-108 67v-227z" />
    <glyph glyph-name="uni21F0" unicode="&#xe3da;" 
d="M27 467l140 -95h199v279l16.5 -16.5t43.5 -41t62.5 -54t74.5 -55.5q75 -50 135.5 -85t103.5 -57t66.5 -32t24.5 -10q-3 -2 -19 -8t-48.5 -22.5t-84 -45.5t-126.5 -76q-56 -36 -102 -71.5t-78.5 -64t-50.5 -46.5l-18 -18v278h-199l-140 -93v334zM52 186l108 67h234v-239
q2 2 20 18.5t46.5 40.5t64 51t73.5 50q59 35 101.5 59t70.5 38.5t43 21t18 7.5q-4 1 -25.5 11t-57.5 28.5t-84.5 46.5t-107.5 66q-30 20 -58.5 43t-51 42.5t-37 33t-15.5 15.5v-240h-234l-108 67v-227z" />
    <glyph glyph-name="universal" unicode="&#x2200;" 
d="M767 686l-262 -716h-88l-264 716h116l52 -148h280l50 148h116zM571 445h-219l111 -313z" />
    <glyph glyph-name="partialdiff" unicode="&#x2202;" horiz-adv-x="607" 
d="M184 546q-26 -32 -50 -39t-38 4q-9 7 -5.5 23.5t18 36t38 40t53.5 36.5t66 25t75 5q48 -4 86 -24t64 -52t39 -75.5t12 -94.5q-2 -76 -31.5 -147.5t-87.5 -125.5q-36 -32 -84 -60t-97 -40t-93.5 -3.5t-72.5 49.5q-26 37 -24.5 76.5t19.5 76.5t48 68.5t62 51.5
q54 34 110.5 51t125.5 19q0 12 -4.5 39.5t-17 55t-35 47.5t-58.5 17q-42 -4 -70 -20t-48 -40zM415 383q-18 1 -39 -1t-45.5 -9.5t-51.5 -20.5t-55 -35q-17 -13 -31 -33.5t-21 -43.5t-3.5 -45.5t21.5 -39.5q9 -9 25 -7.5t34 9t36 19t31 23.5q30 26 49 56.5t30 57t15.5 46
t4.5 24.5z" />
    <glyph glyph-name="existential" unicode="&#x2203;" 
d="M239 -30q-24 0 -24 49q0 48 24 48h322q17 0 24.5 6.5t7.5 26.5v191h-322q-24 0 -24 49q0 48 24 48h322v201h-346q-24 0 -24 49q0 48 24 48h458v-605q0 -14 -12 -33t-27 -34q-16 -17 -37.5 -30.5t-38.5 -13.5h-351z" />
    <glyph glyph-name="Delta" unicode="&#x2206;" 
d="M431 712q14 29 34 29.5t32 -27.5l315 -678q15 -32 5.5 -50.5t-37.5 -18.5h-643q-29 0 -36 16t4 39zM437 586l-249 -525h494z" />
    <glyph glyph-name="gradient" unicode="&#x2207;" 
d="M103 632h714l-356 -609zM692 561h-463q30 -52 59 -100.5t57 -97t57 -97t59 -100.5z" />
    <glyph glyph-name="element" unicode="&#x2208;" 
d="M229 285q4 -58 48.5 -92.5t114.5 -34.5h400v-92h-407q-59 0 -108.5 20.5t-85.5 56t-56 83.5t-20 103t20 104.5t55.5 86t85 58t108.5 21.5h408v-92h-402q-34 0 -62 -10.5t-49 -28.5t-34 -42t-18 -51h565v-90h-563z" />
    <glyph glyph-name="notelement" unicode="&#x2209;" 
d="M465 -69l-83 24l40 111h-37q-59 0 -108.5 20.5t-85.5 56t-56 83.5t-20 103t20 104.5t55.5 86t85 58t108.5 21.5h231l39 108l79 -27l-29 -81h88v-92h-121l-47 -132h168v-90h-200l-46 -127h246v-92h-279zM534 375l47 132h-191q-34 0 -62 -10.5t-49 -28.5t-34 -42t-18 -51
h307zM229 285q4 -58 48.5 -92.5t114.5 -34.5h63l46 127h-272z" />
    <glyph glyph-name="suchthat" unicode="&#x220b;" 
d="M115 285v90h565q-5 27 -18 51t-34 42t-49 28.5t-62 10.5h-402v92h408q59 0 108.5 -21.5t85 -58t55.5 -86t20 -104.5t-20 -103t-56 -83.5t-85.5 -56t-108.5 -20.5h-407v92h400q70 0 114.5 34.5t48.5 92.5h-563z" />
    <glyph glyph-name="uni220C" unicode="&#x220c;" 
d="M315 -69l-83 24l40 111h-157v92h190l46 127h-236v90h269l47 132h-316v92h350l39 108l79 -27l-30 -83q53 -5 97 -28.5t75.5 -59.5t49 -82t17.5 -98q0 -55 -20 -103t-56 -83.5t-85.5 -56t-108.5 -20.5h-159zM515 158q70 0 114.5 34.5t48.5 92.5h-236l-46 -127h119zM680 375
q-5 27 -18 50.5t-33 41.5t-47.5 28.5t-60.5 11.5l-47 -132h206z" />
    <glyph glyph-name="product" unicode="&#x220f;" 
d="M730 -16q0 -23 -56 -23q-24 0 -40 5t-16 18v604h-316v-604q0 -12 -15 -17.5t-41 -5.5t-41 5.5t-15 17.5v702h540v-702z" />
    <glyph glyph-name="summation" unicode="&#x2211;" 
d="M563 328q0 -17 -2 -27.5t-6 -19t-10.5 -15l-15.5 -15.5l-191 -184h375q24 0 24 -49q0 -48 -24 -48h-521v123l256 235l-256 235v123h521q24 0 24 -48q0 -49 -24 -49h-375l191 -184l15.5 -15.5t10.5 -15t6 -19.5t2 -27z" />
    <glyph glyph-name="uni2213" unicode="&#x2213;" 
d="M217 270h192v184h96v-184h173q24 0 24 -48t-24 -48h-173v-142q0 -24 -48 -24t-48 24v142h-192v96zM217 651h461q24 0 24 -48t-24 -48h-461v96z" />
    <glyph glyph-name="radical" unicode="&#x221a;" 
d="M71 256l153 114l118 -235l255 625h245v-83h-184l-308 -757l-155 311l-74 -55z" />
    <glyph glyph-name="proportional" unicode="&#x221d;" 
d="M493 265q-32 -46 -76.5 -76t-104.5 -30q-43 0 -77 15t-58 40.5t-37 59t-13 71.5q0 37 13 71t37 59.5t58 40.5t77 15q60 0 104.5 -31t76.5 -77q24 48 67 78.5t92 30.5q41 0 74 -15t59 -38l-52 -66q-20 16 -39 23.5t-43 7.5q-20 0 -37.5 -10t-31 -25.5t-24 -35t-17.5 -37.5
q17 -38 43 -61.5t67 -26.5q24 -2 47.5 8.5t40.5 24.5l41 -72q-55 -52 -136 -50q-52 1 -90.5 31t-60.5 75zM447 341q-12 21 -25 39.5t-29 32.5t-35 22t-43 8q-19 0 -35 -7.5t-28 -21t-18.5 -31t-6.5 -37.5q0 -41 25 -70t63 -29q45 0 77 28t55 66z" />
    <glyph glyph-name="infinity" unicode="&#x221e;" 
d="M460 265q-32 -46 -76.5 -76t-104.5 -30q-43 0 -77 15t-58 40.5t-37 59t-13 71.5q0 37 13 71t37 59.5t58 40.5t77 15q60 0 104.5 -31t76.5 -77q32 46 76.5 77t104.5 31q43 0 77 -15t58 -40.5t37 -59.5t13 -71q0 -38 -13 -71.5t-37 -59t-58 -40.5t-77 -15q-60 0 -104.5 30
t-76.5 76zM414 341q-12 21 -25 39.5t-29 32.5t-35 22t-43 8q-19 0 -35 -7.5t-28 -21t-18.5 -31t-6.5 -37.5q0 -41 25 -70t63 -29q45 0 77 28t55 66zM506 341q23 -38 55 -66t77 -28q38 0 63 29t25 70q0 20 -6.5 37.5t-18.5 31t-28 21t-35 7.5q-24 0 -43 -8t-35 -22t-29 -32.5
t-25 -39.5z" />
    <glyph glyph-name="orthogonal" unicode="&#x221f;" 
d="M805 -16h-671v685h100v-596h571v-89z" />
    <glyph glyph-name="angle" unicode="&#x2220;" 
d="M782 132v-96h-597q-23 0 -34 9.5t-13 23t4.5 29.5t18.5 28l514 517l73 -71l-438 -440h472z" />
    <glyph glyph-name="uni2222" unicode="&#x2222;" 
d="M813 604l23 -62l-157 -61q35 -99 35 -191q0 -40 -7 -80t-23 -81l141 -59l-19 -62l-156 64q-14 -22 -34 -45t-42.5 -45t-46 -42.5t-45.5 -36.5v89q26 18 55 45.5t50 60.5l-503 205l495 204q-29 33 -53.5 53.5t-38.5 28.5v91q18 -13 39 -30t42 -36.5t40.5 -40t35.5 -40.5z
M243 302l378 -152q29 76 29 150q0 82 -35 155z" />
    <glyph glyph-name="uni2225" unicode="&#x2225;" horiz-adv-x="600" 
d="M473 747v-880h-132v880h132zM259 747v-880h-132v880h132z" />
    <glyph glyph-name="uni2225" unicode="&#xe47e;" horiz-adv-x="600" 
d="M473 747v-880h-132v880h132zM259 747v-880h-132v880h132z" />
    <glyph glyph-name="uni2226" unicode="&#x2226;" 
d="M101 747l242 -271l114 271h112l-150 -357l103 -116l199 473h112l-235 -558l288 -322h-112l-212 237l-99 -237h-112l135 322l-103 116l-184 -438h-112l220 523l-318 357h112z" />
    <glyph glyph-name="logicaland" unicode="&#x2227;" 
d="M460 615q32 0 46 -27l261 -525l-86 -44l-221 449l-221 -449l-86 44l261 525q14 27 46 27z" />
    <glyph glyph-name="logicalor" unicode="&#x2228;" 
d="M460 19q-32 0 -46 27l-261 525l86 44l221 -449l221 449l86 -44l-261 -525q-14 -27 -46 -27z" />
    <glyph glyph-name="intersection" unicode="&#x2229;" 
d="M292 7h-97v414q0 55 21 100t57.5 77.5t84.5 50.5t102 18t102 -18.5t84 -51.5t57 -78t21 -98v-417h-97v402q0 36 -12.5 67.5t-34.5 54t-52.5 35.5t-67.5 13q-35 0 -65.5 -13t-53 -35.5t-36 -54t-13.5 -67.5v-399z" />
    <glyph glyph-name="union" unicode="&#x222a;" 
d="M292 245q0 -36 13.5 -67.5t36 -54t53 -35.5t65.5 -13q37 0 67.5 13t52.5 35.5t34.5 54t12.5 67.5v402h97v-417q0 -53 -21 -98t-57 -78t-84 -51.5t-102 -18.5t-102 18t-84.5 50.5t-57.5 77.5t-21 100v414h97v-399z" />
    <glyph glyph-name="integral" unicode="&#x222b;" 
d="M629 614q-47 0 -69 -15.5t-27 -46.5l-65 -477q-3 -26 -16 -48t-36.5 -38.5t-58.5 -26t-83 -9.5v72q53 1 76 19t26 38l67 478q10 67 52 97.5t129 30.5q9 0 15.5 -6.5t7.5 -30.5q2 -37 -18 -37z" />
    <glyph glyph-name="uni222C" unicode="&#x222c;" 
d="M507 614q-47 0 -69 -15.5t-27 -46.5l-65 -477q-3 -26 -16 -48t-36.5 -38.5t-58.5 -26t-83 -9.5v72q53 1 76 19t26 38l67 478q10 67 52 97.5t129 30.5q9 0 15.5 -6.5t7.5 -30.5q2 -37 -18 -37zM749 614q-47 0 -69 -15.5t-27 -46.5l-65 -477q-3 -26 -16 -48t-36.5 -38.5
t-58.5 -26t-83 -9.5v72q53 1 76 19t26 38l67 478q10 67 52 97.5t129 30.5q9 0 15.5 -6.5t7.5 -30.5q2 -37 -18 -37z" />
    <glyph glyph-name="uni222E" unicode="&#x222e;" 
d="M629 614q-47 0 -69 -15.5t-27 -46.5l-6 -41q62 -18 100 -66t38 -112q0 -38 -14 -71t-39 -58t-59.5 -40.5t-75.5 -18.5l-9 -70q-3 -26 -16 -48t-36.5 -38.5t-58.5 -26t-83 -9.5v72q53 1 76 19t26 38l10 74q-59 20 -95 67t-36 110q0 37 13.5 69.5t38 57.5t58 40.5
t72.5 19.5l6 40q10 67 52 97.5t129 30.5q9 0 15.5 -6.5t7.5 -30.5q2 -37 -18 -37zM572 333q0 29 -14 55t-42 40l-27 -200q42 9 62.5 39.5t20.5 65.5zM348 333q0 -28 12 -53.5t38 -39.5l27 197q-38 -11 -57.5 -40t-19.5 -64z" />
    <glyph glyph-name="therefore" unicode="&#x2234;" 
d="M170 137q0 29 21 50t50 21t50 -21t21 -50t-21 -50t-50 -21t-50 21t-21 50zM386 505q0 29 21 50t50 21t50 -21t21 -50t-21 -50t-50 -21t-50 21t-21 50zM607 137q0 29 21 50t50 21t50 -21t21 -50t-21 -50t-50 -21t-50 21t-21 50z" />
    <glyph glyph-name="uni2235" unicode="&#x2235;" 
d="M749 506q0 -29 -21 -50t-50 -21t-50 21t-21 50t21 50t50 21t50 -21t21 -50zM312 506q0 -29 -21 -50t-50 -21t-50 21t-21 50t21 50t50 21t50 -21t21 -50zM528 138q0 -29 -21 -50t-50 -21t-50 21t-21 50t21 50t50 21t50 -21t21 -50z" />
    <glyph glyph-name="uni2237" unicode="&#x2237;" 
d="M642 462v136h136v-136h-136zM142 462v136h136v-136h-136zM642 -38v136h136v-136h-136zM142 -38v136h136v-136h-136z" />
    <glyph glyph-name="uni2237" unicode="&#xe131;" 
d="M642 462v136h136v-136h-136zM142 462v136h136v-136h-136zM642 -38v136h136v-136h-136zM142 -38v136h136v-136h-136z" />
    <glyph glyph-name="similar" unicode="&#x223c;" horiz-adv-x="759" 
d="M689 341q-14 -18 -33.5 -38t-42 -36.5t-47.5 -27.5t-50 -11q-41 0 -76 13t-77 42q-38 26 -63.5 39t-48.5 13q-18 0 -35.5 -9t-34 -22.5t-31 -29t-26.5 -29.5l-48 56q18 21 37.5 41.5t41 36t46 25t52.5 9.5q21 0 41 -6t39 -16t36.5 -21.5t32.5 -22.5q25 -18 53.5 -30.5
t60.5 -12.5q18 0 35.5 7.5t33 20.5t30.5 29.5t29 33.5z" />
    <glyph glyph-name="similar" unicode="&#xff5e;" horiz-adv-x="759" 
d="M689 341q-14 -18 -33.5 -38t-42 -36.5t-47.5 -27.5t-50 -11q-41 0 -76 13t-77 42q-38 26 -63.5 39t-48.5 13q-18 0 -35.5 -9t-34 -22.5t-31 -29t-26.5 -29.5l-48 56q18 21 37.5 41.5t41 36t46 25t52.5 9.5q21 0 41 -6t39 -16t36.5 -21.5t32.5 -22.5q25 -18 53.5 -30.5
t60.5 -12.5q18 0 35.5 7.5t33 20.5t30.5 29.5t29 33.5z" />
    <glyph glyph-name="similar" unicode="&#x301c;" horiz-adv-x="759" 
d="M689 341q-14 -18 -33.5 -38t-42 -36.5t-47.5 -27.5t-50 -11q-41 0 -76 13t-77 42q-38 26 -63.5 39t-48.5 13q-18 0 -35.5 -9t-34 -22.5t-31 -29t-26.5 -29.5l-48 56q18 21 37.5 41.5t41 36t46 25t52.5 9.5q21 0 41 -6t39 -16t36.5 -21.5t32.5 -22.5q25 -18 53.5 -30.5
t60.5 -12.5q18 0 35.5 7.5t33 20.5t30.5 29.5t29 33.5z" />
    <glyph glyph-name="uni223D" unicode="&#x223d;" 
d="M311 390v-11q0 -27 9.5 -44t29.5 -17q13 0 24 4.5t23 12.5t26 18t33 22q33 20 62.5 30t59.5 10q69 0 106 -50.5t37 -135.5q0 -11 -14.5 -16t-36.5 -5q-26 0 -40 5t-14 16q0 39 -11 63.5t-34 24.5q-19 0 -37 -8t-41 -22q-38 -25 -75 -46t-81 -21q-29 0 -54 9.5t-43.5 29.5
t-29.5 49.5t-11 70.5v11h112z" />
    <glyph glyph-name="uni2243" unicode="&#x2243;" 
d="M757 106h-601v69h601v-69zM766 419q-14 -18 -31.5 -36.5t-37.5 -34t-43 -26t-48 -12.5q-39 -2 -80.5 11t-83.5 43q-76 56 -125 51q-19 -2 -36.5 -11t-33 -22.5t-29 -29.5t-24.5 -31l-40 57q16 19 32 36.5t34 32t39 24t48 14.5q28 4 51.5 -2.5t46 -19t44.5 -27.5t48 -28
q9 -5 21.5 -10t26 -9.5t27 -7.5t24.5 -2q17 1 34.5 9.5t33.5 22t30.5 30.5t26.5 36z" />
    <glyph glyph-name="congruent" unicode="&#x2245;" 
d="M757 153h-601v69h601v-69zM757 -17h-601v69h601v-69zM766 451q-14 -18 -31.5 -36.5t-37.5 -34t-43 -26t-48 -12.5q-39 -2 -80.5 11t-83.5 43q-76 56 -125 51q-19 -2 -36.5 -11t-33 -22.5t-29 -29.5t-24.5 -31l-40 57q16 19 32 36.5t34 32t39 24t48 14.5q28 4 51.5 -2.5
t46 -19t44.5 -27.5t48 -28q9 -5 21.5 -10t26 -9.5t27 -7.5t24.5 -2q17 1 34.5 9.5t33.5 22t30.5 30.5t26.5 36z" />
    <glyph glyph-name="approxequal" unicode="&#x2248;" 
d="M766 451q-14 -18 -31.5 -36.5t-37.5 -34t-43 -26t-48 -12.5q-39 -2 -80.5 11t-83.5 43q-76 56 -125 51q-19 -2 -36.5 -11t-33 -22.5t-29 -29.5t-24.5 -31l-40 57q16 19 32 36.5t34 32t39 24t48 14.5q28 4 51.5 -2.5t46 -19t44.5 -27.5t48 -28q9 -5 21.5 -10t26 -9.5
t27 -7.5t24.5 -2q17 1 34.5 9.5t33.5 22t30.5 30.5t26.5 36zM766 144q-14 -18 -31.5 -36.5t-37.5 -34t-43 -26t-48 -12.5q-39 -2 -80.5 11t-83.5 43q-76 56 -125 51q-19 -2 -36.5 -11t-33 -22.5t-29 -29.5t-24.5 -31l-40 57q16 19 32 36.5t34 32t39 24t48 14.5
q28 4 51.5 -2.5t46 -19t44.5 -27.5t48 -28q9 -5 21.5 -10t26 -9.5t27 -7.5t24.5 -2q17 1 34.5 9.5t33.5 22t30.5 30.5t26.5 36z" />
    <glyph glyph-name="uni2250" unicode="&#x2250;" 
d="M136 142v70h648v-70h-648zM472 570q20 0 35 -16t15 -36t-15 -34.5t-35 -14.5q-21 0 -35.5 14.5t-14.5 34.5t14.5 36t35.5 16zM136 319v70h648v-70h-648z" />
    <glyph glyph-name="uni2251" unicode="&#x2251;" 
d="M473 609q20 0 35 -16t15 -36t-15 -34.5t-35 -14.5q-21 0 -35.5 14.5t-14.5 34.5t14.5 36t35.5 16zM136 368v70h648v-70h-648zM473 30q-21 0 -35.5 16t-14.5 36t14.5 34.5t35.5 14.5q20 0 35 -14.5t15 -34.5t-15 -36t-35 -16zM784 271v-70h-648v70h648z" />
    <glyph glyph-name="uni2252" unicode="&#x2252;" 
d="M136 202v70h648v-70h-648zM279 610q20 0 35 -16t15 -36t-15 -34.5t-35 -14.5q-21 0 -35.5 14.5t-14.5 34.5t14.5 36t35.5 16zM643 135q20 0 34.5 -14.5t14.5 -35.5q0 -20 -14.5 -35t-34.5 -15q-21 0 -36 15t-15 35q0 21 15 35.5t36 14.5zM136 369v70h648v-70h-648z" />
    <glyph glyph-name="uni2253" unicode="&#x2253;" 
d="M136 202v70h648v-70h-648zM641 610q21 0 35.5 -16t14.5 -36t-14.5 -34.5t-35.5 -14.5q-20 0 -35 14.5t-15 34.5t15 36t35 16zM277 135q21 0 36 -14.5t15 -35.5q0 -20 -15 -35t-36 -15q-20 0 -34.5 15t-14.5 35q0 21 14.5 35.5t34.5 14.5zM136 369v70h648v-70h-648z" />
    <glyph glyph-name="uni225A" unicode="&#x225a;" 
d="M136 -98v70h648v-70h-648zM136 29v70h648v-70h-648zM208 641l61 36l203 -436l216 438l63 -30l-243 -491q-12 -20 -36 -20t-35 20z" />
    <glyph glyph-name="notequal" unicode="&#x2260;" 
d="M143 256h256l53 163h-309v85h336l58 178l74 -22l-50 -156h216v-85h-243l-52 -163h295v-85h-322l-73 -229l-78 19l68 210h-229v85z" />
    <glyph glyph-name="equivalence" unicode="&#x2261;" horiz-adv-x="750" 
d="M58 534h634v-85h-634v85zM58 388h634v-86h-634v86zM58 241h634v-85h-634v85z" />
    <glyph glyph-name="uni2262" unicode="&#x2262;" 
d="M143 241h250l20 61h-270v86h298l19 61h-317v85h345l48 148l74 -22l-40 -126h207v-85h-234l-20 -61h254v-86h-281l-20 -61h301v-85h-328l-68 -214l-78 19l63 195h-223v85z" />
    <glyph glyph-name="lessequal" unicode="&#x2264;" 
d="M136 47v78h648v-78h-648zM746 279l-31 -75l-529 221q-18 8 -18 18q0 6 3.5 10.5t14.5 9.5l523 219l28 -75l-407 -163z" />
    <glyph glyph-name="greaterequal" unicode="&#x2265;" 
d="M136 47v78h648v-78h-648zM589 444l-407 163l28 75l523 -219q11 -5 14.5 -9.5t3.5 -10.5q0 -10 -18 -18l-529 -221l-31 75z" />
    <glyph glyph-name="uni2266" unicode="&#x2266;" 
d="M136 -44v68h648v-68h-648zM136 91v68h648v-68h-648zM746 279l-31 -65l-529 221q-6 2 -12 7.5t-6 10.5q0 4 6 10.5t12 9.5l523 219l28 -65l-417 -173z" />
    <glyph glyph-name="uni2267" unicode="&#x2267;" 
d="M136 -44v68h648v-68h-648zM136 91v68h648v-68h-648zM594 454l-417 173l28 65l523 -219q6 -3 12 -9.5t6 -10.5q0 -5 -6 -10.5t-12 -7.5l-529 -221l-31 65z" />
    <glyph glyph-name="uni226E" unicode="&#x226e;" 
d="M510 556l46 169l61 -17l-30 -111l209 107l32 -60l-265 -132l-87 -327l345 -182l-32 -58l-328 175l-50 -181l-62 17l52 195l-267 142q-14 8 -28.5 17.5t-14.5 22.5q0 11 12.5 17.5t26.5 14.5zM419 215l70 261l-286 -147z" />
    <glyph glyph-name="uni226F" unicode="&#x226f;" 
d="M378 77l-36 -138l-63 17l22 81l-170 -92l-32 59l225 118l97 357l-329 165l31 59l313 -160l49 182l63 -17l-53 -195l294 -149q11 -5 24.5 -13t13.5 -23q0 -11 -11.5 -18t-22.5 -13zM477 452l-77 -289l317 167z" />
    <glyph glyph-name="uni2270" unicode="&#x2270;" 
d="M439 91l-17 -67h362v-68h-379l-28 -115l-63 19l24 96h-202v68h219l17 67h-236v68h253l43 173l-246 103q-6 2 -12 7.5t-6 10.5q0 4 6 10.5t12 9.5l315 132l45 177l59 -22l-31 -125l135 57l28 -65l-184 -77l-44 -174l237 -97l-31 -65l-223 93l-36 -148h328v-68h-345z
M450 400l30 120l-160 -66z" />
    <glyph glyph-name="uni2271" unicode="&#x2271;" 
d="M370 91l-17 -67h431v-68h-448l-28 -115l-63 19l24 96h-133v68h150l17 67h-167v68h184l29 115l-144 -60l-31 65l196 81l43 171l-230 96l28 65l220 -92l46 182l59 -22l-46 -185l244 -102q6 -3 12 -9.5t6 -10.5q0 -5 -6 -10.5t-12 -7.5l-311 -130l-36 -146h397v-68h-414z
M473 507l-29 -117l156 64z" />
    <glyph glyph-name="uni2272" unicode="&#x2272;" 
d="M483 -12q-31 31 -59 54t-62 25q-30 1 -52 -9t-37.5 -27.5t-25 -39.5t-14.5 -44h-85q8 39 25 74t43 61.5t60.5 42t77.5 15.5q24 0 46.5 -7.5t44 -20t41.5 -29t37 -33.5q31 -30 59 -53.5t62 -25.5q30 -2 52 8.5t37.5 28t25 39.5t14.5 44h85q-8 -39 -25 -74t-43 -61.5
t-60.5 -42t-77.5 -15.5q-24 0 -46.5 7.5t-44 20t-41.5 29t-37 33.5zM799 754l21 -67l-570 -229l573 -204l-25 -69l-736 270z" />
    <glyph glyph-name="uni2273" unicode="&#x2273;" 
d="M827 455l-735 -270l-26 69l574 204l-571 229l22 67zM479 -12q-31 31 -59 54t-62 25q-30 1 -52 -9t-37.5 -27.5t-25 -39.5t-14.5 -44h-85q8 39 25 74t43 61.5t60.5 42t77.5 15.5q24 0 46.5 -7.5t44 -20t41.5 -29t37 -33.5q31 -30 59 -53.5t62 -25.5q30 -2 52 8.5t37.5 28
t25 39.5t14.5 44h85q-8 -39 -25 -74t-43 -61.5t-60.5 -42t-77.5 -15.5q-24 0 -46.5 7.5t-44 20t-41.5 29t-37 33.5z" />
    <glyph glyph-name="uni2276" unicode="&#x2276;" 
d="M59 468l765 229v-68l-561 -159l562 -161v-67zM860 163l-765 -227v68l560 160l-559 160v67z" />
    <glyph glyph-name="uni2277" unicode="&#x2277;" 
d="M91 242v67l562 161l-561 159v68l765 -229zM827 391v-67l-559 -160l560 -160v-68l-765 227z" />
    <glyph glyph-name="uni2279" unicode="&#x2279;" 
d="M377 128l17 74l-138 -39zM499 366l-19 -83l348 105v-62l-367 -106l-28 -108l396 -112v-64l-411 122l-53 -193l-57 14l54 196l-294 87l344 104l21 80l-343 -102v60l358 105l33 115l-390 112v61l401 -120l47 172l60 -13l-48 -176l301 -90zM537 508l-23 -77l149 41z" />
    <glyph glyph-name="uni227A" unicode="&#x227a;" 
d="M825 583q-245 -171 -505 -252q142 -52 267 -112.5t238 -141.5l-23 -74q-157 117 -334.5 200t-373.5 122q99 26 195.5 60t186.5 76t172.5 91t153.5 105z" />
    <glyph glyph-name="uni227B" unicode="&#x227b;" 
d="M117 657q71 -56 153.5 -105t172.5 -91t186.5 -76t195.5 -60q-196 -39 -373.5 -122t-334.5 -200l-23 74q113 81 238 141.5t267 112.5q-260 81 -505 252z" />
    <glyph glyph-name="uni2280" unicode="&#x2280;" 
d="M825 583q-155 -108 -315 -180v-149q85 -38 163 -81t152 -96l-23 -74q-69 51 -141.5 96t-150.5 83v-243h-52v268q-88 39 -178.5 68.5t-185.5 49.5q94 25 185.5 57t178.5 71v286h52v-262q81 39 154 84t138 96zM320 331q70 -27 138 -54v103q-35 -14 -69 -26t-69 -23z" />
    <glyph glyph-name="uni2281" unicode="&#x2281;" 
d="M415 185q-79 -38 -153.5 -84t-144.5 -98l-23 74q75 54 154 98t167 82v143q-164 72 -321 183l23 74q66 -52 140.5 -97.5t157.5 -85.5v265h52v-289q85 -38 174.5 -69.5t183.5 -55.5q-94 -19 -183 -48.5t-175 -67.5v-270h-52v246zM599 331q-34 11 -67 22t-65 25v-99
q32 14 65 26.5t67 25.5z" />
    <glyph glyph-name="propersubset" unicode="&#x2282;" 
d="M389 523q-36 1 -65.5 -13t-51.5 -38t-34 -55.5t-12 -65.5q0 -36 12.5 -67.5t35 -55t53 -36.5t66.5 -13h398v-93h-418q-52 0 -97 21.5t-78 58t-51.5 84.5t-18.5 101q0 54 19.5 102t53.5 84.5t80.5 57.5t101.5 21h405v-93h-399z" />
    <glyph glyph-name="propersuperset" unicode="&#x2283;" 
d="M132 616h405q54 0 101 -21.5t81 -57.5t53.5 -84t19.5 -102t-19 -102t-52 -84t-78 -57.5t-97 -21.5h-418v93h398q36 0 67 13t53.5 36t35 54.5t12.5 68.5q0 34 -12 65.5t-34 55t-51.5 37.5t-65.5 14h-399v93z" />
    <glyph glyph-name="notsubset" unicode="&#x2284;" 
d="M584 721l74 -22l-26 -83h156v-93h-186l-108 -344h297v-93h-327l-37 -118l-78 19l31 99h-7q-52 0 -97 21.5t-78 58t-51.5 84.5t-18.5 101q0 54 19.5 102t53.5 84.5t80.5 57.5t101.5 21h167zM389 523q-36 1 -65.5 -13t-51.5 -38t-34 -55.5t-12 -65.5q0 -36 12.5 -67.5
t35 -55t53 -36.5t66.5 -13h17l110 344h-131z" />
    <glyph glyph-name="uni2285" unicode="&#x2285;" 
d="M132 616h326l34 105l74 -22l-26 -83q54 -1 100 -22.5t79.5 -57.5t53 -84t19.5 -101q0 -54 -19 -102t-52 -84t-78 -57.5t-97 -21.5h-174l-37 -118l-78 19l31 99h-160v93h190l110 344h-296v93zM526 179q36 0 67 13t53.5 36t35 54.5t12.5 68.5q0 34 -12 65.5t-34 55
t-51.5 37.5t-65.5 14h-21l-108 -344h124z" />
    <glyph glyph-name="reflexsubset" unicode="&#x2286;" 
d="M387 566q-33 1 -62.5 -10.5t-51.5 -32t-35 -48.5t-13 -61q0 -36 12.5 -64.5t34.5 -48t52 -30t66 -10.5h400v-88h-426q-51 0 -94.5 17.5t-75.5 49.5t-50 76t-18 97q0 54 20 98t54.5 75.5t81 49t98.5 17.5h406v-87h-399zM799 87v-86h-669v86h669z" />
    <glyph glyph-name="reflexsuperset" unicode="&#x2287;" 
d="M134 653h406q52 0 98 -17.5t80.5 -49t54.5 -75.5t20 -98q0 -52 -18.5 -96t-50.5 -76t-75.5 -50t-93.5 -18h-426v88h400q35 0 65 10.5t52.5 30t35 48t12.5 64.5q0 34 -13 62t-35.5 48t-51.5 31t-62 11h-398v87zM799 1h-679v86h679v-86z" />
    <glyph glyph-name="uni228A" unicode="&#x228a;" 
d="M117 225h349l28 82h-119q-50 0 -93.5 14.5t-77 41t-54.5 62.5t-26 79q-6 53 11 100t51.5 82t83.5 55.5t106 20.5h412v-60h-407q-39 0 -73.5 -12.5t-60 -36t-40 -55.5t-12.5 -71t18.5 -69t42 -50t58 -30.5t66.5 -10.5h412v-60h-229l-28 -82h268v-59h-288l-28 -81h316v-59
h-337l-53 -155l-61 19l46 136h-281v59h301l28 81h-329v59z" />
    <glyph glyph-name="uni228A" unicode="&#x2acb;" 
d="M117 225h349l28 82h-119q-50 0 -93.5 14.5t-77 41t-54.5 62.5t-26 79q-6 53 11 100t51.5 82t83.5 55.5t106 20.5h412v-60h-407q-39 0 -73.5 -12.5t-60 -36t-40 -55.5t-12.5 -71t18.5 -69t42 -50t58 -30.5t66.5 -10.5h412v-60h-229l-28 -82h268v-59h-288l-28 -81h316v-59
h-337l-53 -155l-61 19l46 136h-281v59h301l28 81h-329v59z" />
    <glyph glyph-name="uni228B" unicode="&#x228b;" 
d="M314 26h-198v59h218l28 81h-246v59h266l28 82h-283v60h414q16 0 40.5 3.5t65.5 28.5q13 8 26 20.5t24 29t18.5 36t8.5 42.5q2 54 -24.5 90t-64.5 58q-13 7 -28.5 12t-30 8.5t-25 5t-13.5 1.5h-407v60h412q3 0 15.5 -0.5t29.5 -3.5t38 -9.5t41 -18.5q69 -38 102.5 -94.5
t25.5 -131.5q-7 -61 -44 -103t-85 -67q-48 -22 -74.5 -24.5t-31.5 -2.5h-81l-28 -82h351v-59h-371l-28 -81h399v-59h-420l-53 -155l-61 19z" />
    <glyph glyph-name="uni228B" unicode="&#x2acc;" 
d="M314 26h-198v59h218l28 81h-246v59h266l28 82h-283v60h414q16 0 40.5 3.5t65.5 28.5q13 8 26 20.5t24 29t18.5 36t8.5 42.5q2 54 -24.5 90t-64.5 58q-13 7 -28.5 12t-30 8.5t-25 5t-13.5 1.5h-407v60h412q3 0 15.5 -0.5t29.5 -3.5t38 -9.5t41 -18.5q69 -38 102.5 -94.5
t25.5 -131.5q-7 -61 -44 -103t-85 -67q-48 -22 -74.5 -24.5t-31.5 -2.5h-81l-28 -82h351v-59h-371l-28 -81h399v-59h-420l-53 -155l-61 19z" />
    <glyph glyph-name="circleplus" unicode="&#x2295;" 
d="M158 361h277v265h55v-265h271v-55h-271v-267h-55v267h-277v55zM885 342q0 -88 -33.5 -165.5t-91.5 -135t-135 -91t-165 -33.5t-165.5 33.5t-135 91t-91 135t-33.5 165.5t33.5 165t91 135t135 91.5t165.5 33.5t165 -33.5t135 -91.5t91.5 -135t33.5 -165zM837 342
q0 78 -29.5 146.5t-81 120t-120 81t-146.5 29.5t-146.5 -29.5t-120 -81t-81 -120t-29.5 -146.5t29.5 -146.5t81 -120t120 -81t146.5 -29.5t146.5 29.5t120 81t81 120t29.5 146.5z" />
    <glyph glyph-name="uni2296" unicode="&#x2296;" 
d="M885 341q0 -88 -33.5 -165.5t-91.5 -135t-135 -91t-165 -33.5t-165.5 33.5t-135 91t-91 135t-33.5 165.5t33.5 165t91 135t135 91.5t165.5 33.5t165 -33.5t135 -91.5t91.5 -135t33.5 -165zM837 341q0 78 -29.5 146.5t-81 120t-120 81t-146.5 29.5t-146.5 -29.5t-120 -81
t-81 -120t-29.5 -146.5t29.5 -146.5t81 -120t120 -81t146.5 -29.5t146.5 29.5t120 81t81 120t29.5 146.5zM761 361v-55h-603v55h603z" />
    <glyph glyph-name="circlemultiply" unicode="&#x2297;" 
d="M237 147l191 191l-188 188l39 39l189 -189l188 191l41 -40l-189 -189l191 -192l-41 -38l-189 190l-192 -191zM885 342q0 -88 -33.5 -165.5t-91.5 -135t-135 -91t-165 -33.5t-165.5 33.5t-135 91t-91 135t-33.5 165.5t33.5 165t91 135t135 91.5t165.5 33.5t165 -33.5
t135 -91.5t91.5 -135t33.5 -165zM837 342q0 78 -29.5 146.5t-81 120t-120 81t-146.5 29.5t-146.5 -29.5t-120 -81t-81 -120t-29.5 -146.5t29.5 -146.5t81 -120t120 -81t146.5 -29.5t146.5 29.5t120 81t81 120t29.5 146.5z" />
    <glyph glyph-name="uni2299" unicode="&#x2299;" 
d="M461 716q78 0 146.5 -29.5t120 -80.5t81 -119.5t29.5 -146.5t-29.5 -146t-81 -119t-120 -80.5t-146.5 -29.5t-147 29t-120.5 79.5t-81.5 119t-30 147.5t30 147.5t81.5 119.5t120.5 80t147 29zM461 673q-69 0 -130.5 -25.5t-107 -70.5t-72 -106t-26.5 -131t26.5 -130.5
t72 -105.5t107 -71t130.5 -26t130 26t106 71t71.5 106t26.5 130t-26.5 129.5t-71.5 106t-106 71.5t-130 26zM461 485q30 0 56 -11.5t45.5 -31.5t31 -46.5t11.5 -56.5q0 -29 -11.5 -55t-31 -45.5t-45.5 -31t-56 -11.5t-56 11.5t-46 31t-31.5 45.5t-11.5 55q0 30 11.5 56.5
t31.5 46.5t46 31.5t56 11.5z" />
    <glyph glyph-name="uni2299" unicode="&#x25c9;" 
d="M461 716q78 0 146.5 -29.5t120 -80.5t81 -119.5t29.5 -146.5t-29.5 -146t-81 -119t-120 -80.5t-146.5 -29.5t-147 29t-120.5 79.5t-81.5 119t-30 147.5t30 147.5t81.5 119.5t120.5 80t147 29zM461 673q-69 0 -130.5 -25.5t-107 -70.5t-72 -106t-26.5 -131t26.5 -130.5
t72 -105.5t107 -71t130.5 -26t130 26t106 71t71.5 106t26.5 130t-26.5 129.5t-71.5 106t-106 71.5t-130 26zM461 485q30 0 56 -11.5t45.5 -31.5t31 -46.5t11.5 -56.5q0 -29 -11.5 -55t-31 -45.5t-45.5 -31t-56 -11.5t-56 11.5t-46 31t-31.5 45.5t-11.5 55q0 30 11.5 56.5
t31.5 46.5t46 31.5t56 11.5z" />
    <glyph glyph-name="uni22A3" unicode="&#x22a3;" 
d="M690 -36v330h-537v71h537v323h77v-724h-77z" />
    <glyph glyph-name="uni22A4" unicode="&#x22a4;" 
d="M139 607h642v-71h-283v-518h-76v518h-283v71z" />
    <glyph glyph-name="perpendicular" unicode="&#x22a5;" 
d="M407 141v483h106v-483h264v-102h-634v102h264z" />
    <glyph glyph-name="uni22BB" unicode="&#x22bb;" 
d="M136 -1v70h648v-70h-648zM208 611l61 36l203 -436l216 438l63 -30l-243 -491q-12 -20 -36 -20t-35 20z" />
    <glyph glyph-name="uni22BC" unicode="&#x22bc;" 
d="M784 649v-70h-648v70h648zM437 520q11 20 35 20t36 -20l243 -491l-63 -30l-216 438l-203 -436l-61 36z" />
    <glyph glyph-name="uni22CE" unicode="&#x22ce;" 
d="M133 -13q56 71 105 153.5t91 172.5t76 186.5t60 195.5q39 -196 122 -373.5t200 -334.5l-74 -23q-81 113 -141.5 238t-112.5 267q-81 -260 -252 -505z" />
    <glyph glyph-name="uni22CF" unicode="&#x22cf;" 
d="M207 695q171 -245 252 -505q52 142 112.5 267t141.5 238l74 -23q-117 -157 -200 -334.5t-122 -373.5q-26 99 -60 195.5t-76 186.5t-91 172.5t-105 153.5z" />
    <glyph glyph-name="uni22DA" unicode="&#x22da;" 
d="M119 588v4l705 183v-64l-496 -123l496 -124v-65zM95 356h728v-59h-728v59zM119 -127v65l497 124l-497 123v64l705 -183v-4z" />
    <glyph glyph-name="uni22DB" unicode="&#x22db;" 
d="M95 399v65l497 124l-497 123v64l705 -183v-4zM824 297h-728v59h728v-59zM118 62v4l705 183v-64l-496 -123l496 -124v-65z" />
    <glyph glyph-name="uni22EE" unicode="&#x22ee;" 
d="M392 542v136h136v-136h-136zM392 232v136h136v-136h-136zM392 -78v136h136v-136h-136z" />
    <glyph glyph-name="uni22EE" unicode="&#xe130;" 
d="M392 542v136h136v-136h-136zM392 232v136h136v-136h-136zM392 -78v136h136v-136h-136z" />
    <glyph glyph-name="uni2306" unicode="&#x2306;" 
d="M784 709v-70h-648v70h648zM784 582v-70h-648v70h648zM437 453q11 20 35 20t36 -20l243 -491l-63 -30l-216 438l-203 -436l-61 36z" />
    <glyph glyph-name="uni2312" unicode="&#x2312;" 
d="M129 41q11 67 38 124.5t69 100t98 66.5t124 24q71 0 128 -26.5t99 -70.5t68.5 -101t36.5 -117h-104q-8 44 -28 83.5t-49.5 69t-67.5 47t-83 17.5q-48 0 -86.5 -18.5t-67.5 -48.5t-47.5 -69t-26.5 -81h-101z" />
    <glyph glyph-name="uni2314" unicode="&#x2314;" 
d="M92 544q0 3 13.5 13.5t38.5 24.5t59 29.5t74.5 28.5t85.5 22t91 9q73 1 141 -17t119.5 -41t82.5 -44t31 -25l-372 -650zM459 21l282 487q-8 11 -35 27t-66 30.5t-87.5 25t-97.5 10.5t-93.5 -9t-80.5 -22.5t-61.5 -30.5t-36.5 -33z" />
    <glyph glyph-name="uni2460" unicode="&#x2460;" 
d="M826 350q0 75 -29 142.5t-79 118t-116.5 80t-141.5 29.5t-141.5 -29.5t-116.5 -80t-79 -118t-29 -142.5t29 -142.5t79 -118t116.5 -80t141.5 -29.5t141.5 29.5t116.5 80t79 118t29 142.5zM904 350q0 -92 -35 -173t-95 -141t-141 -95t-173 -35t-173 35t-141 95t-95 141
t-35 173t35 173t95 141t141 95t173 35t173 -35t141 -95t95 -141t35 -173zM438 552l-101 -41v78l107 44h83v-561q0 -19 -45 -19q-44 0 -44 19v480z" />
    <glyph glyph-name="uni2461" unicode="&#x2461;" 
d="M826 350q0 75 -29 142.5t-79 118t-116.5 80t-141.5 29.5t-141.5 -29.5t-116.5 -80t-79 -118t-29 -142.5t29 -142.5t79 -118t116.5 -80t141.5 -29.5t141.5 29.5t116.5 80t79 118t29 142.5zM904 350q0 -92 -35 -173t-95 -141t-141 -95t-173 -35t-173 35t-141 95t-95 141
t-35 173t35 173t95 141t141 95t173 35t173 -35t141 -95t95 -141t35 -173zM545 472q0 53 -27.5 74.5t-73.5 21.5q-32 0 -60 -7.5t-60 -17.5v77q22 9 52 17.5t68 8.5t72.5 -10t61 -31t42.5 -54t16 -79q0 -30 -11 -60.5t-28.5 -58.5t-38.5 -54t-40 -47l-98 -112h210
q19 0 19 -39q0 -38 -19 -38h-329v73l125 138q19 22 40 45.5t38.5 48.5t29 51t11.5 53z" />
    <glyph glyph-name="uni2462" unicode="&#x2462;" 
d="M826 350q0 75 -29 142.5t-79 118t-116.5 80t-141.5 29.5t-141.5 -29.5t-116.5 -80t-79 -118t-29 -142.5t29 -142.5t79 -118t116.5 -80t141.5 -29.5t141.5 29.5t116.5 80t79 118t29 142.5zM904 350q0 -92 -35 -173t-95 -141t-141 -95t-173 -35t-173 35t-141 95t-95 141
t-35 173t35 173t95 141t141 95t173 35t173 -35t141 -95t95 -141t35 -173zM443 51q-36 0 -67 5t-54 11v81q20 -6 51 -12.5t65 -6.5q26 0 50.5 5t43 16.5t29.5 30t11 44.5q0 40 -24.5 66t-72.5 26h-99v77h97q38 0 60 22.5t22 63.5q0 39 -23.5 63t-76.5 24q-28 0 -60.5 -7
t-67.5 -18v79q29 10 62 17t66 7q41 0 75.5 -10t60 -30t39.5 -51t14 -74q0 -42 -19 -74t-51 -48q39 -14 63.5 -52t24.5 -82q0 -46 -17 -78.5t-46.5 -53.5t-69.5 -31t-86 -10z" />
    <glyph glyph-name="uni2463" unicode="&#x2463;" 
d="M826 350q0 75 -29 142.5t-79 118t-116.5 80t-141.5 29.5t-141.5 -29.5t-116.5 -80t-79 -118t-29 -142.5t29 -142.5t79 -118t116.5 -80t141.5 -29.5t141.5 29.5t116.5 80t79 118t29 142.5zM904 350q0 -92 -35 -173t-95 -141t-141 -95t-173 -35t-173 35t-141 95t-95 141
t-35 173t35 173t95 141t141 95t173 35t173 -35t141 -95t95 -141t35 -173zM498 249v268l-145 -268h145zM586 72q0 -19 -44 -19t-44 19v99h-236v77l209 385h115v-384h54q19 0 19 -40q0 -38 -19 -38h-54v-99z" />
    <glyph glyph-name="uni2464" unicode="&#x2464;" 
d="M826 350q0 75 -29 142.5t-79 118t-116.5 80t-141.5 29.5t-141.5 -29.5t-116.5 -80t-79 -118t-29 -142.5t29 -142.5t79 -118t116.5 -80t141.5 -29.5t141.5 29.5t116.5 80t79 118t29 142.5zM904 350q0 -92 -35 -173t-95 -141t-141 -95t-173 -35t-173 35t-141 95t-95 141
t-35 173t35 173t95 141t141 95t173 35t173 -35t141 -95t95 -141t35 -173zM426 50q-36 0 -65 5t-51 11v81q20 -6 48 -13t63 -7q26 0 50.5 7t43 21.5t29.5 35.5t11 49q0 57 -30.5 82t-78.5 25h-118v286h270q19 0 19 -38q0 -40 -19 -40h-180v-131h33q89 0 141 -45t52 -138
q0 -46 -17 -81.5t-46.5 -60t-69 -37t-85.5 -12.5z" />
    <glyph glyph-name="uni2465" unicode="&#x2465;" 
d="M826 350q0 75 -29 142.5t-79 118t-116.5 80t-141.5 29.5t-141.5 -29.5t-116.5 -80t-79 -118t-29 -142.5t29 -142.5t79 -118t116.5 -80t141.5 -29.5t141.5 29.5t116.5 80t79 118t29 142.5zM904 350q0 -92 -35 -173t-95 -141t-141 -95t-173 -35t-173 35t-141 95t-95 141
t-35 173t35 173t95 141t141 95t173 35t173 -35t141 -95t95 -141t35 -173zM651 234q0 -40 -14 -73.5t-39.5 -58t-60.5 -38.5t-78 -14t-78 13t-60.5 37t-39.5 57.5t-14 73.5q0 42 17.5 79.5t33.5 70.5l132 252h96l-121 -233q22 9 50 9q37 0 69 -13t56 -36.5t37.5 -55.5
t13.5 -70zM357 232q0 -47 28 -76t74 -29t74 29t28 76q0 43 -28 71.5t-74 28.5t-74 -29t-28 -71z" />
    <glyph glyph-name="uni2466" unicode="&#x2466;" 
d="M826 350q0 75 -29 142.5t-79 118t-116.5 80t-141.5 29.5t-141.5 -29.5t-116.5 -80t-79 -118t-29 -142.5t29 -142.5t79 -118t116.5 -80t141.5 -29.5t141.5 29.5t116.5 80t79 118t29 142.5zM904 350q0 -92 -35 -173t-95 -141t-141 -95t-173 -35t-173 35t-141 95t-95 141
t-35 173t35 173t95 141t141 95t173 35t173 -35t141 -95t95 -141t35 -173zM294 557v77h344v-69l-195 -503h-96l192 495h-245z" />
    <glyph glyph-name="uni2467" unicode="&#x2467;" 
d="M826 350q0 75 -29 142.5t-79 118t-116.5 80t-141.5 29.5t-141.5 -29.5t-116.5 -80t-79 -118t-29 -142.5t29 -142.5t79 -118t116.5 -80t141.5 -29.5t141.5 29.5t116.5 80t79 118t29 142.5zM904 350q0 -92 -35 -173t-95 -141t-141 -95t-173 -35t-173 35t-141 95t-95 141
t-35 173t35 173t95 141t141 95t173 35t173 -35t141 -95t95 -141t35 -173zM460 131q45 0 75 26t30 66q0 41 -27.5 70t-77.5 29t-77.5 -29t-27.5 -70q0 -40 30 -66t75 -26zM460 567q-44 0 -69 -23.5t-25 -61.5t26 -63.5t68 -25.5t68 25.5t26 63.5t-25 61.5t-69 23.5zM460 51
q-41 0 -76.5 12t-61.5 34.5t-41 54t-15 70.5q0 51 25 84.5t55 52.5q-28 17 -49 49t-21 76q0 36 13.5 65.5t37.5 51t58 33t75 11.5t75 -11.5t58 -33t37.5 -51t13.5 -65.5q0 -44 -21 -76t-49 -49q30 -19 55 -52.5t25 -84.5q0 -39 -15 -70.5t-41 -54t-61.5 -34.5t-76.5 -12z
" />
    <glyph glyph-name="uni2468" unicode="&#x2468;" 
d="M826 350q0 75 -29 142.5t-79 118t-116.5 80t-141.5 29.5t-141.5 -29.5t-116.5 -80t-79 -118t-29 -142.5t29 -142.5t79 -118t116.5 -80t141.5 -29.5t141.5 29.5t116.5 80t79 118t29 142.5zM904 350q0 -92 -35 -173t-95 -141t-141 -95t-173 -35t-173 35t-141 95t-95 141
t-35 173t35 173t95 141t141 95t173 35t173 -35t141 -95t95 -141t35 -173zM279 462q0 40 14 73.5t39.5 58t60.5 38.5t78 14t78 -13t60.5 -37t39.5 -57.5t14 -73.5q0 -42 -17.5 -79.5t-33.5 -70.5l-132 -252h-96l121 233q-11 -5 -23 -7t-27 -2q-37 0 -69 13t-56 36.5
t-37.5 55.5t-13.5 70zM573 464q0 47 -28 75.5t-74 28.5t-74 -28.5t-28 -75.5q0 -43 28 -71.5t74 -28.5t74 29t28 71z" />
    <glyph glyph-name="uni2469" unicode="&#x2469;" 
d="M826 350q0 75 -29 142.5t-79 118t-116.5 80t-141.5 29.5t-141.5 -29.5t-116.5 -80t-79 -118t-29 -142.5t29 -142.5t79 -118t116.5 -80t141.5 -29.5t141.5 29.5t116.5 80t79 118t29 142.5zM904 350q0 -92 -35 -173t-95 -141t-141 -95t-173 -35t-173 35t-141 95t-95 141
t-35 173t35 173t95 141t141 95t173 35t173 -35t141 -95t95 -141t35 -173zM280 523q-20 -9 -43 -18t-43 -17v79l94 38h79v-486q0 -21 -44 -21q-43 0 -43 21v404zM641 356q0 40 -2.5 73.5t-9 58t-19.5 38.5t-34 14t-34 -14t-19.5 -38.5t-9 -58t-2.5 -73.5t2.5 -73.5t9 -58
t19.5 -38.5t34 -14t34 14t19.5 38.5t9 58t2.5 73.5zM728 356q0 -59 -7.5 -107t-25.5 -82t-47 -52.5t-72 -18.5t-72 18.5t-47 52.5t-25.5 82t-7.5 107t7.5 107t25.5 82t47 52.5t72 18.5t72 -18.5t47 -52.5t25.5 -82t7.5 -107z" />
    <glyph glyph-name="uni246A" unicode="&#x246a;" 
d="M826 350q0 75 -29 142.5t-79 118t-116.5 80t-141.5 29.5t-141.5 -29.5t-116.5 -80t-79 -118t-29 -142.5t29 -142.5t79 -118t116.5 -80t141.5 -29.5t141.5 29.5t116.5 80t79 118t29 142.5zM904 350q0 -92 -35 -173t-95 -141t-141 -95t-173 -35t-173 35t-141 95t-95 141
t-35 173t35 173t95 141t141 95t173 35t173 -35t141 -95t95 -141t35 -173zM310 523q-20 -9 -43 -18t-43 -17v79l94 38h79v-486q0 -21 -44 -21q-43 0 -43 21v404zM570 523q-20 -9 -43 -18t-43 -17v79l94 38h79v-486q0 -21 -44 -21q-43 0 -43 21v404z" />
    <glyph glyph-name="uni246B" unicode="&#x246b;" 
d="M826 350q0 75 -29 142.5t-79 118t-116.5 80t-141.5 29.5t-141.5 -29.5t-116.5 -80t-79 -118t-29 -142.5t29 -142.5t79 -118t116.5 -80t141.5 -29.5t141.5 29.5t116.5 80t79 118t29 142.5zM904 350q0 -92 -35 -173t-95 -141t-141 -95t-173 -35t-173 35t-141 95t-95 141
t-35 173t35 173t95 141t141 95t173 35t173 -35t141 -95t95 -141t35 -173zM280 523q-20 -9 -43 -18t-43 -17v79l94 38h79v-486q0 -21 -44 -21q-43 0 -43 21v404zM542 183h165q21 0 21 -38t-21 -38h-283v70l124 140q30 33 55.5 69.5t25.5 77.5q0 42 -21 60t-58 18
q-26 0 -53 -8.5t-52 -16.5v77q20 8 45 16t60 8q34 0 64 -9t53 -28t36.5 -48.5t13.5 -69.5q0 -26 -9.5 -51.5t-24 -50.5t-32 -47.5t-33.5 -41.5z" />
    <glyph glyph-name="uni246C" unicode="&#x246c;" 
d="M826 350q0 75 -29 142.5t-79 118t-116.5 80t-141.5 29.5t-141.5 -29.5t-116.5 -80t-79 -118t-29 -142.5t29 -142.5t79 -118t116.5 -80t141.5 -29.5t141.5 29.5t116.5 80t79 118t29 142.5zM904 350q0 -92 -35 -173t-95 -141t-141 -95t-173 -35t-173 35t-141 95t-95 141
t-35 173t35 173t95 141t141 95t173 35t173 -35t141 -95t95 -141t35 -173zM535 96q-32 0 -58.5 4.5t-46.5 10.5v80q19 -6 45.5 -12t55.5 -6q43 0 74.5 17.5t31.5 59.5q0 32 -17.5 53.5t-56.5 21.5h-88v76h86q30 0 45.5 18t15.5 50t-17 51.5t-59 19.5q-23 0 -51.5 -6.5
t-60.5 -17.5v78q26 10 54.5 16t57.5 6q72 0 117.5 -35t45.5 -112q0 -33 -15 -60t-39 -44q32 -14 50.5 -46t18.5 -70q0 -41 -14.5 -70t-39.5 -47.5t-60 -27t-75 -8.5zM280 523q-20 -9 -43 -18t-43 -17v79l94 38h79v-486q0 -21 -44 -21q-43 0 -43 21v404z" />
    <glyph glyph-name="uni246D" unicode="&#x246d;" 
d="M826 350q0 75 -29 142.5t-79 118t-116.5 80t-141.5 29.5t-141.5 -29.5t-116.5 -80t-79 -118t-29 -142.5t29 -142.5t79 -118t116.5 -80t141.5 -29.5t141.5 29.5t116.5 80t79 118t29 142.5zM904 350q0 -92 -35 -173t-95 -141t-141 -95t-173 -35t-173 35t-141 95t-95 141
t-35 173t35 173t95 141t141 95t173 35t173 -35t141 -95t95 -141t35 -173zM607 276v206q-29 -54 -54 -103t-54 -103h108zM692 119q0 -21 -43 -21q-42 0 -42 21v80h-197v71l176 335h106v-329h42q12 0 16.5 -10t4.5 -30q0 -19 -4.5 -28t-16.5 -9h-42v-80zM280 523
q-20 -9 -43 -18t-43 -17v79l94 38h79v-486q0 -21 -44 -21q-43 0 -43 21v404z" />
    <glyph glyph-name="uni246E" unicode="&#x246e;" 
d="M826 350q0 75 -29 142.5t-79 118t-116.5 80t-141.5 29.5t-141.5 -29.5t-116.5 -80t-79 -118t-29 -142.5t29 -142.5t79 -118t116.5 -80t141.5 -29.5t141.5 29.5t116.5 80t79 118t29 142.5zM904 350q0 -92 -35 -173t-95 -141t-141 -95t-173 -35t-173 35t-141 95t-95 141
t-35 173t35 173t95 141t141 95t173 35t173 -35t141 -95t95 -141t35 -173zM280 523q-20 -9 -43 -18t-43 -17v79l94 38h79v-486q0 -21 -44 -21q-43 0 -43 21v404zM544 94q-32 0 -56 4.5t-45 10.5v80q19 -6 43.5 -12t53.5 -6q21 0 40.5 5.5t34.5 17t23.5 29t8.5 40.5
q0 46 -23 66t-62 20h-103v256h230q12 0 16.5 -9t4.5 -28q0 -20 -4.5 -29.5t-16.5 -9.5h-134v-103h11q79 0 123 -40t44 -122q0 -41 -14.5 -72.5t-39.5 -53.5t-60 -33t-75 -11z" />
    <glyph glyph-name="uni246F" unicode="&#x246f;" 
d="M280 523q-20 -9 -43 -18t-43 -17v79l94 38h79v-486q0 -21 -44 -21q-43 0 -43 21v404zM573 605h92l-101 -196q7 2 14.5 3t17.5 1q33 0 61.5 -11.5t49.5 -32.5t33 -49.5t12 -62.5q0 -35 -12.5 -65t-35 -51.5t-54 -34t-68.5 -12.5q-38 0 -69 12t-53 33t-34.5 50.5
t-12.5 65.5q0 31 12 61.5t26 56.5zM499 256q0 -38 23 -61.5t60 -23.5t60.5 23.5t23.5 61.5q0 35 -23.5 57.5t-60.5 22.5t-60 -23t-23 -57zM826 350q0 75 -29 142.5t-79 118t-116.5 80t-141.5 29.5t-141.5 -29.5t-116.5 -80t-79 -118t-29 -142.5t29 -142.5t79 -118t116.5 -80
t141.5 -29.5t141.5 29.5t116.5 80t79 118t29 142.5zM904 350q0 -92 -35 -173t-95 -141t-141 -95t-173 -35t-173 35t-141 95t-95 141t-35 173t35 173t95 141t141 95t173 35t173 -35t141 -95t95 -141t35 -173z" />
    <glyph glyph-name="uni2470" unicode="&#x2470;" 
d="M280 523q-20 -9 -43 -18t-43 -17v79l94 38h79v-486q0 -21 -44 -21q-43 0 -43 21v404zM430 531v76h286v-66l-148 -436h-94l144 426h-188zM826 350q0 75 -29 142.5t-79 118t-116.5 80t-141.5 29.5t-141.5 -29.5t-116.5 -80t-79 -118t-29 -142.5t29 -142.5t79 -118
t116.5 -80t141.5 -29.5t141.5 29.5t116.5 80t79 118t29 142.5zM904 350q0 -92 -35 -173t-95 -141t-141 -95t-173 -35t-173 35t-141 95t-95 141t-35 173t35 173t95 141t141 95t173 35t173 -35t141 -95t95 -141t35 -173z" />
    <glyph glyph-name="uni2471" unicode="&#x2471;" 
d="M280 523q-20 -9 -43 -18t-43 -17v79l94 38h79v-486q0 -21 -44 -21q-43 0 -43 21v404zM582 175q36 0 58.5 21t22.5 53t-20.5 56t-60.5 24t-60 -24t-20 -56t22 -53t58 -21zM582 540q-35 0 -53 -19.5t-18 -49.5t19 -51t52 -21q34 0 53 21t19 51t-18.5 49.5t-53.5 19.5z
M582 96q-36 0 -66.5 10.5t-52.5 30.5t-34.5 47.5t-12.5 62.5q0 45 16.5 73.5t41.5 45.5q-22 16 -35.5 43.5t-13.5 63.5q0 64 42 103.5t115 39.5q74 0 116 -39.5t42 -103.5q0 -36 -13.5 -63.5t-36.5 -43.5q26 -17 42.5 -45.5t16.5 -73.5q0 -35 -12.5 -62.5t-34.5 -47.5
t-53 -30.5t-67 -10.5zM826 350q0 75 -29 142.5t-79 118t-116.5 80t-141.5 29.5t-141.5 -29.5t-116.5 -80t-79 -118t-29 -142.5t29 -142.5t79 -118t116.5 -80t141.5 -29.5t141.5 29.5t116.5 80t79 118t29 142.5zM904 350q0 -92 -35 -173t-95 -141t-141 -95t-173 -35t-173 35
t-141 95t-95 141t-35 173t35 173t95 141t141 95t173 35t173 -35t141 -95t95 -141t35 -173z" />
    <glyph glyph-name="uni2472" unicode="&#x2472;" 
d="M280 523q-20 -9 -43 -18t-43 -17v79l94 38h79v-486q0 -21 -44 -21q-43 0 -43 21v404zM407 455q0 35 12.5 65t34.5 51.5t53 34t69 12.5q37 0 68.5 -12t54 -33t35 -50.5t12.5 -65.5q0 -38 -14.5 -69t-30.5 -61l-115 -220h-92l101 196q-13 -4 -32 -4q-33 0 -61.5 11.5
t-49.5 32.5t-33 49.5t-12 62.5zM660 456q0 38 -23.5 62t-60.5 24t-60 -24t-23 -62q0 -35 23 -57.5t60 -22.5t60.5 23t23.5 57zM826 350q0 75 -29 142.5t-79 118t-116.5 80t-141.5 29.5t-141.5 -29.5t-116.5 -80t-79 -118t-29 -142.5t29 -142.5t79 -118t116.5 -80
t141.5 -29.5t141.5 29.5t116.5 80t79 118t29 142.5zM904 350q0 -92 -35 -173t-95 -141t-141 -95t-173 -35t-173 35t-141 95t-95 141t-35 173t35 173t95 141t141 95t173 35t173 -35t141 -95t95 -141t35 -173z" />
    <glyph glyph-name="uni2473" unicode="&#x2473;" 
d="M674 356q0 40 -1.5 73.5t-7 58t-16.5 38.5t-31 14t-31 -14t-16.5 -38.5t-7 -58t-1.5 -73.5t1.5 -73.5t7 -58t16.5 -38.5t31 -14t31 14t16.5 38.5t7 58t1.5 73.5zM756 356q0 -59 -6 -107t-22 -82t-42.5 -52.5t-67.5 -18.5t-67 18.5t-42 52.5t-22 82t-6 107t6 107t22 82
t42 52.5t67 18.5t67.5 -18.5t42.5 -52.5t22 -82t6 -107zM304 183h141q20 0 20 -38t-20 -38h-251v70l103 140q12 16 25 34t24 37t18 38.5t7 37.5q0 45 -16 61.5t-47 16.5q-25 0 -49 -8t-47 -17v77q19 8 41 16t55 8q65 0 106 -37t41 -118q0 -27 -7 -50t-19 -45.5t-28 -45.5
t-35 -50zM826 350q0 75 -29 142.5t-79 118t-116.5 80t-141.5 29.5t-141.5 -29.5t-116.5 -80t-79 -118t-29 -142.5t29 -142.5t79 -118t116.5 -80t141.5 -29.5t141.5 29.5t116.5 80t79 118t29 142.5zM904 350q0 -92 -35 -173t-95 -141t-141 -95t-173 -35t-173 35t-141 95
t-95 141t-35 173t35 173t95 141t141 95t173 35t173 -35t141 -95t95 -141t35 -173z" />
    <glyph glyph-name="uni2474" unicode="&#x2474;" 
d="M438 552l-101 -41v78l107 44h83v-561q0 -19 -45 -19q-44 0 -44 19v480zM104 336q0 -55 9 -114t23 -114.5t31.5 -104t35.5 -81.5h-81q-21 34 -40.5 82t-34 103t-23.5 114t-9 115t9 115t23.5 114t34 103t40.5 82h81q-18 -33 -35.5 -81.5t-31.5 -104t-23 -114.5t-9 -114z
M815 336q0 55 -9 114t-23 114.5t-31.5 104t-35.5 81.5h81q21 -34 40.5 -82t34 -103t23.5 -114t9 -115t-9 -115t-23.5 -114t-34 -103t-40.5 -82h-81q18 33 35.5 81.5t31.5 104t23 114.5t9 114z" />
    <glyph glyph-name="uni2475" unicode="&#x2475;" 
d="M545 472q0 53 -27.5 74.5t-73.5 21.5q-32 0 -60 -7.5t-60 -17.5v77q22 9 52 17.5t68 8.5t72.5 -10t61 -31t42.5 -54t16 -79q0 -30 -11 -60.5t-28.5 -58.5t-38.5 -54t-40 -47l-98 -112h210q19 0 19 -39q0 -38 -19 -38h-329v73l125 138q19 22 40 45.5t38.5 48.5t29 51
t11.5 53zM104 336q0 -55 9 -114t23 -114.5t31.5 -104t35.5 -81.5h-81q-21 34 -40.5 82t-34 103t-23.5 114t-9 115t9 115t23.5 114t34 103t40.5 82h81q-18 -33 -35.5 -81.5t-31.5 -104t-23 -114.5t-9 -114zM815 336q0 55 -9 114t-23 114.5t-31.5 104t-35.5 81.5h81
q21 -34 40.5 -82t34 -103t23.5 -114t9 -115t-9 -115t-23.5 -114t-34 -103t-40.5 -82h-81q18 33 35.5 81.5t31.5 104t23 114.5t9 114z" />
    <glyph glyph-name="uni2476" unicode="&#x2476;" 
d="M443 51q-36 0 -67 5t-54 11v81q20 -6 51 -12.5t65 -6.5q26 0 50.5 5t43 16.5t29.5 30t11 44.5q0 40 -24.5 66t-72.5 26h-99v77h97q38 0 60 22.5t22 63.5q0 39 -23.5 63t-76.5 24q-28 0 -60.5 -7t-67.5 -18v79q29 10 62 17t66 7q41 0 75.5 -10t60 -30t39.5 -51t14 -74
q0 -42 -19 -74t-51 -48q39 -14 63.5 -52t24.5 -82q0 -46 -17 -78.5t-46.5 -53.5t-69.5 -31t-86 -10zM104 336q0 -55 9 -114t23 -114.5t31.5 -104t35.5 -81.5h-81q-21 34 -40.5 82t-34 103t-23.5 114t-9 115t9 115t23.5 114t34 103t40.5 82h81q-18 -33 -35.5 -81.5
t-31.5 -104t-23 -114.5t-9 -114zM815 336q0 55 -9 114t-23 114.5t-31.5 104t-35.5 81.5h81q21 -34 40.5 -82t34 -103t23.5 -114t9 -115t-9 -115t-23.5 -114t-34 -103t-40.5 -82h-81q18 33 35.5 81.5t31.5 104t23 114.5t9 114z" />
    <glyph glyph-name="uni2477" unicode="&#x2477;" 
d="M498 249v268l-145 -268h145zM586 72q0 -19 -44 -19t-44 19v99h-236v77l209 385h115v-384h54q19 0 19 -40q0 -38 -19 -38h-54v-99zM104 336q0 -55 9 -114t23 -114.5t31.5 -104t35.5 -81.5h-81q-21 34 -40.5 82t-34 103t-23.5 114t-9 115t9 115t23.5 114t34 103t40.5 82h81
q-18 -33 -35.5 -81.5t-31.5 -104t-23 -114.5t-9 -114zM815 336q0 55 -9 114t-23 114.5t-31.5 104t-35.5 81.5h81q21 -34 40.5 -82t34 -103t23.5 -114t9 -115t-9 -115t-23.5 -114t-34 -103t-40.5 -82h-81q18 33 35.5 81.5t31.5 104t23 114.5t9 114z" />
    <glyph glyph-name="uni2478" unicode="&#x2478;" 
d="M426 50q-36 0 -65 5t-51 11v81q20 -6 48 -13t63 -7q26 0 50.5 7t43 21.5t29.5 35.5t11 49q0 57 -30.5 82t-78.5 25h-118v286h270q19 0 19 -38q0 -40 -19 -40h-180v-131h33q89 0 141 -45t52 -138q0 -46 -17 -81.5t-46.5 -60t-69 -37t-85.5 -12.5zM104 336q0 -55 9 -114
t23 -114.5t31.5 -104t35.5 -81.5h-81q-21 34 -40.5 82t-34 103t-23.5 114t-9 115t9 115t23.5 114t34 103t40.5 82h81q-18 -33 -35.5 -81.5t-31.5 -104t-23 -114.5t-9 -114zM815 336q0 55 -9 114t-23 114.5t-31.5 104t-35.5 81.5h81q21 -34 40.5 -82t34 -103t23.5 -114
t9 -115t-9 -115t-23.5 -114t-34 -103t-40.5 -82h-81q18 33 35.5 81.5t31.5 104t23 114.5t9 114z" />
    <glyph glyph-name="uni2479" unicode="&#x2479;" 
d="M651 234q0 -40 -14 -73.5t-39.5 -58t-60.5 -38.5t-78 -14t-78 13t-60.5 37t-39.5 57.5t-14 73.5q0 42 17.5 79.5t33.5 70.5l132 252h96l-121 -233q22 9 50 9q37 0 69 -13t56 -36.5t37.5 -55.5t13.5 -70zM357 232q0 -47 28 -76t74 -29t74 29t28 76q0 43 -28 71.5t-74 28.5
t-74 -29t-28 -71zM104 336q0 -55 9 -114t23 -114.5t31.5 -104t35.5 -81.5h-81q-21 34 -40.5 82t-34 103t-23.5 114t-9 115t9 115t23.5 114t34 103t40.5 82h81q-18 -33 -35.5 -81.5t-31.5 -104t-23 -114.5t-9 -114zM815 336q0 55 -9 114t-23 114.5t-31.5 104t-35.5 81.5h81
q21 -34 40.5 -82t34 -103t23.5 -114t9 -115t-9 -115t-23.5 -114t-34 -103t-40.5 -82h-81q18 33 35.5 81.5t31.5 104t23 114.5t9 114z" />
    <glyph glyph-name="uni247A" unicode="&#x247a;" 
d="M294 557v77h344v-69l-195 -503h-96l192 495h-245zM104 336q0 -55 9 -114t23 -114.5t31.5 -104t35.5 -81.5h-81q-21 34 -40.5 82t-34 103t-23.5 114t-9 115t9 115t23.5 114t34 103t40.5 82h81q-18 -33 -35.5 -81.5t-31.5 -104t-23 -114.5t-9 -114zM815 336q0 55 -9 114
t-23 114.5t-31.5 104t-35.5 81.5h81q21 -34 40.5 -82t34 -103t23.5 -114t9 -115t-9 -115t-23.5 -114t-34 -103t-40.5 -82h-81q18 33 35.5 81.5t31.5 104t23 114.5t9 114z" />
    <glyph glyph-name="uni247B" unicode="&#x247b;" 
d="M460 131q45 0 75 26t30 66q0 41 -27.5 70t-77.5 29t-77.5 -29t-27.5 -70q0 -40 30 -66t75 -26zM460 567q-44 0 -69 -23.5t-25 -61.5t26 -63.5t68 -25.5t68 25.5t26 63.5t-25 61.5t-69 23.5zM460 51q-41 0 -76.5 12t-61.5 34.5t-41 54t-15 70.5q0 51 25 84.5t55 52.5
q-28 17 -49 49t-21 76q0 36 13.5 65.5t37.5 51t58 33t75 11.5t75 -11.5t58 -33t37.5 -51t13.5 -65.5q0 -44 -21 -76t-49 -49q30 -19 55 -52.5t25 -84.5q0 -39 -15 -70.5t-41 -54t-61.5 -34.5t-76.5 -12zM104 336q0 -55 9 -114t23 -114.5t31.5 -104t35.5 -81.5h-81
q-21 34 -40.5 82t-34 103t-23.5 114t-9 115t9 115t23.5 114t34 103t40.5 82h81q-18 -33 -35.5 -81.5t-31.5 -104t-23 -114.5t-9 -114zM815 336q0 55 -9 114t-23 114.5t-31.5 104t-35.5 81.5h81q21 -34 40.5 -82t34 -103t23.5 -114t9 -115t-9 -115t-23.5 -114t-34 -103
t-40.5 -82h-81q18 33 35.5 81.5t31.5 104t23 114.5t9 114z" />
    <glyph glyph-name="uni247C" unicode="&#x247c;" 
d="M279 462q0 40 14 73.5t39.5 58t60.5 38.5t78 14t78 -13t60.5 -37t39.5 -57.5t14 -73.5q0 -42 -17.5 -79.5t-33.5 -70.5l-132 -252h-96l121 233q-11 -5 -23 -7t-27 -2q-37 0 -69 13t-56 36.5t-37.5 55.5t-13.5 70zM573 464q0 47 -28 75.5t-74 28.5t-74 -28.5t-28 -75.5
q0 -43 28 -71.5t74 -28.5t74 29t28 71zM104 336q0 -55 9 -114t23 -114.5t31.5 -104t35.5 -81.5h-81q-21 34 -40.5 82t-34 103t-23.5 114t-9 115t9 115t23.5 114t34 103t40.5 82h81q-18 -33 -35.5 -81.5t-31.5 -104t-23 -114.5t-9 -114zM815 336q0 55 -9 114t-23 114.5
t-31.5 104t-35.5 81.5h81q21 -34 40.5 -82t34 -103t23.5 -114t9 -115t-9 -115t-23.5 -114t-34 -103t-40.5 -82h-81q18 33 35.5 81.5t31.5 104t23 114.5t9 114z" />
    <glyph glyph-name="uni247D" unicode="&#x247d;" 
d="M280 523q-20 -9 -43 -18t-43 -17v79l94 38h79v-486q0 -21 -44 -21q-43 0 -43 21v404zM641 356q0 40 -2.5 73.5t-9 58t-19.5 38.5t-34 14t-34 -14t-19.5 -38.5t-9 -58t-2.5 -73.5t2.5 -73.5t9 -58t19.5 -38.5t34 -14t34 14t19.5 38.5t9 58t2.5 73.5zM728 356
q0 -59 -7.5 -107t-25.5 -82t-47 -52.5t-72 -18.5t-72 18.5t-47 52.5t-25.5 82t-7.5 107t7.5 107t25.5 82t47 52.5t72 18.5t72 -18.5t47 -52.5t25.5 -82t7.5 -107zM104 336q0 -55 9 -114t23 -114.5t31.5 -104t35.5 -81.5h-81q-21 34 -40.5 82t-34 103t-23.5 114t-9 115t9 115
t23.5 114t34 103t40.5 82h81q-18 -33 -35.5 -81.5t-31.5 -104t-23 -114.5t-9 -114zM815 336q0 55 -9 114t-23 114.5t-31.5 104t-35.5 81.5h81q21 -34 40.5 -82t34 -103t23.5 -114t9 -115t-9 -115t-23.5 -114t-34 -103t-40.5 -82h-81q18 33 35.5 81.5t31.5 104t23 114.5
t9 114z" />
    <glyph glyph-name="uni247E" unicode="&#x247e;" 
d="M310 523q-20 -9 -43 -18t-43 -17v79l94 38h79v-486q0 -21 -44 -21q-43 0 -43 21v404zM570 523q-20 -9 -43 -18t-43 -17v79l94 38h79v-486q0 -21 -44 -21q-43 0 -43 21v404zM104 336q0 -55 9 -114t23 -114.5t31.5 -104t35.5 -81.5h-81q-21 34 -40.5 82t-34 103t-23.5 114
t-9 115t9 115t23.5 114t34 103t40.5 82h81q-18 -33 -35.5 -81.5t-31.5 -104t-23 -114.5t-9 -114zM815 336q0 55 -9 114t-23 114.5t-31.5 104t-35.5 81.5h81q21 -34 40.5 -82t34 -103t23.5 -114t9 -115t-9 -115t-23.5 -114t-34 -103t-40.5 -82h-81q18 33 35.5 81.5t31.5 104
t23 114.5t9 114z" />
    <glyph glyph-name="uni247F" unicode="&#x247f;" 
d="M280 523q-20 -9 -43 -18t-43 -17v79l94 38h79v-486q0 -21 -44 -21q-43 0 -43 21v404zM542 183h165q21 0 21 -38t-21 -38h-283v70l124 140q30 33 55.5 69.5t25.5 77.5q0 42 -21 60t-58 18q-26 0 -53 -8.5t-52 -16.5v77q20 8 45 16t60 8q34 0 64 -9t53 -28t36.5 -48.5
t13.5 -69.5q0 -26 -9.5 -51.5t-24 -50.5t-32 -47.5t-33.5 -41.5zM104 336q0 -55 9 -114t23 -114.5t31.5 -104t35.5 -81.5h-81q-21 34 -40.5 82t-34 103t-23.5 114t-9 115t9 115t23.5 114t34 103t40.5 82h81q-18 -33 -35.5 -81.5t-31.5 -104t-23 -114.5t-9 -114zM815 336
q0 55 -9 114t-23 114.5t-31.5 104t-35.5 81.5h81q21 -34 40.5 -82t34 -103t23.5 -114t9 -115t-9 -115t-23.5 -114t-34 -103t-40.5 -82h-81q18 33 35.5 81.5t31.5 104t23 114.5t9 114z" />
    <glyph glyph-name="uni2480" unicode="&#x2480;" 
d="M535 96q-32 0 -58.5 4.5t-46.5 10.5v80q19 -6 45.5 -12t55.5 -6q43 0 74.5 17.5t31.5 59.5q0 32 -17.5 53.5t-56.5 21.5h-88v76h86q30 0 45.5 18t15.5 50t-17 51.5t-59 19.5q-23 0 -51.5 -6.5t-60.5 -17.5v78q26 10 54.5 16t57.5 6q72 0 117.5 -35t45.5 -112
q0 -33 -15 -60t-39 -44q32 -14 50.5 -46t18.5 -70q0 -41 -14.5 -70t-39.5 -47.5t-60 -27t-75 -8.5zM280 523q-20 -9 -43 -18t-43 -17v79l94 38h79v-486q0 -21 -44 -21q-43 0 -43 21v404zM104 336q0 -55 9 -114t23 -114.5t31.5 -104t35.5 -81.5h-81q-21 34 -40.5 82t-34 103
t-23.5 114t-9 115t9 115t23.5 114t34 103t40.5 82h81q-18 -33 -35.5 -81.5t-31.5 -104t-23 -114.5t-9 -114zM815 336q0 55 -9 114t-23 114.5t-31.5 104t-35.5 81.5h81q21 -34 40.5 -82t34 -103t23.5 -114t9 -115t-9 -115t-23.5 -114t-34 -103t-40.5 -82h-81q18 33 35.5 81.5
t31.5 104t23 114.5t9 114z" />
    <glyph glyph-name="uni2481" unicode="&#x2481;" 
d="M607 276v206q-29 -54 -54 -103t-54 -103h108zM692 119q0 -21 -43 -21q-42 0 -42 21v80h-197v71l176 335h106v-329h42q12 0 16.5 -10t4.5 -30q0 -19 -4.5 -28t-16.5 -9h-42v-80zM280 523q-20 -9 -43 -18t-43 -17v79l94 38h79v-486q0 -21 -44 -21q-43 0 -43 21v404z
M104 336q0 -55 9 -114t23 -114.5t31.5 -104t35.5 -81.5h-81q-21 34 -40.5 82t-34 103t-23.5 114t-9 115t9 115t23.5 114t34 103t40.5 82h81q-18 -33 -35.5 -81.5t-31.5 -104t-23 -114.5t-9 -114zM815 336q0 55 -9 114t-23 114.5t-31.5 104t-35.5 81.5h81q21 -34 40.5 -82
t34 -103t23.5 -114t9 -115t-9 -115t-23.5 -114t-34 -103t-40.5 -82h-81q18 33 35.5 81.5t31.5 104t23 114.5t9 114z" />
    <glyph glyph-name="uni2482" unicode="&#x2482;" 
d="M280 523q-20 -9 -43 -18t-43 -17v79l94 38h79v-486q0 -21 -44 -21q-43 0 -43 21v404zM544 94q-32 0 -56 4.5t-45 10.5v80q19 -6 43.5 -12t53.5 -6q21 0 40.5 5.5t34.5 17t23.5 29t8.5 40.5q0 46 -23 66t-62 20h-103v256h230q12 0 16.5 -9t4.5 -28q0 -20 -4.5 -29.5
t-16.5 -9.5h-134v-103h11q79 0 123 -40t44 -122q0 -41 -14.5 -72.5t-39.5 -53.5t-60 -33t-75 -11zM104 336q0 -55 9 -114t23 -114.5t31.5 -104t35.5 -81.5h-81q-21 34 -40.5 82t-34 103t-23.5 114t-9 115t9 115t23.5 114t34 103t40.5 82h81q-18 -33 -35.5 -81.5t-31.5 -104
t-23 -114.5t-9 -114zM815 336q0 55 -9 114t-23 114.5t-31.5 104t-35.5 81.5h81q21 -34 40.5 -82t34 -103t23.5 -114t9 -115t-9 -115t-23.5 -114t-34 -103t-40.5 -82h-81q18 33 35.5 81.5t31.5 104t23 114.5t9 114z" />
    <glyph glyph-name="uni2483" unicode="&#x2483;" 
d="M280 523q-20 -9 -43 -18t-43 -17v79l94 38h79v-486q0 -21 -44 -21q-43 0 -43 21v404zM573 605h92l-101 -196q7 2 14.5 3t17.5 1q33 0 61.5 -11.5t49.5 -32.5t33 -49.5t12 -62.5q0 -35 -12.5 -65t-35 -51.5t-54 -34t-68.5 -12.5q-38 0 -69 12t-53 33t-34.5 50.5
t-12.5 65.5q0 31 12 61.5t26 56.5zM499 256q0 -38 23 -61.5t60 -23.5t60.5 23.5t23.5 61.5q0 35 -23.5 57.5t-60.5 22.5t-60 -23t-23 -57zM104 336q0 -55 9 -114t23 -114.5t31.5 -104t35.5 -81.5h-81q-21 34 -40.5 82t-34 103t-23.5 114t-9 115t9 115t23.5 114t34 103
t40.5 82h81q-18 -33 -35.5 -81.5t-31.5 -104t-23 -114.5t-9 -114zM815 336q0 55 -9 114t-23 114.5t-31.5 104t-35.5 81.5h81q21 -34 40.5 -82t34 -103t23.5 -114t9 -115t-9 -115t-23.5 -114t-34 -103t-40.5 -82h-81q18 33 35.5 81.5t31.5 104t23 114.5t9 114z" />
    <glyph glyph-name="uni2484" unicode="&#x2484;" 
d="M280 523q-20 -9 -43 -18t-43 -17v79l94 38h79v-486q0 -21 -44 -21q-43 0 -43 21v404zM430 531v76h286v-66l-148 -436h-94l144 426h-188zM104 336q0 -55 9 -114t23 -114.5t31.5 -104t35.5 -81.5h-81q-21 34 -40.5 82t-34 103t-23.5 114t-9 115t9 115t23.5 114t34 103
t40.5 82h81q-18 -33 -35.5 -81.5t-31.5 -104t-23 -114.5t-9 -114zM815 336q0 55 -9 114t-23 114.5t-31.5 104t-35.5 81.5h81q21 -34 40.5 -82t34 -103t23.5 -114t9 -115t-9 -115t-23.5 -114t-34 -103t-40.5 -82h-81q18 33 35.5 81.5t31.5 104t23 114.5t9 114z" />
    <glyph glyph-name="uni2485" unicode="&#x2485;" 
d="M280 523q-20 -9 -43 -18t-43 -17v79l94 38h79v-486q0 -21 -44 -21q-43 0 -43 21v404zM582 175q36 0 58.5 21t22.5 53t-20.5 56t-60.5 24t-60 -24t-20 -56t22 -53t58 -21zM582 540q-35 0 -53 -19.5t-18 -49.5t19 -51t52 -21q34 0 53 21t19 51t-18.5 49.5t-53.5 19.5z
M582 96q-36 0 -66.5 10.5t-52.5 30.5t-34.5 47.5t-12.5 62.5q0 45 16.5 73.5t41.5 45.5q-22 16 -35.5 43.5t-13.5 63.5q0 64 42 103.5t115 39.5q74 0 116 -39.5t42 -103.5q0 -36 -13.5 -63.5t-36.5 -43.5q26 -17 42.5 -45.5t16.5 -73.5q0 -35 -12.5 -62.5t-34.5 -47.5
t-53 -30.5t-67 -10.5zM104 336q0 -55 9 -114t23 -114.5t31.5 -104t35.5 -81.5h-81q-21 34 -40.5 82t-34 103t-23.5 114t-9 115t9 115t23.5 114t34 103t40.5 82h81q-18 -33 -35.5 -81.5t-31.5 -104t-23 -114.5t-9 -114zM815 336q0 55 -9 114t-23 114.5t-31.5 104t-35.5 81.5
h81q21 -34 40.5 -82t34 -103t23.5 -114t9 -115t-9 -115t-23.5 -114t-34 -103t-40.5 -82h-81q18 33 35.5 81.5t31.5 104t23 114.5t9 114z" />
    <glyph glyph-name="uni2486" unicode="&#x2486;" 
d="M280 523q-20 -9 -43 -18t-43 -17v79l94 38h79v-486q0 -21 -44 -21q-43 0 -43 21v404zM407 455q0 35 12.5 65t34.5 51.5t53 34t69 12.5q37 0 68.5 -12t54 -33t35 -50.5t12.5 -65.5q0 -38 -14.5 -69t-30.5 -61l-115 -220h-92l101 196q-13 -4 -32 -4q-33 0 -61.5 11.5
t-49.5 32.5t-33 49.5t-12 62.5zM660 456q0 38 -23.5 62t-60.5 24t-60 -24t-23 -62q0 -35 23 -57.5t60 -22.5t60.5 23t23.5 57zM104 336q0 -55 9 -114t23 -114.5t31.5 -104t35.5 -81.5h-81q-21 34 -40.5 82t-34 103t-23.5 114t-9 115t9 115t23.5 114t34 103t40.5 82h81
q-18 -33 -35.5 -81.5t-31.5 -104t-23 -114.5t-9 -114zM815 336q0 55 -9 114t-23 114.5t-31.5 104t-35.5 81.5h81q21 -34 40.5 -82t34 -103t23.5 -114t9 -115t-9 -115t-23.5 -114t-34 -103t-40.5 -82h-81q18 33 35.5 81.5t31.5 104t23 114.5t9 114z" />
    <glyph glyph-name="uni2487" unicode="&#x2487;" 
d="M674 356q0 40 -1.5 73.5t-7 58t-16.5 38.5t-31 14t-31 -14t-16.5 -38.5t-7 -58t-1.5 -73.5t1.5 -73.5t7 -58t16.5 -38.5t31 -14t31 14t16.5 38.5t7 58t1.5 73.5zM756 356q0 -59 -6 -107t-22 -82t-42.5 -52.5t-67.5 -18.5t-67 18.5t-42 52.5t-22 82t-6 107t6 107t22 82
t42 52.5t67 18.5t67.5 -18.5t42.5 -52.5t22 -82t6 -107zM304 183h141q20 0 20 -38t-20 -38h-251v70l103 140q12 16 25 34t24 37t18 38.5t7 37.5q0 45 -16 61.5t-47 16.5q-25 0 -49 -8t-47 -17v77q19 8 41 16t55 8q65 0 106 -37t41 -118q0 -27 -7 -50t-19 -45.5t-28 -45.5
t-35 -50zM104 336q0 -55 9 -114t23 -114.5t31.5 -104t35.5 -81.5h-81q-21 34 -40.5 82t-34 103t-23.5 114t-9 115t9 115t23.5 114t34 103t40.5 82h81q-18 -33 -35.5 -81.5t-31.5 -104t-23 -114.5t-9 -114zM815 336q0 55 -9 114t-23 114.5t-31.5 104t-35.5 81.5h81
q21 -34 40.5 -82t34 -103t23.5 -114t9 -115t-9 -115t-23.5 -114t-34 -103t-40.5 -82h-81q18 33 35.5 81.5t31.5 104t23 114.5t9 114z" />
    <glyph glyph-name="uni249C" unicode="&#x249c;" 
d="M343 480q-12 0 -18 9.5t-6 32.5q0 41 24 41h139q80 0 115.5 -33.5t35.5 -114.5v-250q0 -14 -14 -19t-34 -5t-32.5 4.5t-15.5 13.5q-28 -12 -60.5 -18.5t-60.5 -6.5q-30 0 -57.5 8.5t-47.5 25.5t-32 44t-12 64q0 35 12.5 62t35 46t53 28.5t66.5 9.5q28 0 54 -5t48 -10v12
q0 32 -14 46.5t-47 14.5h-132zM104 336q0 -55 9 -114t23 -114.5t31.5 -104t35.5 -81.5h-81q-21 34 -40.5 82t-34 103t-23.5 114t-9 115t9 115t23.5 114t34 103t40.5 82h81q-18 -33 -35.5 -81.5t-31.5 -104t-23 -114.5t-9 -114zM815 336q0 55 -9 114t-23 114.5t-31.5 104
t-35.5 81.5h81q21 -34 40.5 -82t34 -103t23.5 -114t9 -115t-9 -115t-23.5 -114t-34 -103t-40.5 -82h-81q18 33 35.5 81.5t31.5 104t23 114.5t9 114zM438 339q-38 0 -56 -18.5t-18 -44.5q0 -25 15.5 -41.5t45.5 -16.5t58.5 6t52.5 15v85q-23 6 -47.5 10.5t-50.5 4.5z" />
    <glyph glyph-name="uni249D" unicode="&#x249d;" 
d="M377 435q22 19 53 31t64 12q48 0 86 -17t63.5 -46t39 -68t13.5 -83q0 -47 -14.5 -86t-40.5 -67t-61 -44t-75 -16q-43 0 -74 11t-54 33v-18q0 -13 -12.5 -18t-34.5 -5q-20 0 -33 5t-13 18v565h93v-207zM377 260q0 -41 11.5 -65.5t28.5 -38t36 -18t35 -4.5q49 0 80.5 35
t31.5 95q0 56 -29.5 93t-82.5 37q-18 0 -37.5 -5t-36 -19.5t-27 -40.5t-10.5 -69zM104 336q0 -55 9 -114t23 -114.5t31.5 -104t35.5 -81.5h-81q-21 34 -40.5 82t-34 103t-23.5 114t-9 115t9 115t23.5 114t34 103t40.5 82h81q-18 -33 -35.5 -81.5t-31.5 -104t-23 -114.5
t-9 -114zM815 336q0 55 -9 114t-23 114.5t-31.5 104t-35.5 81.5h81q21 -34 40.5 -82t34 -103t23.5 -114t9 -115t-9 -115t-23.5 -114t-34 -103t-40.5 -82h-81q18 33 35.5 81.5t31.5 104t23 114.5t9 114z" />
    <glyph glyph-name="uni249E" unicode="&#x249e;" 
d="M570 461q-14 5 -36.5 7.5t-42.5 2.5q-60 0 -91 -38t-31 -95t30.5 -96t90.5 -39q25 0 48.5 4t43.5 11q12 4 21 -1.5t17 -26.5t6 -31t-13 -16q-10 -6 -25 -10t-32 -7t-34.5 -4.5t-32.5 -1.5q-48 0 -88 15t-68.5 43t-44 68.5t-15.5 90.5q0 52 16.5 93t46 68.5t69 42
t85.5 14.5q29 0 61 -5.5t51 -13.5q10 -4 12 -15t-5 -32q-8 -21 -17.5 -26.5t-20.5 -1.5h-1zM104 336q0 -55 9 -114t23 -114.5t31.5 -104t35.5 -81.5h-81q-21 34 -40.5 82t-34 103t-23.5 114t-9 115t9 115t23.5 114t34 103t40.5 82h81q-18 -33 -35.5 -81.5t-31.5 -104
t-23 -114.5t-9 -114zM815 336q0 55 -9 114t-23 114.5t-31.5 104t-35.5 81.5h81q21 -34 40.5 -82t34 -103t23.5 -114t9 -115t-9 -115t-23.5 -114t-34 -103t-40.5 -82h-81q18 33 35.5 81.5t31.5 104t23 114.5t9 114z" />
    <glyph glyph-name="uni249F" unicode="&#x249f;" 
d="M541 95q-45 -44 -128 -44q-41 0 -75 16t-59 44t-39 67t-14 86q0 44 13 83t38 68t62 46t85 17q35 0 65 -10.5t53 -29.5v204h92v-565q0 -13 -12.5 -18t-33.5 -5q-46 0 -46 23zM542 260q0 43 -10.5 69t-27 40.5t-36 19.5t-37.5 5q-54 0 -81 -37t-27 -93q0 -60 29 -95t79 -35
q16 0 35 4.5t36 18t28.5 38t11.5 65.5zM104 336q0 -55 9 -114t23 -114.5t31.5 -104t35.5 -81.5h-81q-21 34 -40.5 82t-34 103t-23.5 114t-9 115t9 115t23.5 114t34 103t40.5 82h81q-18 -33 -35.5 -81.5t-31.5 -104t-23 -114.5t-9 -114zM815 336q0 55 -9 114t-23 114.5
t-31.5 104t-35.5 81.5h81q21 -34 40.5 -82t34 -103t23.5 -114t9 -115t-9 -115t-23.5 -114t-34 -103t-40.5 -82h-81q18 33 35.5 81.5t31.5 104t23 114.5t9 114z" />
    <glyph glyph-name="uni24A0" unicode="&#x24a0;" 
d="M558 377q-5 45 -31 69.5t-67 24.5q-24 0 -42 -8t-30 -21t-19 -30t-10 -35h199zM494 120q-50 0 -92.5 13t-73.5 39.5t-48.5 67.5t-17.5 97q0 50 15 90.5t42 69t63 43.5t78 15q52 0 89.5 -18t61.5 -49t35 -71.5t11 -86.5q0 -20 -9 -27.5t-24 -7.5h-264q4 -23 16.5 -40
t30 -28.5t39.5 -17.5t46 -6t48 5.5t45 13.5q11 5 20.5 -0.5t17.5 -26.5q7 -20 5.5 -31t-12.5 -16q-11 -6 -25.5 -11.5t-31 -9t-33.5 -5.5t-32 -2zM104 336q0 -55 9 -114t23 -114.5t31.5 -104t35.5 -81.5h-81q-21 34 -40.5 82t-34 103t-23.5 114t-9 115t9 115t23.5 114
t34 103t40.5 82h81q-18 -33 -35.5 -81.5t-31.5 -104t-23 -114.5t-9 -114zM815 336q0 55 -9 114t-23 114.5t-31.5 104t-35.5 81.5h81q21 -34 40.5 -82t34 -103t23.5 -114t9 -115t-9 -115t-23.5 -114t-34 -103t-40.5 -82h-81q18 33 35.5 81.5t31.5 104t23 114.5t9 114z" />
    <glyph glyph-name="uni24A1" unicode="&#x24a1;" 
d="M397 381h-76v83h76v74q0 45 27 70.5t71 25.5h72q25 0 25 -44q0 -22 -6 -31t-19 -9h-48q-15 0 -20.5 -11.5t-5.5 -25.5v-49h81q24 0 24 -42q0 -23 -6 -32t-18 -9h-81v-314q0 -14 -13.5 -18.5t-33.5 -4.5q-21 0 -35 4.5t-14 18.5v314zM104 336q0 -55 9 -114t23 -114.5
t31.5 -104t35.5 -81.5h-81q-21 34 -40.5 82t-34 103t-23.5 114t-9 115t9 115t23.5 114t34 103t40.5 82h81q-18 -33 -35.5 -81.5t-31.5 -104t-23 -114.5t-9 -114zM815 336q0 55 -9 114t-23 114.5t-31.5 104t-35.5 81.5h81q21 -34 40.5 -82t34 -103t23.5 -114t9 -115t-9 -115
t-23.5 -114t-34 -103t-40.5 -82h-81q18 33 35.5 81.5t31.5 104t23 114.5t9 114z" />
    <glyph glyph-name="uni24A2" unicode="&#x24a2;" 
d="M561 249q-21 -20 -52 -31t-65 -11q-48 0 -85 17.5t-61.5 47t-37.5 69t-13 83.5q0 46 14 85.5t39 69t59 46t75 16.5q45 0 75 -10.5t52 -32.5v33h92v-399q0 -44 -11.5 -82.5t-35.5 -67.5t-61.5 -45.5t-89.5 -16.5h-113q-24 0 -24 41q0 23 5.5 33t18.5 10h105q60 0 87 36
t27 98v11zM561 428q0 40 -11.5 66t-28 40t-35.5 19.5t-35 5.5q-49 0 -78.5 -38t-29.5 -97q0 -27 7 -51.5t20.5 -43t34 -29t46.5 -10.5q18 0 37 6t35.5 21t27 42t10.5 69zM104 336q0 -55 9 -114t23 -114.5t31.5 -104t35.5 -81.5h-81q-21 34 -40.5 82t-34 103t-23.5 114
t-9 115t9 115t23.5 114t34 103t40.5 82h81q-18 -33 -35.5 -81.5t-31.5 -104t-23 -114.5t-9 -114zM815 336q0 55 -9 114t-23 114.5t-31.5 104t-35.5 81.5h81q21 -34 40.5 -82t34 -103t23.5 -114t9 -115t-9 -115t-23.5 -114t-34 -103t-40.5 -82h-81q18 33 35.5 81.5t31.5 104
t23 114.5t9 114z" />
    <glyph glyph-name="uni24A3" unicode="&#x24a3;" 
d="M556 335q0 31 -24.5 47t-62.5 16q-16 0 -31.5 -4t-28 -11t-20 -15t-7.5 -17v-284q0 -14 -13 -19t-34 -5q-22 0 -35 5t-13 19v566h95v-190q19 15 50.5 26.5t66.5 11.5q36 0 64.5 -12.5t48 -33.5t30 -48.5t10.5 -58.5v-261q0 -14 -13.5 -19t-34.5 -5t-34.5 5t-13.5 19v268z
M104 336q0 -55 9 -114t23 -114.5t31.5 -104t35.5 -81.5h-81q-21 34 -40.5 82t-34 103t-23.5 114t-9 115t9 115t23.5 114t34 103t40.5 82h81q-18 -33 -35.5 -81.5t-31.5 -104t-23 -114.5t-9 -114zM815 336q0 55 -9 114t-23 114.5t-31.5 104t-35.5 81.5h81q21 -34 40.5 -82
t34 -103t23.5 -114t9 -115t-9 -115t-23.5 -114t-34 -103t-40.5 -82h-81q18 33 35.5 81.5t31.5 104t23 114.5t9 114z" />
    <glyph glyph-name="uni24A4" unicode="&#x24a4;" 
d="M401 587q0 26 16.5 42.5t41.5 16.5t42 -16.5t17 -42.5q0 -24 -17 -41.5t-42 -17.5t-41.5 17.5t-16.5 41.5zM411 473h95v-405q0 -13 -13.5 -18t-33.5 -5q-22 0 -35 5t-13 18v405zM104 336q0 -55 9 -114t23 -114.5t31.5 -104t35.5 -81.5h-81q-21 34 -40.5 82t-34 103
t-23.5 114t-9 115t9 115t23.5 114t34 103t40.5 82h81q-18 -33 -35.5 -81.5t-31.5 -104t-23 -114.5t-9 -114zM815 336q0 55 -9 114t-23 114.5t-31.5 104t-35.5 81.5h81q21 -34 40.5 -82t34 -103t23.5 -114t9 -115t-9 -115t-23.5 -114t-34 -103t-40.5 -82h-81q18 33 35.5 81.5
t31.5 104t23 114.5t9 114z" />
    <glyph glyph-name="uni24A5" unicode="&#x24a5;" 
d="M328 19q-24 0 -24 41q0 43 24 43h58q26 0 33.5 14t7.5 35v353h96v-349q0 -64 -28 -100.5t-93 -36.5h-74zM417 620q0 25 17 42t42 17t42 -17t17 -42t-17 -42t-42 -17t-42 17t-17 42zM104 336q0 -55 9 -114t23 -114.5t31.5 -104t35.5 -81.5h-81q-21 34 -40.5 82t-34 103
t-23.5 114t-9 115t9 115t23.5 114t34 103t40.5 82h81q-18 -33 -35.5 -81.5t-31.5 -104t-23 -114.5t-9 -114zM815 336q0 55 -9 114t-23 114.5t-31.5 104t-35.5 81.5h81q21 -34 40.5 -82t34 -103t23.5 -114t9 -115t-9 -115t-23.5 -114t-34 -103t-40.5 -82h-81q18 33 35.5 81.5
t31.5 104t23 114.5t9 114z" />
    <glyph glyph-name="uni24A6" unicode="&#x24a6;" 
d="M386 66q0 -13 -13.5 -18t-33.5 -5q-23 0 -35.5 6t-12.5 17v563h95v-320h32l119 156h110l-152 -197q42 -52 87 -108.5t87 -108.5h-109l-139 175h-35v-160zM815 336q0 55 -9 114t-23 114.5t-31.5 104t-35.5 81.5h81q21 -34 40.5 -82t34 -103t23.5 -114t9 -115t-9 -115
t-23.5 -114t-34 -103t-40.5 -82h-81q18 33 35.5 81.5t31.5 104t23 114.5t9 114zM104 336q0 -55 9 -114t23 -114.5t31.5 -104t35.5 -81.5h-81q-21 34 -40.5 82t-34 103t-23.5 114t-9 115t9 115t23.5 114t34 103t40.5 82h81q-18 -33 -35.5 -81.5t-31.5 -104t-23 -114.5
t-9 -114z" />
    <glyph glyph-name="uni24A7" unicode="&#x24a7;" 
d="M411 642h97v-574q0 -14 -13.5 -19t-34.5 -5q-23 0 -36 6.5t-13 17.5v574zM104 336q0 -55 9 -114t23 -114.5t31.5 -104t35.5 -81.5h-81q-21 34 -40.5 82t-34 103t-23.5 114t-9 115t9 115t23.5 114t34 103t40.5 82h81q-18 -33 -35.5 -81.5t-31.5 -104t-23 -114.5t-9 -114z
M815 336q0 55 -9 114t-23 114.5t-31.5 104t-35.5 81.5h81q21 -34 40.5 -82t34 -103t23.5 -114t9 -115t-9 -115t-23.5 -114t-34 -103t-40.5 -82h-81q18 33 35.5 81.5t31.5 104t23 114.5t9 114z" />
    <glyph glyph-name="uni24A8" unicode="&#x24a8;" 
d="M635 418q0 22 -15 40.5t-47 18.5q-16 0 -27.5 -5.5t-19 -14t-11 -19t-3.5 -20.5v-270q0 -14 -13 -19t-34 -5t-34.5 5t-13.5 19v268q0 22 -14.5 41t-47.5 19q-16 0 -27 -5.5t-18.5 -14t-11 -18.5t-3.5 -20v-270q0 -14 -14 -19t-34 -5q-21 0 -34.5 5t-13.5 19v397h92v-25
q14 17 37 28.5t60 11.5q36 0 60 -14.5t37 -35.5q17 23 44 36.5t71 13.5q36 0 61 -12t40 -32.5t22 -47.5t7 -56v-264q0 -14 -13 -19t-34 -5q-20 0 -34 5t-14 19v270zM104 336q0 -55 9 -114t23 -114.5t31.5 -104t35.5 -81.5h-81q-21 34 -40.5 82t-34 103t-23.5 114t-9 115
t9 115t23.5 114t34 103t40.5 82h81q-18 -33 -35.5 -81.5t-31.5 -104t-23 -114.5t-9 -114zM815 336q0 55 -9 114t-23 114.5t-31.5 104t-35.5 81.5h81q21 -34 40.5 -82t34 -103t23.5 -114t9 -115t-9 -115t-23.5 -114t-34 -103t-40.5 -82h-81q18 33 35.5 81.5t31.5 104
t23 114.5t9 114z" />
    <glyph glyph-name="uni24A9" unicode="&#x24a9;" 
d="M284 547h92v-27q17 17 45 29.5t73 12.5q33 0 60.5 -11.5t48 -32t31.5 -49t11 -62.5v-259q0 -14 -13.5 -19t-34.5 -5q-20 0 -34 5t-14 19v265q0 35 -26 50.5t-59 15.5q-16 0 -31 -4t-27 -11t-19 -16t-7 -18v-282q0 -14 -13.5 -19t-34.5 -5t-34.5 5t-13.5 19v399zM104 336
q0 -55 9 -114t23 -114.5t31.5 -104t35.5 -81.5h-81q-21 34 -40.5 82t-34 103t-23.5 114t-9 115t9 115t23.5 114t34 103t40.5 82h81q-18 -33 -35.5 -81.5t-31.5 -104t-23 -114.5t-9 -114zM815 336q0 55 -9 114t-23 114.5t-31.5 104t-35.5 81.5h81q21 -34 40.5 -82t34 -103
t23.5 -114t9 -115t-9 -115t-23.5 -114t-34 -103t-40.5 -82h-81q18 33 35.5 81.5t31.5 104t23 114.5t9 114z" />
    <glyph glyph-name="uni24AA" unicode="&#x24aa;" 
d="M460 203q28 0 49.5 11.5t36.5 30t22.5 42.5t7.5 50q0 25 -7.5 49t-22.5 43t-36.5 30.5t-49.5 11.5t-49.5 -11.5t-36 -30.5t-22 -43t-7.5 -49q0 -26 7.5 -50t22 -42.5t36 -30t49.5 -11.5zM460 120q-50 0 -89 17t-66 46t-41.5 69t-14.5 85t14.5 85t41.5 69.5t66 46.5t89 17
t89 -17t66 -46.5t41.5 -69.5t14.5 -85t-14.5 -85t-41.5 -69t-66 -46t-89 -17zM104 336q0 -55 9 -114t23 -114.5t31.5 -104t35.5 -81.5h-81q-21 34 -40.5 82t-34 103t-23.5 114t-9 115t9 115t23.5 114t34 103t40.5 82h81q-18 -33 -35.5 -81.5t-31.5 -104t-23 -114.5t-9 -114z
M815 336q0 55 -9 114t-23 114.5t-31.5 104t-35.5 81.5h81q21 -34 40.5 -82t34 -103t23.5 -114t9 -115t-9 -115t-23.5 -114t-34 -103t-40.5 -82h-81q18 33 35.5 81.5t31.5 104t23 114.5t9 114z" />
    </font>
</defs>
</svg>
